<svg width="33" height="33" viewBox="0 0 33 33" fill="none" xmlns="http://www.w3.org/2000/svg">
<path d="M28.1673 4.8327C25.0508 1.71626 20.9073 0 16.5 0C12.0927 0 7.9492 1.71626 4.8327 4.8327C1.71626 7.9492 0 12.0927 0 16.5C0 20.9073 1.71626 25.0508 4.8327 28.1673C7.9492 31.2837 12.0927 33 16.5 33C20.9073 33 25.0508 31.2837 28.1673 28.1673C31.2837 25.0508 33 20.9073 33 16.5C33 12.0927 31.2837 7.9492 28.1673 4.8327ZM16.5 30.8478C8.58864 30.8478 2.15215 24.4114 2.15215 16.5C2.15215 8.58857 8.58864 2.15215 16.5 2.15215C24.4114 2.15215 30.8478 8.58864 30.8478 16.5C30.8478 24.4114 24.4114 30.8478 16.5 30.8478Z" fill="#274FA6"/>
<path d="M21.6437 7.32874L13.3585 17.1597L10.7382 14.7775L6.2439 19.7208L13.9968 26.7694L26.7524 11.6342L21.6437 7.32874ZM13.7911 23.6739L9.28402 19.5761L10.8828 17.8176L13.564 20.2553L21.9023 10.3614L23.7197 11.8929L13.7911 23.6739Z" fill="#274FA6"/>
</svg>
