<svg width="18" height="18" viewBox="0 0 18 18" fill="none" xmlns="http://www.w3.org/2000/svg">
<path d="M5.27344 5.27344H12.7266V12.7266H5.27344V5.27344Z" fill="white"/>
<path d="M17.4727 7.41797C17.7639 7.41797 18 7.1819 18 6.89062C18 6.59935 17.7639 6.36328 17.4727 6.36328H15.8906V5.30859H17.4727C17.7639 5.30859 18 5.07253 18 4.78125C18 4.48997 17.7639 4.25391 17.4727 4.25391H15.8906V3.33984C15.8906 2.6613 15.3387 2.10938 14.6602 2.10938H13.7461V0.527344C13.7461 0.236069 13.51 0 13.2188 0C12.9275 0 12.6914 0.236069 12.6914 0.527344V2.10938H11.6367V0.527344C11.6367 0.236069 11.4007 0 11.1094 0C10.8181 0 10.582 0.236069 10.582 0.527344V2.10938H9.52734V0.527344C9.52734 0.236069 9.29128 0 9 0C8.70872 0 8.47266 0.236069 8.47266 0.527344V2.10938H7.41797V0.527344C7.41797 0.236069 7.1819 0 6.89062 0C6.59935 0 6.36328 0.236069 6.36328 0.527344V2.10938H5.30859V0.527344C5.30859 0.236069 5.07253 0 4.78125 0C4.48997 0 4.25391 0.236069 4.25391 0.527344V2.10938H3.33984C2.6613 2.10938 2.10938 2.6613 2.10938 3.33984V4.25391H0.527344C0.236069 4.25391 0 4.48997 0 4.78125C0 5.07253 0.236069 5.30859 0.527344 5.30859H2.10938V6.36328H0.527344C0.236069 6.36328 0 6.59935 0 6.89062C0 7.1819 0.236069 7.41797 0.527344 7.41797H2.10938V8.47266H0.527344C0.236069 8.47266 0 8.70872 0 9C0 9.29128 0.236069 9.52734 0.527344 9.52734H2.10938V10.582H0.527344C0.236069 10.582 0 10.8181 0 11.1094C0 11.4007 0.236069 11.6367 0.527344 11.6367H2.10938V12.6914H0.527344C0.236069 12.6914 0 12.9275 0 13.2188C0 13.51 0.236069 13.7461 0.527344 13.7461H2.10938V14.6602C2.10938 15.3387 2.6613 15.8906 3.33984 15.8906H4.25391V17.4727C4.25391 17.7639 4.48997 18 4.78125 18C5.07253 18 5.30859 17.7639 5.30859 17.4727V15.8906H6.36328V17.4727C6.36328 17.7639 6.59935 18 6.89062 18C7.1819 18 7.41797 17.7639 7.41797 17.4727V15.8906H8.47266V17.4727C8.47266 17.7639 8.70872 18 9 18C9.29128 18 9.52734 17.7639 9.52734 17.4727V15.8906H10.582V17.4727C10.582 17.7639 10.8181 18 11.1094 18C11.4007 18 11.6367 17.7639 11.6367 17.4727V15.8906H12.6914V17.4727C12.6914 17.7639 12.9275 18 13.2188 18C13.51 18 13.7461 17.7639 13.7461 17.4727V15.8906H14.6602C15.3387 15.8906 15.8906 15.3387 15.8906 14.6602V13.7461H17.4727C17.7639 13.7461 18 13.51 18 13.2188C18 12.9275 17.7639 12.6914 17.4727 12.6914H15.8906V11.6367H17.4727C17.7639 11.6367 18 11.4007 18 11.1094C18 10.8181 17.7639 10.582 17.4727 10.582H15.8906V9.52734H17.4727C17.7639 9.52734 18 9.29128 18 9C18 8.70872 17.7639 8.47266 17.4727 8.47266H15.8906V7.41797H17.4727ZM13.7812 13.2539C13.7812 13.5452 13.5452 13.7812 13.2539 13.7812H4.74609C4.45482 13.7812 4.21875 13.5452 4.21875 13.2539V4.74609C4.21875 4.45482 4.45482 4.21875 4.74609 4.21875H13.2539C13.5452 4.21875 13.7812 4.45482 13.7812 4.74609V13.2539Z" fill="white"/>
</svg>
