<svg width="33" height="33" viewBox="0 0 33 33" fill="none" xmlns="http://www.w3.org/2000/svg">
<g clip-path="url(#clip0)">
<path d="M32.336 19.947L32.336 19.9469C31.7801 19.1665 30.9536 18.6492 30.0087 18.4904C29.0761 18.3337 28.1386 18.5452 27.364 19.0852V1.41351H6.6585V19.559H0V31.5864H22.1531L31.4951 24.9499C33.1062 23.8024 33.4834 21.5581 32.336 19.947ZM30.3742 23.3742L21.5362 29.6527H8.61642V20.9078C9.60685 19.9027 10.6688 19.4685 12.1047 19.4685C13.0823 19.4685 14.1885 19.8087 14.8575 20.315L15.1164 20.5109H22.3998C23.178 20.5109 23.8111 21.1647 23.8111 21.9684C23.8111 22.7721 23.178 23.426 22.3998 23.426H18.2389V25.3597H22.3998C24.01 25.3597 25.3579 24.2001 25.6743 22.6614L28.4548 20.6812C28.8146 20.4249 29.2524 20.3241 29.6881 20.3974C30.1237 20.4706 30.5047 20.709 30.761 21.0688V21.0687C31.2898 21.8114 31.116 22.8459 30.3742 23.3742ZM6.68274 29.6527H1.93368V21.4927H6.68274V29.6527ZM18.4618 3.34719V10.782H15.5605V3.34719H18.4618ZM20.3955 12.7156V3.34719H25.4302V20.4612L25.4044 20.4796C24.8595 19.354 23.7176 18.5771 22.3997 18.5771H15.7452C14.75 17.929 13.3885 17.5349 12.1047 17.5349C10.7693 17.5349 9.61916 17.8357 8.59218 18.4643V3.34719H13.6268V12.7157H20.3955V12.7156Z" fill="#274FA6"/>
</g>
<defs>
<clipPath id="clip0">
<rect width="33" height="33" fill="white"/>
</clipPath>
</defs>
</svg>
