<svg width="33" height="33" viewBox="0 0 33 33" fill="none" xmlns="http://www.w3.org/2000/svg">
<path d="M29.3514 9.75711V0H3.64856V9.75711H0V33H33V9.75711H29.3514ZM9.08016 23.3256L1.93359 29.8431V17.1715L9.08016 23.3256ZM10.5561 24.5965L16.5 29.715L22.439 24.6008L29.5287 31.0664H3.46165L10.5561 24.5965ZM23.9149 23.3298L31.0664 17.1715V29.8519L23.9149 23.3298ZM31.0664 11.6907V14.6198L29.3514 16.0966V11.6907H31.0664ZM27.4178 1.93359V17.7617L16.5 27.1633L5.58216 17.7617V1.93359H27.4178ZM3.64856 11.6907V16.0966L1.93359 14.6198V11.6907H3.64856Z" fill="#274FA6"/>
<path d="M17.5879 19.9719H20.8982C22.8139 19.9719 24.3724 18.4134 24.3724 16.4977V12.2382H17.5812V14.1696H17.4267C15.7766 14.1696 14.4341 12.8271 14.4341 11.177V11.0121H16.3592V3.80298H12.1018C10.186 3.80298 8.6275 5.36152 8.6275 7.27726V11.0115C8.6275 15.9523 12.6472 19.9719 17.5879 19.9719ZM10.5611 7.27726C10.5611 6.4277 11.2523 5.73657 12.1018 5.73657H14.4256V9.07853H12.5005V11.177C12.5005 13.8933 14.7104 16.1032 17.4267 16.1032H19.5148V14.1718H22.4388V16.4977C22.4388 17.3472 21.7476 18.0384 20.8982 18.0384H17.5879C13.7134 18.0384 10.5612 14.8861 10.5612 11.0116V7.27726H10.5611Z" fill="#274FA6"/>
</svg>
