<svg width="18" height="18" viewBox="0 0 18 18" fill="none" xmlns="http://www.w3.org/2000/svg">
<g clip-path="url(#clip0)">
<path d="M0.0562115 8.00052C0.0846252 7.74753 0.37973 7.5572 0.634901 7.5572C1.45958 7.5572 2.19146 7.07317 2.4984 6.324C2.81172 5.55685 2.60956 4.66235 1.99514 4.09869C1.80162 3.92175 1.77803 3.62548 1.94026 3.41982C2.36248 2.88379 2.84216 2.39952 3.36604 1.97987C3.571 1.81546 3.87218 1.83835 4.05005 2.03521C4.58647 2.62931 5.5501 2.85008 6.29475 2.53941C7.06937 2.21347 7.55831 1.42827 7.51028 0.585454C7.49448 0.320552 7.68815 0.0903689 7.95212 0.0596207C8.62445 -0.0182228 9.3027 -0.0204803 9.97698 0.0543274C10.2376 0.0831295 10.4311 0.307864 10.4225 0.569418C10.3933 1.40398 10.8878 2.17533 11.6549 2.48959C12.3906 2.79014 13.3475 2.57101 13.8829 1.98212C14.0598 1.78814 14.3557 1.76432 14.562 1.92522C15.1013 2.34845 15.5918 2.83303 16.018 3.3647C16.184 3.57138 16.1595 3.87092 15.9643 4.04848C15.3378 4.61588 15.1358 5.51809 15.4611 6.29419C15.7717 7.03409 16.5399 7.51073 17.4193 7.51073C17.7047 7.50154 17.9078 7.69327 17.9393 7.9528C18.0184 8.62872 18.0192 9.31779 17.9431 9.99923C17.9147 10.2533 17.6109 10.442 17.3529 10.442C16.569 10.4221 15.8169 10.907 15.5009 11.6751C15.1865 12.4423 15.3889 13.3364 16.0043 13.9008C16.1968 14.0778 16.2214 14.3733 16.0589 14.5788C15.641 15.1115 15.1608 15.596 14.6354 16.0193C14.4291 16.1854 14.1291 16.1621 13.9503 15.965C13.4118 15.3695 12.4483 15.1491 11.7067 15.4604C10.9298 15.7855 10.4411 16.5706 10.4888 17.4137C10.5045 17.6786 10.3103 17.9095 10.0473 17.9395C9.70321 17.9798 9.35735 17.9997 9.0104 17.9997C8.68112 17.9997 8.35177 17.9817 8.02241 17.945C7.76148 17.9162 7.56827 17.6913 7.57707 17.4296C7.60719 16.5955 7.11164 15.824 6.34543 15.5104C5.60482 15.2079 4.65217 15.4293 4.11653 16.0173C3.93866 16.2109 3.64457 16.2344 3.43735 16.0741C2.89898 15.652 2.40942 15.1677 1.98144 14.6346C1.81524 14.4283 1.83883 14.1284 2.03507 13.9505C2.66148 13.3835 2.86457 12.4809 2.53927 11.7056C2.2335 10.9756 1.49383 10.4855 0.698265 10.4855L0.58695 10.4885C0.328665 10.5094 0.0913181 10.3105 0.0601044 10.047C-0.0193748 9.37049 -0.0202312 8.6822 0.0562115 8.00052ZM8.99958 14.1883C11.8652 14.1883 14.1882 11.8654 14.1882 8.9998C14.1882 6.13422 11.8652 3.81129 8.99958 3.81129C6.134 3.81129 3.811 6.13422 3.811 8.9998C3.811 9.97245 4.07917 10.8822 4.54491 11.6602L6.81685 9.38816C6.65236 9.00034 6.56549 8.57991 6.56557 8.14601C6.56557 7.29635 6.89648 6.49759 7.49736 5.89688C8.09807 5.29616 8.89683 4.96532 9.74633 4.96532C10.0298 4.96532 10.312 5.003 10.585 5.07734C10.7046 5.10995 10.8024 5.20851 10.8342 5.32831C10.8667 5.45083 10.8301 5.57639 10.7343 5.67222C10.7343 5.67222 9.61268 6.80251 9.23739 7.17771C9.19808 7.21702 9.19816 7.31083 9.20369 7.34461L9.20719 7.36929C9.24502 7.78186 9.31796 8.2771 9.37813 8.46743C9.38623 8.47544 9.39386 8.48222 9.40211 8.49047C9.41075 8.49911 9.41869 8.50744 9.42702 8.516C9.61984 8.57789 10.1227 8.65168 10.5418 8.6892L10.5417 8.68694L10.5606 8.69169C10.5639 8.69208 10.5702 8.69255 10.5784 8.69255C10.6237 8.69255 10.6903 8.67986 10.7509 8.61938C11.1415 8.22876 12.2192 7.1588 12.2192 7.1588C12.3159 7.06243 12.415 7.04219 12.4811 7.04219C12.6352 7.04219 12.7731 7.1535 12.8166 7.31316C13.1132 8.41099 12.7987 9.59188 11.9956 10.3951C11.3948 10.9959 10.5959 11.3267 9.74626 11.3267C9.31236 11.3267 8.89192 11.2399 8.50418 11.0754L6.20757 13.372C7.01387 13.888 7.97135 14.1883 8.99958 14.1883Z" fill="white"/>
</g>
<defs>
<clipPath id="clip0">
<rect width="18" height="18" fill="white" transform="matrix(-1 0 0 1 18 0)"/>
</clipPath>
</defs>
</svg>
