<svg width="25" height="25" viewBox="0 0 25 25" fill="none" xmlns="http://www.w3.org/2000/svg">
<path d="M24.2013 22.771L18.2513 16.5827C19.7811 14.7641 20.6194 12.4759 20.6194 10.0937C20.6194 4.52814 16.0912 0 10.5256 0C4.96002 0 0.431885 4.52814 0.431885 10.0937C0.431885 15.6593 4.96002 20.1875 10.5256 20.1875C12.615 20.1875 14.6061 19.5573 16.3085 18.361L22.3037 24.5963C22.5543 24.8565 22.8913 25 23.2525 25C23.5944 25 23.9187 24.8697 24.1649 24.6327C24.688 24.1293 24.7047 23.2946 24.2013 22.771ZM10.5256 2.63315C14.6395 2.63315 17.9862 5.97988 17.9862 10.0937C17.9862 14.2076 14.6395 17.5543 10.5256 17.5543C6.41177 17.5543 3.06503 14.2076 3.06503 10.0937C3.06503 5.97988 6.41177 2.63315 10.5256 2.63315Z" fill="#274FA6"/>
</svg>
