<svg width="33" height="33" viewBox="0 0 33 33" fill="none" xmlns="http://www.w3.org/2000/svg">
<path d="M17.6144 17.416C18.148 17.416 18.5806 16.9834 18.5806 16.4497C18.5806 15.9161 18.148 15.4835 17.6144 15.4835C17.0808 15.4835 16.6482 15.9161 16.6482 16.4497C16.6482 16.9834 17.0808 17.416 17.6144 17.416Z" fill="#274FA6"/>
<path d="M15.3366 19.6931C15.8703 19.6931 16.3029 19.2605 16.3029 18.7268C16.3029 18.1932 15.8703 17.7606 15.3366 17.7606C14.803 17.7606 14.3704 18.1932 14.3704 18.7268C14.3704 19.2605 14.803 19.6931 15.3366 19.6931Z" fill="#274FA6"/>
<path d="M13.0595 21.9702C13.5931 21.9702 14.0257 21.5376 14.0257 21.0039C14.0257 20.4703 13.5931 20.0377 13.0595 20.0377C12.5259 20.0377 12.0933 20.4703 12.0933 21.0039C12.0933 21.5376 12.5259 21.9702 13.0595 21.9702Z" fill="#274FA6"/>
<path d="M29.1328 25.4912H32.0332V20.335H18.2842L21.4857 17.1334L22.8522 18.4999L26.9524 14.3997L25.8137 13.261L31.9623 7.11247C32.6314 6.44319 33 5.55335 33 4.60692C33 3.66036 32.6314 2.77058 31.9622 2.10137C31.2929 1.43208 30.4031 1.06348 29.4566 1.06348C28.5101 1.06348 27.6202 1.43208 26.951 2.10137L20.8024 8.25L19.6637 7.11131L15.5635 11.2114L16.93 12.5779L9.3595 20.1483V23.3367L7.21875 25.4775V23.5576H8.50781V20.335C8.50781 18.2026 6.77299 16.4678 4.64062 16.4678C2.50826 16.4678 0.773438 18.2026 0.773438 20.335V23.5576H2.0625V26.7803H0V31.9365H33V26.7803H29.1328V25.4912ZM19.7871 22.2686H30.0996V23.5576H29.1328V22.9131H27.1992V23.5576H25.9102V22.9131H23.9766V23.5576H22.6875V22.9131H20.7539V23.5576H19.7871V22.2686ZM27.1992 25.4912V26.7803H25.9102V25.4912H27.1992ZM23.9766 25.4912V26.7803H22.6875V25.4912H23.9766ZM28.3183 3.46854C28.6223 3.16445 29.0266 2.99707 29.4566 2.99707C29.8865 2.99707 30.2908 3.16452 30.5949 3.46854C30.899 3.77263 31.0664 4.17688 31.0664 4.60692C31.0664 5.03688 30.899 5.44113 30.5949 5.74522L24.4464 11.8938L22.1697 9.61718L28.3183 3.46854ZM19.6637 9.84573L24.2177 14.3997L22.852 15.7654L18.298 11.2114L19.6637 9.84573ZM18.2972 13.945L20.1184 15.7662L13.1143 22.7704L11.2932 22.7703V20.9492H11.2931L18.2972 13.945ZM10.7267 24.704H13.9152L17.8535 20.7656V25.4912H20.7539V26.7803H8.65045L10.7267 24.704ZM7.79883 26.7803H3.99609V23.5576H5.28516V25.8135H6.88276L6.85736 25.8389L7.79883 26.7803ZM2.70703 20.335C2.70703 19.2688 3.57444 18.4014 4.64062 18.4014C5.70681 18.4014 6.57422 19.2688 6.57422 20.335V21.624H2.70703V20.335ZM31.0664 28.7139V30.0029H1.93359V28.7139H31.0664Z" fill="#274FA6"/>
</svg>
