<svg width="19" height="19" viewBox="0 0 19 19" fill="none" xmlns="http://www.w3.org/2000/svg">
<path d="M9.49997 10.7156C10.8109 10.7156 13.8929 9.13792 13.8929 5.35772C13.893 2.39873 13.4936 0 9.49997 0C5.50644 0 5.107 2.39873 5.107 5.35778C5.107 9.13792 8.18908 10.7156 9.49997 10.7156ZM5.76356 4.4636C6.07214 3.86681 6.73963 3.17716 8.17511 3.20776C8.17511 3.20776 9.03071 5.28312 13.2312 4.35112C13.2482 4.68264 13.2535 5.02089 13.2535 5.35778C13.2535 7.20552 12.4376 8.35041 11.7531 8.98545C10.8907 9.78568 9.93315 10.0761 9.49997 10.0761C9.06679 10.0761 8.10926 9.78568 7.24681 8.98545C6.56232 8.35041 5.74645 7.20552 5.74645 5.35778C5.7465 5.05887 5.75085 4.75893 5.76356 4.4636Z" fill="white"/>
<path d="M17.6556 16.2103C17.4314 14.8158 16.9696 13.0194 16.0436 12.3811C15.4112 11.9451 13.2048 10.7663 12.2626 10.2629L12.2463 10.2542C12.1387 10.1966 12.0072 10.2082 11.9111 10.2836C11.4175 10.6711 10.8769 10.9322 10.3042 11.0597C10.203 11.0823 10.12 11.1542 10.0832 11.2511L9.49997 12.7883L8.91677 11.2511C8.87998 11.1542 8.79695 11.0823 8.69578 11.0597C8.12306 10.9322 7.58241 10.6711 7.08886 10.2836C6.99279 10.2082 6.86129 10.1966 6.7536 10.2542C5.82263 10.7516 3.58926 11.9545 2.95916 12.3792C1.89311 13.0973 1.42695 15.6966 1.34436 16.2103C1.33616 16.2613 1.34094 16.3134 1.35811 16.362C1.39625 16.4697 2.37465 19 9.49997 19C16.6253 19 17.6037 16.4697 17.6418 16.362C17.6591 16.3134 17.6638 16.2612 17.6556 16.2103ZM14.3722 15.3594L12.9776 15.7941L11.5829 15.3594V14.609H14.3722V15.3594Z" fill="white"/>
</svg>
