<svg width="33" height="33" viewBox="0 0 33 33" fill="none" xmlns="http://www.w3.org/2000/svg">
<g clip-path="url(#clip0)">
<path d="M15.5332 33C18.7317 33 21.334 30.3977 21.334 27.1992V22.3008C21.334 20.7015 22.6351 19.4004 24.2344 19.4004C25.8336 19.4004 27.1348 20.7015 27.1348 22.3008V27.3654C26.0094 27.7647 25.2012 28.8392 25.2012 30.0996C25.2012 31.6989 26.5023 33 28.1016 33C29.7008 33 31.002 31.6989 31.002 30.0996C31.002 28.8392 30.1938 27.7647 29.0684 27.3654V22.3008C29.0684 19.6353 26.8999 17.4668 24.2344 17.4668C21.5689 17.4668 19.4004 19.6353 19.4004 22.3008V27.1992C19.4004 29.3317 17.6657 31.0664 15.5332 31.0664C13.4007 31.0664 11.666 29.3317 11.666 27.1992V23.2676H13.5996V19.8835L17.0803 17.2729L15.9202 15.7263L19.4004 13.1162V1.93359H15.5332V0H13.5996V5.80078H15.5332V3.86719H17.4668V12.1494L14.7595 14.1799L13.5994 12.6333L10.6992 14.8081L7.79908 12.6333L6.63892 14.1799L3.93164 12.1494V3.86719H5.86523V5.80078H7.79883V0H5.86523V1.93359H1.99805V13.1162L5.47826 15.7263L4.31811 17.2729L7.79883 19.8835V23.2676H9.73242V27.1992C9.73242 30.3977 12.3347 33 15.5332 33ZM28.1016 31.0664C27.5686 31.0664 27.1348 30.6326 27.1348 30.0996C27.1348 29.5666 27.5686 29.1328 28.1016 29.1328C28.6346 29.1328 29.0684 29.5666 29.0684 30.0996C29.0684 30.6326 28.6346 31.0664 28.1016 31.0664ZM7.02539 16.8865L8.18555 15.3401L10.6992 17.2251L13.2129 15.3401L14.373 16.8865L11.666 18.9167V21.334H9.73242V18.9167L7.02539 16.8865Z" fill="#274FA6"/>
</g>
<defs>
<clipPath id="clip0">
<rect width="33" height="33" fill="white"/>
</clipPath>
</defs>
</svg>
