<svg width="14" height="14" viewBox="0 0 14 14" fill="none" xmlns="http://www.w3.org/2000/svg">
<g clip-path="url(#clip0)">
<path d="M13.8768 2.78149L9.63086 7.00006L13.8768 11.2186C13.9535 11.0582 14.0001 10.8808 14.0001 10.6915V3.30865C14.0001 3.11924 13.9535 2.94192 13.8768 2.78149Z" fill="#A0C800"/>
<path d="M12.7693 2.07812H1.23029C1.04087 2.07812 0.863551 2.12469 0.703125 2.20145L6.12985 7.60083C6.60968 8.08066 7.38996 8.08066 7.86978 7.60083L13.2965 2.20145C13.1361 2.12469 12.9588 2.07812 12.7693 2.07812Z" fill="#A0C800"/>
<path d="M0.12332 2.78149C0.0465664 2.94192 0 3.11924 0 3.30865V10.6915C0 10.8809 0.0465664 11.0582 0.12332 11.2186L4.36923 7.00006L0.12332 2.78149Z" fill="#A0C800"/>
<path d="M9.0506 7.58008L8.44977 8.1809C7.65027 8.98041 6.34934 8.98041 5.54983 8.1809L4.94903 7.58008L0.703125 11.7986C0.863551 11.8754 1.04087 11.922 1.23029 11.922H12.7693C12.9588 11.922 13.1361 11.8754 13.2965 11.7986L9.0506 7.58008Z" fill="#A0C800"/>
</g>
<defs>
<clipPath id="clip0">
<rect width="14" height="14" fill="white"/>
</clipPath>
</defs>
</svg>
