<svg width="12" height="12" viewBox="0 0 12 12" fill="none" xmlns="http://www.w3.org/2000/svg">
<path d="M11.3333 8.34C10.5067 8.34 9.7 8.20667 8.95333 7.96C8.72 7.88 8.45333 7.94 8.27333 8.12L6.80667 9.58667C4.92 8.62 3.37333 7.08 2.41333 5.19333L3.88 3.72667C4.06667 3.54 4.12 3.28 4.04667 3.04667C3.8 2.3 3.66667 1.5 3.66667 0.666667C3.66667 0.3 3.36667 0 3 0H0.666667C0.3 0 0 0.3 0 0.666667C0 6.92667 5.07333 12 11.3333 12C11.7 12 12 11.7 12 11.3333V9.00667C12 8.64 11.7 8.34 11.3333 8.34Z" fill="#A0C800"/>
</svg>
