<svg width="22" height="22" viewBox="0 0 22 22" fill="none" xmlns="http://www.w3.org/2000/svg">
<path d="M20.8779 19.6996L15.0681 13.8897C16.17 12.5293 16.8334 10.7998 16.8334 8.9167C16.8334 4.55145 13.2819 1 8.91666 1C4.55142 1 1 4.55145 1 8.9167C1 13.2819 4.55146 16.8334 8.9167 16.8334C10.7998 16.8334 12.5293 16.17 13.8897 15.0681L19.6996 20.878C19.8624 21.0407 20.1261 21.0407 20.2889 20.878L20.878 20.2888C21.0407 20.1261 21.0407 19.8623 20.8779 19.6996ZM8.9167 15.1667C5.47025 15.1667 2.66668 12.3632 2.66668 8.9167C2.66668 5.47025 5.47025 2.66668 8.9167 2.66668C12.3632 2.66668 15.1667 5.47025 15.1667 8.9167C15.1667 12.3632 12.3632 15.1667 8.9167 15.1667Z" fill="#373737" stroke="#373737" stroke-width="0.2"/>
</svg>
