<svg width="230" height="101" viewBox="0 0 230 101" fill="none" xmlns="http://www.w3.org/2000/svg">
<path d="M107.641 12.7849V52.3225H100.314V12.7849H107.641Z" fill="#A0C800"/>
<path d="M131.447 45.9633C139.649 45.9633 143.75 41.134 143.75 31.4754C143.75 23.2545 139.649 19.1441 131.447 19.1441H123.29V45.9633H131.447ZM115.964 52.3225V12.7849H131.447C144.534 12.7849 151.077 19.0151 151.077 31.4754C151.077 45.3734 144.534 52.3225 131.447 52.3225H115.964Z" fill="#A0C800"/>
<path d="M184.394 12.7849V19.0888H164.598V29.0423H183.454V35.595H164.515V45.9633H184.781V52.3225H157.326V12.7849H184.394Z" fill="#A0C800"/>
<path d="M195.619 52.3225H188.099L204.882 12.7849H212.761L229.904 52.3225H222.024L217.517 41.5395H204.384L206.9 35.1803H214.863L208.642 20.333L195.619 52.3225Z" fill="#A0C800"/>
<path d="M100.432 88.0941V63.3172H110.481C115.54 63.3172 118.07 65.5292 118.07 69.9533C118.07 74.77 114.61 77.7098 107.691 78.7724L107.033 76.0695C112.115 75.3187 114.657 73.3262 114.657 70.0919C114.657 67.3427 113.167 65.9682 110.186 65.9682H103.637V88.0941H100.432Z" fill="#333333"/>
<path d="M123.147 88.0941H119.82L130.337 63.3172H133.889L144.458 88.0941H140.906L137.701 80.2972H129.505L130.389 77.6982H136.627L132 66.4707L123.147 88.0941Z" fill="#333333"/>
<path d="M166.549 87.2278C164.413 87.9208 162.102 88.2674 159.619 88.2674C150.956 88.2674 146.624 83.9646 146.624 75.3591C146.624 67.2157 150.956 63.144 159.619 63.144C162.102 63.144 164.413 63.4905 166.549 64.1836V66.9558C164.413 66.1472 162.218 65.7429 159.965 65.7429C153.208 65.7429 149.829 68.9483 149.829 75.3591C149.829 82.232 153.208 85.6684 159.965 85.6684C162.218 85.6684 164.413 85.2641 166.549 84.4555V87.2278Z" fill="#333333"/>
<path d="M175.057 63.3172V88.0941H171.851V63.3172H175.057ZM192.487 63.3172L181.329 75.0126L192.73 88.0941H188.277L178.176 76.1735V74.2329L188.433 63.3172H192.487Z" fill="#333333"/>
<path fill-rule="evenodd" clip-rule="evenodd" d="M49.3361 46.2243C49.6648 44.6598 49.9243 43.1444 50.1148 41.6781C50.7925 41.4135 51.5782 41.1372 52.4863 40.847C57.9714 39.4884 62.8305 37.421 67.0635 34.6447C71.2369 31.8684 74.7545 28.8853 77.6163 25.6955C80.4781 22.5057 82.6244 19.3455 84.0553 16.2148C85.5458 13.084 86.2911 10.4554 86.2911 8.32889C86.2911 6.734 86.0228 5.40492 85.4862 4.34166C85.0092 3.2784 84.3832 2.42187 83.6081 1.7721C82.8331 1.12233 81.9984 0.679302 81.1041 0.443022C80.2694 0.147671 79.5242 0 78.8683 0C75.7085 0 72.3697 1.06326 68.8521 3.18979C65.3345 5.31631 61.8765 8.15169 58.4782 11.6959C55.0798 15.2401 51.92 19.3159 48.9986 23.9234C46.0175 28.59 43.5135 33.4337 41.4864 38.4547C39.8767 38.6319 38.3265 38.7205 36.836 38.7205C36.5379 38.7205 36.3591 38.9568 36.2994 39.4293C36.2398 39.9019 36.3293 40.404 36.5677 40.9356C36.8062 41.4673 37.2235 41.8808 37.8198 42.1761C38.2123 42.4354 38.7007 42.5208 39.2847 42.4323C38.6131 44.9203 37.8596 47.4906 37.0242 50.1432C35.9023 53.6464 34.7213 56.9122 33.4812 59.9405C28.0486 61.3061 23.2361 63.3844 19.0435 66.1751C14.9101 68.9658 11.4261 71.9644 8.59174 75.1708C5.75735 78.3772 3.63156 81.5539 2.21437 84.7009C0.738122 87.8479 0 90.4902 0 92.6278C0 94.231 0.265724 95.567 0.797171 96.6358C1.26957 97.7046 1.88959 98.5655 2.65724 99.2187C3.42489 99.8718 4.25158 100.317 5.13733 100.555C5.96403 100.852 6.70215 101 7.3517 101C10.4813 101 13.7881 99.9312 17.2721 97.7936C20.756 95.656 24.1809 92.8059 27.5467 89.2433C30.9125 85.6806 34.0422 81.5836 36.9356 76.9521C39.5192 72.8473 41.7411 68.6061 43.6013 64.2286C43.7369 64.2076 43.8741 64.186 44.0129 64.1639C46.201 63.8541 48.6792 63.4401 51.4475 62.9219C54.2158 62.4037 57.0511 61.8276 59.9534 61.1938C62.9182 60.5645 65.8396 59.8849 68.7176 59.1551C71.6245 58.4588 74.2962 57.7609 76.7326 57.0614C79.2315 56.3664 81.3679 55.6919 83.142 55.0379C84.9785 54.3884 86.2775 53.7935 87.039 53.2532C87.901 52.6262 88.4792 51.8058 88.7734 50.7918C89.0965 49.8114 89.2301 48.8483 89.1741 47.9028C89.1806 46.9618 89.0385 46.1198 88.748 45.3766C88.4863 44.667 88.2162 44.2862 87.9376 44.2344C87.7503 44.2206 87.5897 44.2715 87.4556 44.3872C87.384 44.5075 87.2789 44.6567 87.1403 44.8347C87.0306 45.0464 86.8706 45.3013 86.6604 45.5997C86.4837 45.8691 86.1965 46.1461 85.799 46.4307C84.937 47.0577 83.6814 47.7029 82.0322 48.3661C80.4118 49.0629 78.5707 49.7748 76.5089 50.5019C74.447 51.2289 72.229 51.9445 69.855 52.6486C67.481 53.3527 65.1261 54.0112 62.7901 54.624C60.4542 55.2367 58.1853 55.7917 55.9835 56.2887C53.8105 56.8194 51.8797 57.2579 50.191 57.6045C48.5312 57.9845 47.1783 58.2459 46.1322 58.3887C46.0819 58.3974 46.0081 58.4101 45.9133 58.4265C47.316 54.4761 48.4569 50.4087 49.3361 46.2243ZM55.4376 34.3788C57.7031 33.67 59.9091 32.6658 62.0554 31.3663C64.1421 30.1258 66.1096 28.6786 67.9578 27.0246C69.7464 25.4297 71.386 23.7462 72.8765 21.9741C74.367 20.202 75.6488 18.489 76.722 16.835C77.7952 15.181 78.6299 13.6452 79.2261 12.2275C79.7626 10.8098 80.0309 9.65797 80.0309 8.77192C80.0309 8.4175 79.9415 8.00401 79.7626 7.53145C79.5838 6.99981 79.0174 6.734 78.0635 6.734C76.6922 6.734 75.1123 7.44284 73.3236 8.86052C71.4754 10.2191 69.5676 12.1389 67.6001 14.6199C65.573 17.0418 63.5161 19.9362 61.4294 23.3032C59.3427 26.6702 57.3454 30.3621 55.4376 34.3788ZM30.5583 66.4423C28.3144 67.1548 26.1295 68.1642 24.0037 69.4705C21.937 70.7175 19.9883 72.1722 18.1578 73.8348C16.3863 75.438 14.7624 77.1302 13.2862 78.9116C11.81 80.6929 10.5404 82.4149 9.47749 84.0774C8.41459 85.74 7.58789 87.2838 6.9974 88.7089C6.46595 90.1339 6.20022 91.2918 6.20022 92.1825C6.20022 92.5387 6.2888 92.9544 6.46595 93.4294C6.6431 93.9638 7.20407 94.231 8.14887 94.231C9.50701 94.231 11.0718 93.5184 12.8433 92.0934C14.6739 90.7277 16.5635 88.7979 18.5121 86.3041C20.5198 83.8696 22.557 80.9601 24.6238 77.5756C26.6905 74.1911 28.6687 70.48 30.5583 66.4423Z" fill="#373737"/>
</svg>
