<svg width="270" height="119" viewBox="0 0 270 119" fill="none" xmlns="http://www.w3.org/2000/svg">
<path d="M126.526 15.0144V61.4475H117.932V15.0144H126.526Z" fill="#A0C800"/>
<path d="M154.448 53.9793C164.069 53.9793 168.879 48.3077 168.879 36.9646C168.879 27.31 164.069 22.4827 154.448 22.4827H144.881V53.9793H154.448ZM136.287 61.4475V15.0144H154.448C169.798 15.0144 177.473 22.3311 177.473 36.9646C177.473 53.2866 169.798 61.4475 154.448 61.4475H136.287Z" fill="#A0C800"/>
<path d="M216.552 15.0144V22.4177H193.332V34.1072H215.449V41.8027H193.234V53.9793H217.006V61.4475H184.803V15.0144H216.552Z" fill="#A0C800"/>
<path d="M229.718 61.4475H220.897L240.582 15.0144H249.825L269.932 61.4475H260.689L255.403 48.7839H239.999L242.95 41.3157H252.29L244.993 23.8789L229.718 61.4475Z" fill="#A0C800"/>
<path d="M118.068 103.458V74.3597H129.856C135.79 74.3597 138.757 76.9575 138.757 82.1531C138.757 87.81 134.699 91.2624 126.584 92.5104L125.811 89.3361C131.773 88.4543 134.753 86.1143 134.753 82.3159C134.753 79.0873 133.006 77.473 129.51 77.473H121.828V103.458H118.068Z" fill="white"/>
<path d="M144.712 103.458H140.81L153.146 74.3597H157.312L169.709 103.458H165.543L161.783 94.3011H152.17L153.207 91.2488H160.523L155.097 78.0631L144.712 103.458Z" fill="white"/>
<path d="M195.62 102.44C193.114 103.254 190.404 103.661 187.491 103.661C177.33 103.661 172.249 98.6081 172.249 88.5018C172.249 78.9381 177.33 74.1562 187.491 74.1562C190.404 74.1562 193.114 74.5632 195.62 75.3771V78.6329C193.114 77.6833 190.54 77.2085 187.898 77.2085C179.972 77.2085 176.009 80.9729 176.009 88.5018C176.009 96.5733 179.972 100.609 187.898 100.609C190.54 100.609 193.114 100.134 195.62 99.1847V102.44Z" fill="white"/>
<path d="M205.599 74.3597V103.458H201.839V74.3597H205.599ZM226.044 74.3597L212.956 88.0948L226.328 103.458H221.105L209.257 89.4582V87.1792L221.288 74.3597H226.044Z" fill="white"/>
<path fill-rule="evenodd" clip-rule="evenodd" d="M58.0837 54.4622C58.4707 52.619 58.7763 50.8335 59.0005 49.1059C59.7984 48.7941 60.7234 48.4686 61.7926 48.1267C68.2502 46.5259 73.9708 44.09 78.9544 40.819C83.8678 37.5479 88.0091 34.0332 91.3783 30.2749C94.7475 26.5166 97.2744 22.7932 98.959 19.1045C100.714 15.4159 101.591 12.3188 101.591 9.81325C101.591 7.93412 101.275 6.36817 100.644 5.11542C100.082 3.86266 99.345 2.85349 98.4325 2.08792C97.52 1.32235 96.5374 0.800366 95.4845 0.521976C94.5018 0.173989 93.6244 0 92.8523 0C89.1321 0 85.2014 1.25275 81.0601 3.75827C76.9188 6.26378 72.8477 9.60447 68.8468 13.7803C64.8459 17.9562 61.1258 22.7584 57.6864 28.187C54.1768 33.6852 51.2288 39.3922 48.8423 45.308C46.9471 45.5168 45.1221 45.6212 43.3673 45.6212C43.0164 45.6212 42.8058 45.8996 42.7356 46.4564C42.6654 47.0131 42.7707 47.6047 43.0515 48.2311C43.3322 48.8575 43.8236 49.3447 44.5255 49.6926C44.9877 49.9982 45.5626 50.0988 46.2502 49.9945C45.4595 52.9259 44.5723 55.9543 43.5889 59.0796C42.268 63.2072 40.8776 67.055 39.4177 70.6229C33.0219 72.232 27.356 74.6806 22.4201 77.9687C17.5537 81.2568 13.4521 84.7897 10.1151 88.5675C6.77817 92.3454 4.27546 96.0882 2.60699 99.7961C0.868997 103.504 0 106.617 0 109.136C0 111.025 0.312838 112.599 0.938516 113.858C1.49467 115.117 2.22463 116.132 3.12839 116.901C4.03215 117.671 5.00542 118.195 6.04822 118.475C7.02149 118.825 7.89049 119 8.65521 119C12.3398 119 16.2329 117.741 20.3345 115.222C24.4362 112.704 28.4683 109.346 32.431 105.148C36.3936 100.95 40.0781 96.1232 43.4846 90.6664C46.5263 85.83 49.1422 80.833 51.3321 75.6752C51.4918 75.6505 51.6533 75.6251 51.8167 75.5991C54.3928 75.2341 57.3104 74.7463 60.5695 74.1357C63.8287 73.5251 67.1667 72.8464 70.5836 72.0996C74.0741 71.3581 77.5134 70.5575 80.9017 69.6976C84.3241 68.8772 87.4695 68.0549 90.3379 67.2307C93.2798 66.4119 95.7951 65.6172 97.8837 64.8466C100.046 64.0813 101.575 63.3804 102.472 62.7439C103.487 62.0052 104.167 61.0385 104.514 59.8438C104.894 58.6886 105.051 57.554 104.985 56.4399C104.993 55.3312 104.826 54.3391 104.484 53.4635C104.176 52.6274 103.858 52.1788 103.53 52.1177C103.309 52.1015 103.12 52.1615 102.962 52.2978C102.878 52.4395 102.754 52.6153 102.591 52.8251C102.462 53.0744 102.273 53.3748 102.026 53.7264C101.818 54.0438 101.48 54.3702 101.012 54.7055C99.997 55.4442 98.5187 56.2044 96.5771 56.9858C94.6695 57.8068 92.5019 58.6456 90.0745 59.5022C87.647 60.3588 85.0358 61.202 82.2409 62.0316C79.4459 62.8611 76.6734 63.6369 73.9233 64.3589C71.1732 65.0809 68.5021 65.7347 65.9098 66.3204C63.3515 66.9456 61.0783 67.4623 59.0902 67.8706C57.1361 68.3184 55.5433 68.6264 54.3118 68.7946C54.2526 68.8048 54.1657 68.8199 54.0541 68.8391C55.7055 64.1847 57.0487 59.3924 58.0837 54.4622ZM65.2671 40.5058C67.9343 39.6706 70.5314 38.4874 73.0583 36.9563C75.515 35.4947 77.8313 33.7896 80.0073 31.8409C82.113 29.9617 84.0433 27.9782 85.7981 25.8903C87.5528 23.8024 89.062 21.784 90.3254 19.8353C91.5889 17.8866 92.5715 16.077 93.2734 14.4067C93.9052 12.7364 94.221 11.3792 94.221 10.3352C94.221 9.91765 94.1157 9.43046 93.9052 8.87368C93.6946 8.24731 93.0278 7.93412 91.9047 7.93412C90.2903 7.93412 88.4302 8.76929 86.3245 10.4396C84.1486 12.0404 81.9024 14.3023 79.5861 17.2254C77.1996 20.0789 74.778 23.4892 72.3213 27.4562C69.8646 31.4233 67.5132 35.7731 65.2671 40.5058ZM35.9765 78.2835C33.3347 79.123 30.7625 80.3123 28.2598 81.8514C25.8266 83.3206 23.5324 85.0346 21.3773 86.9935C19.2917 88.8824 17.3799 90.8762 15.6419 92.975C13.9039 95.0738 12.4093 97.1027 11.1579 99.0615C9.90656 101.02 8.93329 102.839 8.23809 104.518C7.61241 106.197 7.29957 107.562 7.29957 108.611C7.29957 109.031 7.40385 109.52 7.61241 110.08C7.82097 110.71 8.48141 111.025 9.59373 111.025C11.1927 111.025 13.035 110.185 15.1205 108.506C17.2757 106.897 19.5003 104.623 21.7944 101.685C24.1581 98.8167 26.5565 95.3886 28.9897 91.4009C31.4229 87.4132 33.7518 83.0407 35.9765 78.2835Z" fill="white"/>
</svg>
