<svg width="71" height="87" viewBox="0 0 71 87" fill="none" xmlns="http://www.w3.org/2000/svg">
<path d="M4.31671 8.67889H8.45703L9.60712 3.11281C9.86053 1.88844 10.9534 1 12.2055 1H59.0116C60.2643 1 61.3572 1.88844 61.61 3.11281L62.7607 8.67889H66.901C68.7295 8.67889 70.2168 10.1633 70.2168 11.9882V17.4596C70.2168 19.2845 68.7295 20.7695 66.901 20.7695H65.274L64.352 27.2357C64.6314 27.3965 64.8861 27.6021 65.1025 27.8505C65.6561 28.488 65.9056 29.3323 65.7867 30.1682L59.6314 73.3304C59.4618 74.5211 58.5658 75.4653 57.4339 75.7441L56.558 81.8893C56.2234 84.233 54.1831 86.0002 51.8115 86.0002H19.4056C17.034 86.0002 14.9937 84.233 14.6591 81.8893L13.7832 75.7441C12.6513 75.4653 11.7553 74.5211 11.5857 73.3304L5.43041 30.1682C5.31151 29.3323 5.56102 28.488 6.11462 27.8505C6.33099 27.6021 6.5857 27.3965 6.86575 27.2357L5.94308 20.7695H4.31606C2.48762 20.7695 1.0003 19.2845 1.0003 17.4596V11.9882C1.00095 10.1633 2.48827 8.67889 4.31671 8.67889ZM7.90343 29.8167L14.0587 72.9789C14.0879 73.1839 14.266 73.3376 14.4726 73.3376H26.4238C27.1132 73.3376 27.672 73.8953 27.672 74.584C27.672 75.2727 27.1132 75.8304 26.4238 75.8304H16.3179L17.1321 81.5385C17.2926 82.661 18.2698 83.508 19.4063 83.508H51.8115C52.9479 83.508 53.9252 82.661 54.0857 81.5385L54.8992 75.8304H32.2346C31.5446 75.8304 30.9858 75.2727 30.9858 74.584C30.9858 73.8953 31.5446 73.3376 32.2346 73.3376H56.7452C56.9518 73.3376 57.1298 73.1839 57.1591 72.9789L63.3143 29.8167C63.3377 29.6527 63.263 29.5379 63.2162 29.4841C63.1714 29.4328 63.0739 29.3511 62.9219 29.3433C62.905 29.3427 62.8887 29.3414 62.8712 29.3401H8.34657C8.32968 29.3414 8.31279 29.3427 8.29589 29.3433C8.14384 29.3511 8.04638 29.4328 8.00154 29.4841C7.95476 29.5379 7.88004 29.6527 7.90343 29.8167ZM62.751 20.7695H8.46613L9.33292 26.8479H61.8842L62.751 20.7695ZM3.49801 17.4596C3.49801 17.9103 3.86513 18.2767 4.31671 18.2767H66.901C67.352 18.2767 67.7197 17.9103 67.7197 17.4596V11.9882C67.7197 11.5375 67.352 11.1711 66.901 11.1711H55.727C55.0376 11.1711 54.4788 10.6134 54.4788 9.92465C54.4788 9.2366 55.0376 8.67889 55.727 8.67889H60.2104L59.1642 3.6167C59.1493 3.54471 59.085 3.49218 59.0116 3.49218H12.2055C12.1321 3.49218 12.0678 3.54471 12.0528 3.6167L11.0067 8.67889H49.9161C50.6062 8.67889 51.165 9.2366 51.165 9.92465C51.165 10.6134 50.6062 11.1711 49.9161 11.1711H4.31671C3.86513 11.1711 3.49801 11.5375 3.49801 11.9882V17.4596Z" fill="white" stroke="white" stroke-width="1.5"/>
</svg>
