<svg width="85" height="85" viewBox="0 0 85 85" fill="none" xmlns="http://www.w3.org/2000/svg">
<mask id="path-1-inside-1" fill="white">
<path d="M82.5356 10.6606C82.0376 10.3571 81.4196 10.3253 80.893 10.5769L67.3919 16.9367C62.6319 19.1786 59.4374 23.7985 59.0204 29.0435L58.6722 33.3567L51.6768 44.9759V40.0148C51.6768 39.9986 51.6684 39.985 51.6684 39.9675C51.6658 39.797 51.6386 39.627 51.586 39.4643L48.3312 29.6998L54.977 16.4127C55.2689 15.8213 55.2014 15.1151 54.8026 14.5892L44.354 0.65747C43.721 -0.111649 42.5842 -0.221894 41.8145 0.41104C41.7243 0.484969 41.642 0.567977 41.568 0.65747L31.1188 14.5892C30.7232 15.117 30.659 15.8226 30.9534 16.4127L37.5992 29.6998L34.3444 39.4643C34.2919 39.627 34.2646 39.797 34.262 39.9675V40.0148V46.9648L23.4127 30.4975C23.399 30.4787 23.3783 30.4677 23.366 30.4508C23.2609 30.3055 23.1351 30.1778 22.9918 30.0708C22.9587 30.0468 22.9289 30.0189 22.8939 29.9962C22.8595 29.9735 22.8537 29.9612 22.8316 29.9489L16.4471 26.257L13.7967 22.2343L9.9654 16.4179C9.52571 15.7513 8.6885 15.4692 7.93495 15.7338L1.15879 18.1105C0.252833 18.4328 -0.221219 19.4283 0.101085 20.3342C0.147776 20.4672 0.210681 20.593 0.288501 20.7103L5.07896 27.9833L7.72094 32.0039L8.59123 39.3287C8.59577 39.3521 8.6016 39.3754 8.60874 39.3981C8.61652 39.4351 8.6256 39.4721 8.63662 39.5077C8.67618 39.6919 8.74557 39.8689 8.8422 40.0304C8.85452 40.0479 8.85452 40.0706 8.86684 40.0881C8.87916 40.105 34.764 79.3385 34.8891 79.4449C36.1628 82.7905 39.3709 85.0012 42.9506 84.9999C43.6614 84.9992 44.3695 84.913 45.0595 84.7424C47.3033 84.1919 49.2339 82.7678 50.4213 80.7853L73.5825 42.3624L77.2393 40.0479C79.1608 38.8261 80.773 37.177 81.952 35.2289C83.4481 32.751 84.1757 29.884 84.0414 26.9923L83.3625 12.0821C83.3417 11.4997 83.0317 10.966 82.5356 10.6606ZM69.9223 41.6932L67.2278 46.1672L58.2785 40.7691L60.9763 36.2951L69.9223 41.6932ZM37.7451 68.0819V41.7561H48.1937V50.7527L37.7451 68.0819ZM40.7425 31.3075H45.197L47.518 38.273H38.4209L40.7425 31.3075ZM42.9694 19.117C42.0077 19.117 41.2282 18.3375 41.2282 17.3758C41.2282 16.414 42.0077 15.6345 42.9694 15.6345C43.9312 15.6345 44.7113 16.414 44.7113 17.3758C44.7113 18.3375 43.9312 19.117 42.9694 19.117ZM42.9694 4.60553L51.3792 15.8174L45.376 27.8244H44.7107V22.2797C47.4311 21.318 48.8572 18.3329 47.8948 15.6125C46.9331 12.892 43.9487 11.4666 41.2282 12.4284C38.5078 13.3901 37.0824 16.3751 38.0441 19.0956C38.57 20.5832 39.7406 21.7538 41.2282 22.2797V27.8244H40.5629L34.5597 15.8174L42.9694 4.60553ZM18.6468 31.5526L18.1345 31.8905L11.7209 36.1154L11.1307 31.1804C11.0983 30.9119 11.0043 30.6551 10.8551 30.4294L8.94012 27.5215L11.848 25.6059L13.7637 28.5137C13.9128 28.7394 14.1119 28.9268 14.3454 29.0624L18.6468 31.5526ZM7.8059 19.4652L9.93038 22.6922L7.02251 24.6078L4.41036 20.6552L7.8059 19.4652ZM17.1002 36.7393L21.4542 33.8638L34.262 53.2935V72.2874L12.7377 39.616L17.1002 36.7393ZM47.4434 78.976C45.9668 81.4552 42.7606 82.2684 40.2814 80.7918C37.8022 79.3158 36.9896 76.109 38.4656 73.6298C38.4766 73.6123 38.487 73.5954 38.4974 73.5779L51.647 51.7695H51.6768V51.7228L56.4796 43.7554L60.9536 46.4583L65.4341 49.1502L47.4434 78.976ZM78.9773 33.4235C78.0791 34.9073 76.8496 36.1641 75.3853 37.094L72.2919 39.0531L67.2421 36.013L62.1916 32.9722L62.4789 29.3153C62.7979 25.3166 65.233 21.7953 68.8614 20.0852L80.0065 14.8382L80.2283 19.6916C80.0538 19.6727 79.8774 19.6799 79.7056 19.7142L75.4877 20.7596C71.5624 21.7181 68.5235 24.8244 67.6513 28.7699C67.4412 29.7083 68.0313 30.6389 68.9697 30.849C69.0948 30.8782 69.2226 30.8931 69.351 30.8931C70.1655 30.8918 70.8711 30.3263 71.0488 29.5312C71.6376 26.8782 73.681 24.7894 76.3204 24.1428L80.3884 23.1344L80.5713 27.1402C80.6731 29.3457 80.1187 31.5325 78.9773 33.4235Z"/>
</mask>
<path d="M82.5356 10.6606C82.0376 10.3571 81.4196 10.3253 80.893 10.5769L67.3919 16.9367C62.6319 19.1786 59.4374 23.7985 59.0204 29.0435L58.6722 33.3567L51.6768 44.9759V40.0148C51.6768 39.9986 51.6684 39.985 51.6684 39.9675C51.6658 39.797 51.6386 39.627 51.586 39.4643L48.3312 29.6998L54.977 16.4127C55.2689 15.8213 55.2014 15.1151 54.8026 14.5892L44.354 0.65747C43.721 -0.111649 42.5842 -0.221894 41.8145 0.41104C41.7243 0.484969 41.642 0.567977 41.568 0.65747L31.1188 14.5892C30.7232 15.117 30.659 15.8226 30.9534 16.4127L37.5992 29.6998L34.3444 39.4643C34.2919 39.627 34.2646 39.797 34.262 39.9675V40.0148V46.9648L23.4127 30.4975C23.399 30.4787 23.3783 30.4677 23.366 30.4508C23.2609 30.3055 23.1351 30.1778 22.9918 30.0708C22.9587 30.0468 22.9289 30.0189 22.8939 29.9962C22.8595 29.9735 22.8537 29.9612 22.8316 29.9489L16.4471 26.257L13.7967 22.2343L9.9654 16.4179C9.52571 15.7513 8.6885 15.4692 7.93495 15.7338L1.15879 18.1105C0.252833 18.4328 -0.221219 19.4283 0.101085 20.3342C0.147776 20.4672 0.210681 20.593 0.288501 20.7103L5.07896 27.9833L7.72094 32.0039L8.59123 39.3287C8.59577 39.3521 8.6016 39.3754 8.60874 39.3981C8.61652 39.4351 8.6256 39.4721 8.63662 39.5077C8.67618 39.6919 8.74557 39.8689 8.8422 40.0304C8.85452 40.0479 8.85452 40.0706 8.86684 40.0881C8.87916 40.105 34.764 79.3385 34.8891 79.4449C36.1628 82.7905 39.3709 85.0012 42.9506 84.9999C43.6614 84.9992 44.3695 84.913 45.0595 84.7424C47.3033 84.1919 49.2339 82.7678 50.4213 80.7853L73.5825 42.3624L77.2393 40.0479C79.1608 38.8261 80.773 37.177 81.952 35.2289C83.4481 32.751 84.1757 29.884 84.0414 26.9923L83.3625 12.0821C83.3417 11.4997 83.0317 10.966 82.5356 10.6606ZM69.9223 41.6932L67.2278 46.1672L58.2785 40.7691L60.9763 36.2951L69.9223 41.6932ZM37.7451 68.0819V41.7561H48.1937V50.7527L37.7451 68.0819ZM40.7425 31.3075H45.197L47.518 38.273H38.4209L40.7425 31.3075ZM42.9694 19.117C42.0077 19.117 41.2282 18.3375 41.2282 17.3758C41.2282 16.414 42.0077 15.6345 42.9694 15.6345C43.9312 15.6345 44.7113 16.414 44.7113 17.3758C44.7113 18.3375 43.9312 19.117 42.9694 19.117ZM42.9694 4.60553L51.3792 15.8174L45.376 27.8244H44.7107V22.2797C47.4311 21.318 48.8572 18.3329 47.8948 15.6125C46.9331 12.892 43.9487 11.4666 41.2282 12.4284C38.5078 13.3901 37.0824 16.3751 38.0441 19.0956C38.57 20.5832 39.7406 21.7538 41.2282 22.2797V27.8244H40.5629L34.5597 15.8174L42.9694 4.60553ZM18.6468 31.5526L18.1345 31.8905L11.7209 36.1154L11.1307 31.1804C11.0983 30.9119 11.0043 30.6551 10.8551 30.4294L8.94012 27.5215L11.848 25.6059L13.7637 28.5137C13.9128 28.7394 14.1119 28.9268 14.3454 29.0624L18.6468 31.5526ZM7.8059 19.4652L9.93038 22.6922L7.02251 24.6078L4.41036 20.6552L7.8059 19.4652ZM17.1002 36.7393L21.4542 33.8638L34.262 53.2935V72.2874L12.7377 39.616L17.1002 36.7393ZM47.4434 78.976C45.9668 81.4552 42.7606 82.2684 40.2814 80.7918C37.8022 79.3158 36.9896 76.109 38.4656 73.6298C38.4766 73.6123 38.487 73.5954 38.4974 73.5779L51.647 51.7695H51.6768V51.7228L56.4796 43.7554L60.9536 46.4583L65.4341 49.1502L47.4434 78.976ZM78.9773 33.4235C78.0791 34.9073 76.8496 36.1641 75.3853 37.094L72.2919 39.0531L67.2421 36.013L62.1916 32.9722L62.4789 29.3153C62.7979 25.3166 65.233 21.7953 68.8614 20.0852L80.0065 14.8382L80.2283 19.6916C80.0538 19.6727 79.8774 19.6799 79.7056 19.7142L75.4877 20.7596C71.5624 21.7181 68.5235 24.8244 67.6513 28.7699C67.4412 29.7083 68.0313 30.6389 68.9697 30.849C69.0948 30.8782 69.2226 30.8931 69.351 30.8931C70.1655 30.8918 70.8711 30.3263 71.0488 29.5312C71.6376 26.8782 73.681 24.7894 76.3204 24.1428L80.3884 23.1344L80.5713 27.1402C80.6731 29.3457 80.1187 31.5325 78.9773 33.4235Z" fill="white" stroke="#A0C800" stroke-width="0.4" mask="url(#path-1-inside-1)"/>
</svg>
