<svg width="85" height="85" viewBox="0 0 85 85" fill="none" xmlns="http://www.w3.org/2000/svg">
<g clip-path="url(#clip0)">
<path d="M73.2613 48.705L70.7573 39.2876C70.7565 39.2844 70.7551 39.2793 70.753 39.2722C70.5841 38.6831 70.115 38.2258 69.5223 38.0697C69.4986 38.0634 69.4811 38.0591 69.4717 38.0573L52.0759 34.1605C57.4817 30.8696 60.9089 24.949 60.9089 18.4209C60.9089 8.30543 52.6853 0.0418359 42.577 0.000166016C42.5512 0 42.5255 0 42.4994 0C37.6099 0 33.0037 1.90669 29.5223 5.37376C26.0196 8.86208 24.0905 13.4957 24.0906 18.4209C24.0906 24.9508 27.5172 30.8701 32.9233 34.1605L15.504 38.0626C15.5025 38.0629 15.4932 38.0654 15.4776 38.0694C14.8846 38.2258 14.4139 38.682 14.2467 39.272C14.2447 39.2791 14.2432 39.2844 14.2424 39.2876L11.7384 48.705C11.5716 49.3319 11.7824 50.0179 12.3248 50.4447C12.5202 50.5984 12.7526 50.6983 12.9945 50.7551L14.1941 51.0365V77.3713C14.1941 78.1484 14.7332 78.8214 15.4914 78.9912L42.1367 84.96C42.2562 84.9867 42.3777 85.0002 42.4996 85.0002C42.6215 85.0002 42.743 84.9867 42.8625 84.96L69.5079 78.9912C70.2661 78.8214 70.8051 78.1482 70.8051 77.3713V51.0365L72.0047 50.7551C72.2468 50.6983 72.4792 50.5984 72.6744 50.4447C73.2173 50.0179 73.4281 49.3319 73.2613 48.705ZM42.4999 43.9528L23.4496 39.6854L37.6772 36.4984C37.8779 36.6772 38.0542 36.8819 38.1995 37.1075L41.1039 41.6206C41.4095 42.0954 41.9353 42.3823 42.4999 42.3823C43.0644 42.3823 43.5903 42.0953 43.896 41.6206L46.7999 37.1083C46.9448 36.883 47.122 36.6782 47.3247 36.4987L61.5502 39.6854L42.4999 43.9528ZM15.3868 47.9058L17.0491 41.6543L40.2474 46.8509L37.7748 53.156L15.3868 47.9058ZM67.951 41.6542L69.6133 47.9056L47.2252 53.1557L44.7526 46.8506L67.951 41.6542ZM27.4109 18.4209C27.4109 14.3851 28.9927 10.587 31.8653 7.72637C34.7199 4.88352 38.4943 3.32031 42.4999 3.32031C42.521 3.32031 42.5424 3.32031 42.5637 3.32048C50.8485 3.35468 57.5889 10.1286 57.5889 18.4209C57.5889 24.9002 53.4721 30.6493 47.3448 32.7267C45.9645 33.1947 44.7793 34.1127 44.0079 35.3115L42.4999 37.6545L40.9915 35.3105C40.219 34.1102 39.0395 33.1943 37.6702 32.7316C31.5338 30.6584 27.4109 24.9073 27.4109 18.4209ZM67.4851 76.0418L44.1601 81.2666V62.9121C44.1601 61.9952 43.4167 61.252 42.4999 61.252C41.5832 61.252 40.8398 61.9952 40.8398 62.9121V81.2666L17.5148 76.0418V51.8151L38.4165 56.7166C38.5435 56.7463 38.6706 56.7607 38.7961 56.7607C39.4658 56.7607 40.0872 56.3533 40.3411 55.7064L42.4999 50.2013L44.6588 55.7064C44.9125 56.3533 45.5339 56.7607 46.2037 56.7607C46.3293 56.7607 46.4564 56.7465 46.5834 56.7166L67.4851 51.8151V76.0418Z" fill="white"/>
<path d="M50.8243 18.6987C50.8243 14.1062 47.0901 10.3699 42.5 10.3699C37.9101 10.3699 34.1758 14.1062 34.1758 18.6987C34.1758 23.2912 37.91 27.0275 42.5 27.0275C47.09 27.0275 50.8243 23.2912 50.8243 18.6987ZM37.4961 18.6987C37.4961 15.937 39.7408 13.6902 42.5 13.6902C45.2591 13.6902 47.504 15.937 47.504 18.6987C47.504 21.4604 45.2591 23.7072 42.5 23.7072C39.741 23.7072 37.4961 21.4604 37.4961 18.6987Z" fill="white"/>
</g>
<defs>
<clipPath id="clip0">
<rect width="85" height="85" fill="white"/>
</clipPath>
</defs>
</svg>
