<?xml version="1.0" standalone="no"?>
<!DOCTYPE svg PUBLIC "-//W3C//DTD SVG 20010904//EN"
 "http://www.w3.org/TR/2001/REC-SVG-20010904/DTD/svg10.dtd">
<svg version="1.0" xmlns="http://www.w3.org/2000/svg"
 width="208.000000pt" height="208.000000pt" viewBox="0 0 208.000000 208.000000"
 preserveAspectRatio="xMidYMid meet">
<metadata>
Created by potrace 1.11, written by Peter Selinger 2001-2013
</metadata>
<g transform="translate(0.000000,208.000000) scale(0.100000,-0.100000)"
fill="#000000" stroke="none">
<path d="M490 2055 c-331 -74 -545 -407 -475 -739 47 -223 228 -415 444 -471
52 -13 50 -8 31 -124 -21 -131 11 -290 86 -412 51 -84 168 -191 256 -233 247
-118 527 -69 720 126 149 151 211 381 158 583 -10 39 -17 70 -16 71 83 33 151
78 211 138 152 152 207 349 155 551 -33 129 -98 229 -201 310 -117 92 -246
132 -397 122 -107 -7 -193 -35 -280 -93 -35 -24 -66 -44 -67 -44 -2 0 -28 24
-58 53 -68 65 -162 121 -247 148 -86 27 -234 34 -320 14z m220 -301 c237 -70
313 -361 140 -534 -121 -121 -312 -126 -443 -11 -20 18 -51 63 -69 99 -29 58
-33 76 -32 142 0 90 23 147 84 214 84 91 204 125 320 90z m917 -82 c135 -69
200 -215 159 -355 -21 -73 -95 -155 -168 -187 -72 -31 -164 -31 -235 0 -76 32
-78 37 -54 115 27 88 36 212 22 300 -6 39 -12 79 -14 90 -1 15 11 25 53 42 70
30 173 27 237 -5z m-557 -835 c0 -17 -10 -28 -36 -40 -48 -23 -70 -76 -55
-129 15 -49 48 -70 124 -77 49 -5 63 -10 65 -24 6 -31 -17 -47 -67 -47 -34 0
-51 5 -64 20 -21 25 -43 26 -57 1 -21 -39 19 -91 69 -91 17 0 21 -6 21 -35 0
-24 6 -37 19 -45 33 -17 51 -2 51 41 0 33 3 39 21 39 11 0 34 13 50 29 39 39
41 106 5 148 -20 24 -34 29 -87 33 -44 4 -65 10 -73 23 -19 30 4 52 59 55 39
3 50 -1 62 -18 20 -28 57 -23 61 8 3 19 8 23 25 18 12 -4 52 -14 89 -22 65
-15 68 -18 74 -50 16 -85 -28 -206 -98 -269 -194 -176 -491 -78 -538 177 -12
62 -1 138 20 148 8 5 47 20 85 35 39 15 93 42 120 60 28 19 51 34 53 34 1 1 2
-9 2 -22z"/>
<path d="M597 1694 c-4 -4 -7 -22 -7 -40 0 -27 -5 -34 -30 -42 -33 -12 -70
-65 -70 -100 0 -66 59 -112 144 -112 36 0 46 -4 51 -20 11 -34 -12 -50 -71
-50 -40 0 -54 4 -54 14 0 20 -38 30 -55 16 -8 -7 -15 -21 -15 -32 0 -27 45
-68 75 -68 22 0 25 -4 25 -35 0 -24 6 -37 21 -45 28 -16 49 3 49 44 0 27 5 34
35 45 68 24 88 120 36 172 -25 24 -38 29 -78 29 -46 0 -93 20 -93 40 0 41 114
57 138 19 20 -32 56 -22 60 17 2 25 -3 37 -24 53 -15 11 -37 21 -50 21 -19 0
-23 6 -26 38 -3 31 -7 37 -28 40 -14 2 -29 0 -33 -4z"/>
<path d="M1487 1639 c-10 -6 -17 -22 -17 -40 0 -24 -6 -32 -29 -40 -62 -22
-83 -113 -38 -165 20 -23 34 -28 85 -32 49 -3 63 -8 67 -23 10 -30 -3 -39 -55
-39 -34 0 -52 5 -58 16 -5 9 -18 14 -33 12 -18 -2 -25 -10 -27 -31 -4 -37 23
-67 59 -67 25 0 28 -4 31 -37 2 -31 7 -39 27 -41 28 -4 41 12 41 51 0 18 5 27
16 27 8 0 29 13 45 29 23 23 29 38 29 71 0 61 -41 100 -107 100 -56 0 -76 10
-71 36 5 26 94 33 112 9 7 -10 22 -15 37 -13 18 2 25 10 27 31 4 35 -19 64
-59 72 -24 5 -29 12 -29 35 0 34 -26 53 -53 39z"/>
</g>
</svg>
