<svg width="10" height="19" viewBox="0 0 10 19" fill="none" xmlns="http://www.w3.org/2000/svg">
<path d="M1.91668 18.5416C1.61488 18.5422 1.3224 18.4371 1.09001 18.2445C0.959223 18.1361 0.851108 18.0029 0.771862 17.8527C0.692615 17.7024 0.643795 17.5379 0.628197 17.3688C0.612599 17.1996 0.63053 17.029 0.680962 16.8668C0.731395 16.7045 0.813337 16.5538 0.922098 16.4233L6.70877 9.49996L1.12877 2.56371C1.02147 2.43159 0.941348 2.27957 0.892998 2.11638C0.844649 1.95319 0.829028 1.78206 0.847033 1.61281C0.865038 1.44357 0.916313 1.27955 0.997912 1.13018C1.07951 0.980821 1.18983 0.849056 1.32252 0.742464C1.45616 0.624875 1.61266 0.536179 1.78221 0.481944C1.95176 0.427708 2.13069 0.409103 2.30777 0.427296C2.48484 0.445489 2.65625 0.500087 2.81123 0.587665C2.96621 0.675242 3.10141 0.793907 3.20835 0.936214L9.4471 8.68621C9.63708 8.91733 9.74094 9.20724 9.74094 9.50642C9.74094 9.8056 9.63708 10.0955 9.4471 10.3266L2.98877 18.0766C2.85919 18.2329 2.69459 18.3565 2.50832 18.4373C2.32205 18.5181 2.11935 18.5538 1.91668 18.5416Z" fill="#619DE1"/>
</svg>
