<svg width="47" height="47" viewBox="0 0 47 47" fill="none" xmlns="http://www.w3.org/2000/svg">
<g clip-path="url(#clip0)">
<path d="M41.9851 8.99114H43.4373C43.9439 8.99114 44.3547 8.58034 44.3547 8.07377C44.3547 7.5672 43.9439 7.15641 43.4373 7.15641H39.9513C39.4447 7.15641 39.0339 7.5672 39.0339 8.07377V11.5598C39.0339 12.0663 39.4447 12.4771 39.9513 12.4771C40.4579 12.4771 40.8687 12.0663 40.8687 11.5598V10.5504C43.6521 14.2768 45.1651 18.7983 45.1651 23.5009C45.1651 35.4472 35.4462 45.1661 23.4999 45.1661C11.5536 45.1661 1.83461 35.4472 1.83461 23.5009C1.83461 11.5545 11.5536 1.83559 23.4999 1.83559C24.3834 1.83559 25.2726 1.88925 26.143 1.99503C26.6453 2.05576 27.1033 1.69807 27.1644 1.19508C27.2256 0.692182 26.8674 0.234783 26.3644 0.173686C25.4208 0.0590155 24.4572 0.000854492 23.4999 0.000854492C17.2228 0.000854492 11.3214 2.44527 6.88288 6.88386C2.44429 11.3224 -0.00012207 17.2238 -0.00012207 23.5009C-0.00012207 29.7779 2.44429 35.6794 6.88288 40.1179C11.3214 44.5564 17.2228 47.0009 23.4999 47.0009C29.777 47.0009 35.6784 44.5564 40.1169 40.1179C44.5555 35.6794 46.9999 29.7779 46.9999 23.5009C46.9999 18.2039 45.2303 13.1187 41.9851 8.99114Z" fill="#6DC46D"/>
<path d="M9.95072 13.8543C9.52259 13.5833 8.95593 13.7108 8.68485 14.1387C6.59059 17.4463 5.6635 21.4242 6.07439 25.3396C6.49133 29.3131 8.27974 33.0602 11.1102 35.8907C14.526 39.3065 19.0129 41.0145 23.5 41.0145C27.987 41.0145 32.4738 39.3066 35.8897 35.8907C42.7214 29.059 42.7214 17.9429 35.8897 11.1113C33.0636 8.28524 29.3227 6.49747 25.3558 6.07732C21.4476 5.66313 17.474 6.58297 14.1678 8.66695C13.7391 8.93712 13.6107 9.50359 13.8808 9.93219C14.151 10.3609 14.7175 10.4892 15.146 10.2191C21.3785 6.29097 29.3749 7.19118 34.5923 12.4086C40.7087 18.525 40.7087 28.4769 34.5923 34.5933C28.476 40.7098 18.5239 40.7098 12.4076 34.5933C7.26229 29.448 6.34859 21.2584 10.2351 15.1203C10.506 14.6921 10.3788 14.1254 9.95072 13.8543Z" fill="#6DC46D"/>
<path d="M35.4257 24.4331H36.557C37.0636 24.4331 37.4744 24.0223 37.4744 23.5158C37.4744 23.0092 37.0636 22.5984 36.557 22.5984H35.4257C34.9192 22.5984 34.5084 23.0092 34.5084 23.5158C34.5084 24.0223 34.9191 24.4331 35.4257 24.4331Z" fill="#6DC46D"/>
<path d="M9.52536 23.486C9.52536 23.9925 9.93616 24.4033 10.4427 24.4033H11.574C12.0806 24.4033 12.4914 23.9925 12.4914 23.486C12.4914 22.9794 12.0806 22.5686 11.574 22.5686H10.4427C9.93616 22.5686 9.52536 22.9793 9.52536 23.486Z" fill="#6DC46D"/>
<path d="M24.4321 11.575V10.4437C24.4321 9.93716 24.0213 9.52637 23.5147 9.52637C23.0082 9.52637 22.5974 9.93716 22.5974 10.4437V11.575C22.5974 12.0816 23.0082 12.4924 23.5147 12.4924C24.0213 12.4924 24.4321 12.0816 24.4321 11.575Z" fill="#6DC46D"/>
<path d="M22.5676 35.4268V36.5581C22.5676 37.0646 22.9784 37.4754 23.485 37.4754C23.9916 37.4754 24.4024 37.0646 24.4024 36.5581V35.4268C24.4024 34.9202 23.9916 34.5094 23.485 34.5094C22.9784 34.5094 22.5676 34.9201 22.5676 35.4268Z" fill="#6DC46D"/>
<path d="M18.9017 17.6053C18.5434 17.2471 17.9627 17.2471 17.6042 17.6053C17.246 17.9635 17.246 18.5444 17.6042 18.9027L20.7133 22.0118C20.4751 22.4558 20.3396 22.9628 20.3396 23.5009C20.3396 25.2435 21.7573 26.6612 23.4999 26.6612C25.2425 26.6612 26.6602 25.2435 26.6602 23.5009C26.6602 22.9628 26.5246 22.4558 26.2865 22.0118L32.5597 15.7385C32.9179 15.3803 32.9179 14.7994 32.5597 14.4411C32.2014 14.083 31.6207 14.083 31.2623 14.4411L24.989 20.7143C24.545 20.4761 24.038 20.3406 23.4999 20.3406C22.9618 20.3406 22.4547 20.4762 22.0107 20.7143L18.9017 17.6053ZM24.8255 23.5009C24.8255 24.2319 24.2308 24.8265 23.4999 24.8265C22.7689 24.8265 22.1743 24.2319 22.1743 23.5009C22.1743 22.77 22.7689 22.1753 23.4999 22.1753C24.2308 22.1753 24.8255 22.77 24.8255 23.5009Z" fill="#6DC46D"/>
<path d="M12.4071 12.4081C12.5786 12.2375 12.6767 12.0008 12.6767 11.7595C12.6767 11.5183 12.5786 11.2825 12.4071 11.111C12.2365 10.9404 12.0006 10.8422 11.7585 10.8422C11.5173 10.8422 11.2806 10.9403 11.1099 11.111C10.9394 11.2816 10.8412 11.5183 10.8412 11.7595C10.8412 12.0017 10.9393 12.2375 11.1099 12.4081C11.2806 12.5786 11.5173 12.6769 11.7585 12.6769C12.0006 12.6769 12.2365 12.5786 12.4071 12.4081Z" fill="#6DC46D"/>
<path d="M29.8544 2.74172C30.0967 2.74172 30.3334 2.64438 30.5039 2.47293C30.6746 2.3023 30.7728 2.06644 30.7728 1.82435C30.7728 1.58308 30.6747 1.3464 30.5039 1.17577C30.3334 1.00523 30.0967 0.906982 29.8544 0.906982C29.6132 0.906982 29.3765 1.00514 29.206 1.17577C29.0353 1.3464 28.9371 1.58308 28.9371 1.82435C28.9371 2.06653 29.0352 2.3023 29.206 2.47293C29.3765 2.64438 29.6132 2.74172 29.8544 2.74172Z" fill="#6DC46D"/>
</g>
<defs>
<clipPath id="clip0">
<rect width="47" height="47" fill="white" transform="translate(-0.00012207 0.000854492)"/>
</clipPath>
</defs>
</svg>
