<svg width="48" height="48" viewBox="0 0 48 48" fill="none" xmlns="http://www.w3.org/2000/svg">
<path d="M25.5921 31.5985H38.3881C38.8679 31.5985 39.1878 31.2786 39.1878 30.7987V23.601C39.1878 23.1211 38.8679 22.8013 38.3881 22.8013H25.5921C25.1123 22.8013 24.7924 23.1211 24.7924 23.601V30.7987C24.7923 31.2785 25.1123 31.5985 25.5921 31.5985ZM26.3918 24.4007H37.5884V29.9989H26.3918V24.4007Z" fill="#6DC46D"/>
<path d="M3.99879 21.2016H10.3968C10.8767 21.2016 11.1965 20.8817 11.1965 20.4019C11.1965 19.922 10.8767 19.6022 10.3968 19.6022H3.99879C3.51894 19.6022 3.19907 19.922 3.19907 20.4019C3.19907 20.8817 3.51894 21.2016 3.99879 21.2016Z" fill="#6DC46D"/>
<path d="M13.5958 21.2016H19.9938C20.4737 21.2016 20.7936 20.8817 20.7936 20.4019C20.7936 19.922 20.4737 19.6022 19.9938 19.6022H13.5958C13.116 19.6022 12.7961 19.922 12.7961 20.4019C12.7961 20.8817 13.116 21.2016 13.5958 21.2016Z" fill="#6DC46D"/>
<path d="M3.99879 24.4007H14.3955C14.8754 24.4007 15.1952 24.0808 15.1952 23.601C15.1952 23.1211 14.8754 22.8013 14.3955 22.8013H3.99879C3.51894 22.8013 3.19907 23.1211 3.19907 23.601C3.19907 24.0808 3.51894 24.4007 3.99879 24.4007Z" fill="#6DC46D"/>
<path d="M19.9937 22.8013H17.5945C17.1146 22.8013 16.7947 23.1211 16.7947 23.601C16.7947 24.0808 17.1146 24.4007 17.5945 24.4007H19.9937C20.4736 24.4007 20.7934 24.0808 20.7934 23.601C20.7934 23.1211 20.4736 22.8013 19.9937 22.8013Z" fill="#6DC46D"/>
<path d="M47.2652 12.8843C46.7054 12.1645 45.9857 11.7646 45.1059 11.6847L43.1865 11.4521V9.20539V7.60595C43.1865 5.84653 41.747 4.40698 39.9875 4.40698H3.19897C1.43955 4.40689 0 5.84644 0 7.60595V9.20548V15.6035V33.198C0 34.6425 0.970665 35.8707 2.29175 36.2643C2.25145 37.8821 3.47554 39.2866 5.11846 39.436L42.0669 43.5947C42.1469 43.5947 42.3068 43.5947 42.3868 43.5947C43.9863 43.5947 45.4259 42.3951 45.5858 40.8756L47.985 15.2036C48.0649 14.4038 47.825 13.524 47.2652 12.8843ZM1.59953 10.0052H41.5871V12.0846V14.8037H1.59953V10.0052ZM3.19897 6.00642H39.9874C40.8672 6.00642 41.587 6.7262 41.587 7.60595V8.40567H1.59953V7.60595C1.59953 6.7262 2.31931 6.00642 3.19897 6.00642ZM1.59953 33.1979V16.4031H41.5871V33.1979C41.5871 34.0777 40.8673 34.7974 39.9875 34.7974H3.27901H3.19906C2.31931 34.7974 1.59953 34.0777 1.59953 33.1979ZM46.3855 14.8836L43.9862 40.5556C43.9063 41.4354 43.1065 42.0751 42.2268 41.9952L5.35829 37.8365C4.55858 37.7566 3.99869 37.1167 3.91874 36.397H39.9874C41.7469 36.397 43.1864 34.9574 43.1864 33.198V15.6034V12.9642L45.0259 13.1242C45.4258 13.1242 45.8256 13.3642 46.0655 13.684C46.3055 14.0039 46.4655 14.4837 46.3855 14.8836Z" fill="#6DC46D"/>
</svg>
