<svg width="49" height="49" viewBox="0 0 49 49" fill="none" xmlns="http://www.w3.org/2000/svg">
<g clip-path="url(#clip0)">
<path d="M47.4686 19.9071H45.1718V9.95398C45.1718 9.75092 45.0911 9.55618 44.9475 9.4126C44.8039 9.26902 44.6092 9.18835 44.4061 9.18835H35.2186C35.0156 9.18835 34.8208 9.26902 34.6772 9.4126C34.5337 9.55618 34.453 9.75092 34.453 9.95398V19.9071H20.5043L20.1215 18.3759H25.6483C26.3588 18.3751 27.0399 18.0925 27.5423 17.5901C28.0446 17.0878 28.3272 16.4066 28.328 15.6962V5.74304C28.3272 5.03259 28.0446 4.35145 27.5423 3.84908C27.0399 3.34672 26.3588 3.06414 25.6483 3.06335H6.50769C5.79723 3.06414 5.1161 3.34672 4.61373 3.84908C4.11136 4.35145 3.82879 5.03259 3.828 5.74304V15.6962C3.82879 16.4066 4.11136 17.0878 4.61373 17.5901C5.1161 18.0925 5.79723 18.3751 6.50769 18.3759H12.0345L11.6517 19.9071H1.53113C1.32807 19.9071 1.13333 19.9878 0.989749 20.1313C0.846167 20.2749 0.765503 20.4697 0.765503 20.6727V45.1727C0.765503 45.3758 0.846167 45.5705 0.989749 45.7141C1.13333 45.8577 1.32807 45.9384 1.53113 45.9384H3.828C4.03106 45.9384 4.2258 45.8577 4.36938 45.7141C4.51296 45.5705 4.59363 45.3758 4.59363 45.1727V30.6259H28.328V45.1727C28.328 45.3758 28.4087 45.5705 28.5522 45.7141C28.6958 45.8577 28.8906 45.9384 29.0936 45.9384H31.3905C31.5936 45.9384 31.7883 45.8577 31.9319 45.7141C32.0755 45.5705 32.1561 45.3758 32.1561 45.1727V42.8759H44.4061V45.1727C44.4061 45.3758 44.4868 45.5705 44.6304 45.7141C44.774 45.8577 44.9687 45.9384 45.1718 45.9384H47.4686C47.6717 45.9384 47.8664 45.8577 48.01 45.7141C48.1536 45.5705 48.2343 45.3758 48.2343 45.1727V20.6727C48.2343 20.4697 48.1536 20.2749 48.01 20.1313C47.8664 19.9878 47.6717 19.9071 47.4686 19.9071ZM40.578 10.7196H43.6405V19.9071H40.578V10.7196ZM35.9843 10.7196H39.0468V19.9071H35.9843V10.7196ZM5.35925 5.74304C5.35951 5.43854 5.48058 5.14657 5.6959 4.93125C5.91122 4.71593 6.20318 4.59486 6.50769 4.5946H25.6483C25.9528 4.59486 26.2448 4.71593 26.4601 4.93125C26.6754 5.14657 26.7965 5.43854 26.7968 5.74304V14.5477H5.35925V5.74304ZM6.50769 16.8446C6.27047 16.8441 6.0392 16.7703 5.84559 16.6332C5.65198 16.4962 5.5055 16.3026 5.42625 16.079H26.7298C26.6505 16.3026 26.504 16.4962 26.3104 16.6332C26.1168 16.7703 25.8855 16.8441 25.6483 16.8446H6.50769ZM18.9252 19.9071H13.2308L13.6136 18.3759H18.5424L18.9252 19.9071ZM3.06238 44.4071H2.29675V24.5009H3.06238V44.4071ZM28.328 29.0946H4.59363V24.5009H28.328V29.0946ZM30.6249 44.4071H29.8593V24.5009H30.6249V44.4071ZM44.4061 41.3446H32.1561V36.7509H44.4061V41.3446ZM44.4061 35.2196H32.1561V30.6259H44.4061V35.2196ZM44.4061 29.0946H32.1561V24.5009H44.4061V29.0946ZM46.703 44.4071H45.9374V24.5009H46.703V44.4071ZM46.703 22.9696H2.29675V21.4384H46.703V22.9696Z" fill="#6DC46D"/>
<path d="M35.9843 27.5634H40.578C40.7811 27.5634 40.9758 27.4827 41.1194 27.3391C41.263 27.1955 41.3436 27.0008 41.3436 26.7977C41.3436 26.5947 41.263 26.3999 41.1194 26.2564C40.9758 26.1128 40.7811 26.0321 40.578 26.0321H35.9843C35.7812 26.0321 35.5865 26.1128 35.4429 26.2564C35.2993 26.3999 35.2186 26.5947 35.2186 26.7977C35.2186 27.0008 35.2993 27.1955 35.4429 27.3391C35.5865 27.4827 35.7812 27.5634 35.9843 27.5634Z" fill="#6DC46D"/>
<path d="M40.578 32.1571H35.9843C35.7812 32.1571 35.5865 32.2378 35.4429 32.3814C35.2993 32.5249 35.2186 32.7197 35.2186 32.9227C35.2186 33.1258 35.2993 33.3205 35.4429 33.4641C35.5865 33.6077 35.7812 33.6884 35.9843 33.6884H40.578C40.7811 33.6884 40.9758 33.6077 41.1194 33.4641C41.263 33.3205 41.3436 33.1258 41.3436 32.9227C41.3436 32.7197 41.263 32.5249 41.1194 32.3814C40.9758 32.2378 40.7811 32.1571 40.578 32.1571Z" fill="#6DC46D"/>
<path d="M40.578 38.2821H35.9843C35.7812 38.2821 35.5865 38.3628 35.4429 38.5064C35.2993 38.6499 35.2186 38.8447 35.2186 39.0477C35.2186 39.2508 35.2993 39.4455 35.4429 39.5891C35.5865 39.7327 35.7812 39.8134 35.9843 39.8134H40.578C40.7811 39.8134 40.9758 39.7327 41.1194 39.5891C41.263 39.4455 41.3436 39.2508 41.3436 39.0477C41.3436 38.8447 41.263 38.6499 41.1194 38.5064C40.9758 38.3628 40.7811 38.2821 40.578 38.2821Z" fill="#6DC46D"/>
<path d="M18.3749 26.0321H13.7811C13.5781 26.0321 13.3833 26.1128 13.2397 26.2564C13.0962 26.3999 13.0155 26.5947 13.0155 26.7977C13.0155 27.0008 13.0962 27.1955 13.2397 27.3391C13.3833 27.4827 13.5781 27.5634 13.7811 27.5634H18.3749C18.5779 27.5634 18.7727 27.4827 18.9163 27.3391C19.0598 27.1955 19.1405 27.0008 19.1405 26.7977C19.1405 26.5947 19.0598 26.3999 18.9163 26.2564C18.7727 26.1128 18.5779 26.0321 18.3749 26.0321Z" fill="#6DC46D"/>
</g>
<defs>
<clipPath id="clip0">
<rect width="49" height="49" fill="white" transform="translate(-0.00012207 0.000854492)"/>
</clipPath>
</defs>
</svg>
