<svg width="47" height="47" viewBox="0 0 47 47" fill="none" xmlns="http://www.w3.org/2000/svg">
<g clip-path="url(#clip0)">
<path d="M43.5116 7.80347H40.2987V4.59058C40.2987 4.21026 39.9905 3.9021 39.6102 3.9021H36.3973V0.689209C36.3973 0.308895 36.0891 0.000732422 35.7089 0.000732422H7.16003C6.77981 0.000732422 6.47156 0.308895 6.47156 0.689209V31.5789H3.48816C3.10794 31.5789 2.79968 31.887 2.79968 32.2673V33.9197C2.79968 36.8302 5.16749 39.198 8.078 39.198H10.3729V42.4109C10.3729 42.7912 10.6812 43.0994 11.0614 43.0994H14.2743V46.3123C14.2743 46.6926 14.5825 47.0007 14.9628 47.0007H28.7782C29.1584 47.0007 29.4667 46.6926 29.4667 46.3123C29.4667 45.9319 29.1584 45.6238 28.7782 45.6238H15.6512V43.0994H39.6102C39.9905 43.0994 40.2987 42.7912 40.2987 42.4109V31.5789C40.2987 31.1985 39.9905 30.8904 39.6102 30.8904C39.23 30.8904 38.9218 31.1985 38.9218 31.5789V41.7224H11.7499V39.198H35.7089C36.0891 39.198 36.3973 38.8898 36.3973 38.5095V5.27905H38.9218V28.4578C38.9218 28.8381 39.23 29.1462 39.6102 29.1462C39.9905 29.1462 40.2987 28.8381 40.2987 28.4578V9.18042H42.8231V45.6238H31.8993C31.5191 45.6238 31.2108 45.9319 31.2108 46.3123C31.2108 46.6926 31.5191 47.0007 31.8993 47.0007H43.5116C43.8918 47.0007 44.2001 46.6926 44.2001 46.3123V8.49194C44.2001 8.11163 43.8918 7.80347 43.5116 7.80347ZM35.0204 37.821H31.2108C29.0596 37.821 27.3094 36.0709 27.3094 33.9197V32.2673C27.3094 31.887 27.0012 31.5789 26.621 31.5789H21.8475C21.4673 31.5789 21.1591 31.887 21.1591 32.2673C21.1591 32.6476 21.4673 32.9558 21.8475 32.9558H25.9325V33.9197C25.9325 35.4638 26.599 36.855 27.6593 37.821H8.078C5.92674 37.821 4.17664 36.0709 4.17664 33.9197V32.9558H18.6346C19.0149 32.9558 19.3231 32.6476 19.3231 32.2673C19.3231 31.887 19.0149 31.5789 18.6346 31.5789H7.84851V1.37769H35.0204V37.821Z" fill="#6DC46D"/>
<path d="M10.3729 14.6882H19.1854C19.5656 14.6882 19.8739 14.3801 19.8739 13.9998V5.18726C19.8739 4.80694 19.5656 4.49878 19.1854 4.49878H10.3729C9.9927 4.49878 9.68445 4.80694 9.68445 5.18726V13.9998C9.68445 14.3801 9.9927 14.6882 10.3729 14.6882ZM11.0614 5.87573H18.4969V13.3113H11.0614V5.87573Z" fill="#6DC46D"/>
<path d="M32.496 12.1179H22.3983C22.0181 12.1179 21.7098 12.4261 21.7098 12.8064C21.7098 13.1867 22.0181 13.4949 22.3983 13.4949H32.496C32.8762 13.4949 33.1844 13.1867 33.1844 12.8064C33.1844 12.4261 32.8762 12.1179 32.496 12.1179Z" fill="#6DC46D"/>
<path d="M15.6512 19.0486C15.6512 19.4289 15.9595 19.7371 16.3397 19.7371H26.5292C26.9094 19.7371 27.2177 19.4289 27.2177 19.0486C27.2177 18.6683 26.9094 18.3601 26.5292 18.3601H16.3397C15.9595 18.3601 15.6512 18.6683 15.6512 19.0486Z" fill="#6DC46D"/>
<path d="M32.496 8.90503H22.3983C22.0181 8.90503 21.7098 9.21319 21.7098 9.59351C21.7098 9.97382 22.0181 10.282 22.3983 10.282H32.496C32.8762 10.282 33.1844 9.97382 33.1844 9.59351C33.1844 9.21319 32.8762 8.90503 32.496 8.90503Z" fill="#6DC46D"/>
<path d="M32.496 5.69214H22.3983C22.0181 5.69214 21.7098 6.0003 21.7098 6.38062C21.7098 6.76093 22.0181 7.06909 22.3983 7.06909H32.496C32.8762 7.06909 33.1844 6.76093 33.1844 6.38062C33.1844 6.0003 32.8762 5.69214 32.496 5.69214Z" fill="#6DC46D"/>
<path d="M32.496 26.53H10.3729C9.9927 26.53 9.68445 26.8382 9.68445 27.2185C9.68445 27.5988 9.9927 27.907 10.3729 27.907H32.496C32.8762 27.907 33.1844 27.5988 33.1844 27.2185C33.1844 26.8382 32.8762 26.53 32.496 26.53Z" fill="#6DC46D"/>
<path d="M32.496 22.3992H20.4706C20.0904 22.3992 19.7821 22.7073 19.7821 23.0876C19.7821 23.468 20.0904 23.7761 20.4706 23.7761H32.496C32.8762 23.7761 33.1844 23.468 33.1844 23.0876C33.1844 22.7073 32.8762 22.3992 32.496 22.3992Z" fill="#6DC46D"/>
<path d="M10.327 23.7761H17.2577C17.6379 23.7761 17.9462 23.468 17.9462 23.0876C17.9462 22.7073 17.6379 22.3992 17.2577 22.3992H10.327C9.9468 22.3992 9.63855 22.7073 9.63855 23.0876C9.63855 23.468 9.9468 23.7761 10.327 23.7761Z" fill="#6DC46D"/>
</g>
<defs>
<clipPath id="clip0">
<rect width="47" height="47" fill="white" transform="translate(-0.00012207 0.000732422)"/>
</clipPath>
</defs>
</svg>
