<svg width="23" height="23" viewBox="0 0 23 23" fill="none" xmlns="http://www.w3.org/2000/svg">
<path d="M9.77499 12.9375C10.0037 12.9375 10.2231 12.8466 10.3849 12.6849C10.5466 12.5231 10.6375 12.3037 10.6375 12.075C10.6375 11.8462 10.5466 11.6269 10.3849 11.4651C10.2231 11.3034 10.0037 11.2125 9.77499 11.2125C9.54624 11.2125 9.32686 11.3034 9.16511 11.4651C9.00336 11.6269 8.91249 11.8462 8.91249 12.075C8.91249 12.3037 9.00336 12.5231 9.16511 12.6849C9.32686 12.8466 9.54624 12.9375 9.77499 12.9375Z" fill="#6DC46D"/>
<path d="M12.65 4.02499C12.65 3.94211 12.632 3.86022 12.5974 3.78492C12.5627 3.70962 12.5122 3.6427 12.4493 3.58875C12.3864 3.53479 12.3126 3.49507 12.2329 3.47231C12.1532 3.44955 12.0695 3.44429 11.9876 3.45689L3.9376 4.68739C3.80188 4.70826 3.67811 4.77702 3.58867 4.88121C3.49924 4.98541 3.45005 5.11818 3.45 5.25549V17.7445C3.45005 17.8818 3.49924 18.0146 3.58867 18.1188C3.67811 18.223 3.80188 18.2917 3.9376 18.3126L11.9876 19.5442C12.0695 19.5568 12.1532 19.5516 12.2329 19.5288C12.3126 19.5061 12.3864 19.4663 12.4493 19.4124C12.5122 19.3584 12.5627 19.2915 12.5974 19.2162C12.632 19.1409 12.65 19.059 12.65 18.9761V11.5H18.5978L17.4512 12.5051C17.3433 12.6072 17.2792 12.7472 17.2722 12.8957C17.2652 13.0441 17.3159 13.1895 17.4138 13.3013C17.5117 13.4131 17.649 13.4828 17.7971 13.4955C17.9451 13.5083 18.0924 13.4633 18.2079 13.3699L20.5033 11.3574C20.5649 11.3034 20.6142 11.2369 20.648 11.1624C20.6818 11.0878 20.6993 11.0069 20.6993 10.925C20.6993 10.8431 20.6818 10.7622 20.648 10.6876C20.6142 10.6131 20.5649 10.5466 20.5033 10.4926L18.2079 8.48009C18.0933 8.37975 17.9434 8.32907 17.7914 8.3392C17.6393 8.34934 17.4975 8.41946 17.3972 8.53414C17.2969 8.64882 17.2462 8.79867 17.2563 8.95071C17.2664 9.10276 17.3366 9.24455 17.4512 9.34489L18.5978 10.35H12.65V4.02499ZM11.5 4.69429V18.308L4.6 17.25V5.74884L11.5 4.69429Z" fill="#6DC46D"/>
<path d="M14.375 18.4H13.8V12.65H14.95V17.825C14.95 17.9775 14.8894 18.1237 14.7816 18.2316C14.6738 18.3394 14.5275 18.4 14.375 18.4Z" fill="#6DC46D"/>
<path d="M13.8 9.19999V4.59999H14.375C14.5275 4.59999 14.6738 4.66057 14.7816 4.7684C14.8894 4.87624 14.95 5.02249 14.95 5.17499V9.19999H13.8Z" fill="#6DC46D"/>
</svg>
