<svg width="56" height="56" viewBox="0 0 56 56" fill="none" xmlns="http://www.w3.org/2000/svg">
<path d="M28 3.5C14.4703 3.5 3.5 14.4703 3.5 28C3.5 41.5297 14.4703 52.5 28 52.5C41.5297 52.5 52.5 41.5297 52.5 28C52.5 14.4703 41.5297 3.5 28 3.5ZM38.582 19.9992L27.0648 35.968C26.9039 36.1926 26.6917 36.3757 26.4458 36.502C26.2 36.6283 25.9276 36.6942 25.6512 36.6942C25.3748 36.6942 25.1024 36.6283 24.8565 36.502C24.6107 36.3757 24.3985 36.1926 24.2375 35.968L17.418 26.518C17.2102 26.2281 17.418 25.8234 17.7734 25.8234H20.3383C20.8961 25.8234 21.4266 26.0914 21.7547 26.5508L25.6484 31.9539L34.2453 20.032C34.5734 19.5781 35.0984 19.3047 35.6617 19.3047H38.2266C38.582 19.3047 38.7898 19.7094 38.582 19.9992Z" fill="url(#paint0_linear)"/>
<defs>
<linearGradient id="paint0_linear" x1="45.2397" y1="43.117" x2="0.327578" y2="9.24632" gradientUnits="userSpaceOnUse">
<stop stop-color="#4A8CD9"/>
<stop offset="0.802406" stop-color="#B3DAFC"/>
</linearGradient>
</defs>
</svg>
