<svg width="19" height="19" viewBox="0 0 19 19" fill="none" xmlns="http://www.w3.org/2000/svg">
<path d="M15.9292 14.1684C15.5792 13.3393 15.0713 12.5862 14.4337 11.9511C13.7981 11.3141 13.0451 10.8063 12.2164 10.4556C12.209 10.4519 12.2016 10.45 12.1941 10.4463C13.3501 9.61133 14.1016 8.25127 14.1016 6.7168C14.1016 4.1748 12.042 2.11523 9.5 2.11523C6.95801 2.11523 4.89844 4.1748 4.89844 6.7168C4.89844 8.25127 5.6499 9.61133 6.80586 10.4481C6.79844 10.4519 6.79102 10.4537 6.78359 10.4574C5.95234 10.8081 5.20645 11.3109 4.56631 11.9529C3.92934 12.5886 3.42149 13.3415 3.0708 14.1702C2.72628 14.9815 2.54047 15.8514 2.52344 16.7326C2.52294 16.7524 2.52642 16.7721 2.53365 16.7906C2.54089 16.809 2.55175 16.8258 2.56558 16.84C2.57941 16.8542 2.59595 16.8654 2.6142 16.8731C2.63246 16.8808 2.65207 16.8848 2.67188 16.8848H3.78516C3.8668 16.8848 3.93174 16.8198 3.93359 16.74C3.9707 15.3076 4.5459 13.9661 5.5627 12.9493C6.61475 11.8973 8.01191 11.3184 9.5 11.3184C10.9881 11.3184 12.3853 11.8973 13.4373 12.9493C14.4541 13.9661 15.0293 15.3076 15.0664 16.74C15.0683 16.8217 15.1332 16.8848 15.2148 16.8848H16.3281C16.3479 16.8848 16.3675 16.8808 16.3858 16.8731C16.4041 16.8654 16.4206 16.8542 16.4344 16.84C16.4483 16.8258 16.4591 16.809 16.4663 16.7906C16.4736 16.7721 16.4771 16.7524 16.4766 16.7326C16.458 15.8457 16.2743 14.9829 15.9292 14.1684ZM9.5 9.9082C8.64834 9.9082 7.84678 9.57607 7.24375 8.97305C6.64072 8.37002 6.30859 7.56846 6.30859 6.7168C6.30859 5.86514 6.64072 5.06357 7.24375 4.46055C7.84678 3.85752 8.64834 3.52539 9.5 3.52539C10.3517 3.52539 11.1532 3.85752 11.7563 4.46055C12.3593 5.06357 12.6914 5.86514 12.6914 6.7168C12.6914 7.56846 12.3593 8.37002 11.7563 8.97305C11.1532 9.57607 10.3517 9.9082 9.5 9.9082Z" fill="#666666"/>
</svg>
