<svg width="76" height="29" viewBox="0 0 76 29" fill="none" xmlns="http://www.w3.org/2000/svg">
<g clip-path="url(#clip0)">
<path fill-rule="evenodd" clip-rule="evenodd" d="M15.1101 0V14.4843H30.1961C30.1961 22.4962 23.4221 28.9686 15.1101 28.9686V14.4843H0.0240936C0.0240936 6.47237 6.79806 0 15.1101 0Z" fill="#727271"/>
<path fill-rule="evenodd" clip-rule="evenodd" d="M26.5301 14.4843C26.5301 20.5482 21.425 25.4496 15.1092 25.4496V14.4843H3.68837C3.68837 8.42036 8.79339 3.51895 15.1092 3.51895V14.4843H26.5301Z" fill="#008100"/>
<path fill-rule="evenodd" clip-rule="evenodd" d="M22.8649 14.4843C22.8649 18.6002 19.3961 21.9306 15.1092 21.9306V14.4843H7.3535C7.3535 10.3683 10.8223 7.0379 15.1092 7.0379V14.4843H22.8649Z" fill="#0461AA"/>
<path d="M65.1339 7.28927V6.69231C65.1339 6.28386 65.2321 5.93824 65.4612 5.71831C65.6902 5.49837 66.0175 5.3727 66.4102 5.3727H67.5883C68.0137 5.3727 68.3082 5.49837 68.5373 5.71831C68.7663 5.93824 68.8645 6.25244 68.8645 6.69231V7.28927C68.8645 7.69772 68.7663 8.01192 68.5373 8.23185C68.3082 8.45179 68.0137 8.57746 67.5883 8.57746H66.4102C65.9848 8.57746 65.6902 8.45179 65.4612 8.23185C65.2321 8.01192 65.1339 7.69772 65.1339 7.28927ZM38.8562 7.44637H43.4703C43.4049 5.93824 42.6522 5.18418 41.1796 5.18418C39.707 5.18418 38.9543 5.93824 38.8562 7.44637ZM36.8927 12.5049C35.8782 11.5937 35.3546 10.2427 35.3546 8.48321C35.3546 6.72373 35.8782 5.3727 36.8927 4.43012C37.9071 3.48754 39.347 3.01625 41.1469 3.01625C42.9794 3.01625 44.3866 3.48754 45.4011 4.43012C46.4155 5.3727 46.9391 6.69231 46.9391 8.45179V9.01733C46.9391 9.20585 46.8737 9.33153 46.7755 9.4572C46.6446 9.58288 46.5137 9.6143 46.3501 9.6143H38.8562C38.9216 10.3369 39.1507 10.8711 39.5434 11.2167C39.9361 11.5623 40.5578 11.7194 41.3759 11.7194C42.2922 11.7194 42.9467 11.4995 43.3067 11.091C43.6012 10.7768 43.9612 10.5883 44.452 10.5883H45.9246C46.0883 10.5883 46.2519 10.6511 46.3501 10.7454C46.481 10.8711 46.5137 10.9967 46.5137 11.1853C46.5137 12.9762 44.7138 13.8873 41.0814 13.8873C39.2488 13.8873 37.8417 13.416 36.7945 12.5049H36.8927ZM15.0654 12.7562V0.911159C15.0654 0.659805 15.1636 0.43987 15.3272 0.251354C15.4909 0.0628386 15.7199 0 15.9817 0H20.0396C20.3014 0 20.5632 0.0942579 20.7922 0.251354C21.0213 0.43987 21.1849 0.628386 21.2504 0.87974L24.1956 9.01733L27.1408 0.87974C27.2062 0.628386 27.3699 0.408451 27.5989 0.251354C27.828 0.0628386 28.0898 0 28.3516 0H32.4422C32.704 0 32.933 0.0942579 33.0966 0.251354C33.2603 0.43987 33.3584 0.659805 33.3584 0.911159V12.7562C33.3584 13.0076 33.2603 13.2275 33.0966 13.416C32.9003 13.6046 32.6712 13.6674 32.4094 13.6674H30.5769C30.3151 13.6674 30.086 13.5731 29.8896 13.416C29.6933 13.2589 29.5951 13.039 29.5951 12.7562V3.4247L26.0936 12.7876C25.9954 13.039 25.8318 13.2275 25.6027 13.3846C25.3737 13.5417 25.1119 13.636 24.8828 13.636H23.4756C23.2138 13.636 22.9848 13.5417 22.7557 13.3846C22.5266 13.2275 22.363 13.0076 22.2648 12.7876L18.7633 3.4247V12.7562C18.7633 13.0076 18.6651 13.2275 18.5015 13.416C18.3052 13.6046 18.0761 13.6674 17.8143 13.6674H15.9817C15.7199 13.6674 15.4909 13.5731 15.2945 13.416C15.0982 13.2589 15 13.039 15 12.7562H15.0654ZM49.0007 12.7876V0.911159C49.0007 0.659805 49.0989 0.43987 49.2625 0.251354C49.4589 0.0628386 49.6552 0 49.917 0H55.4802C58.36 0 60.4543 0.565547 61.7633 1.66522C63.0723 2.7649 63.7268 4.49296 63.7268 6.8494C63.7268 9.20585 63.0723 10.9339 61.7633 12.0336C60.4543 13.1333 58.36 13.6674 55.4802 13.6674H49.917C49.6552 13.6674 49.4262 13.5731 49.2625 13.416C49.0662 13.2589 49.0007 13.039 49.0007 12.7876ZM52.7313 10.9653H55.382C57.1491 10.9653 58.36 10.6511 59.0144 10.0228C59.6689 9.39437 59.9962 8.32611 59.9962 6.81798C59.9962 5.30986 59.6689 4.2416 59.0472 3.61322C58.3927 2.98483 57.1819 2.67064 55.4147 2.67064H52.7641V10.9653H52.7313Z" fill="#727271"/>
<path d="M72.2462 12.9448V1.03684C72.2462 0.78549 72.3443 0.565555 72.508 0.408459C72.7043 0.219943 72.9007 0.157104 73.1624 0.157104H74.995C75.2568 0.157104 75.4859 0.251362 75.6822 0.408459C75.8786 0.596974 75.944 0.78549 75.944 1.03684V12.9133C75.944 13.1647 75.8458 13.3846 75.6495 13.5417C75.4532 13.7302 75.2241 13.7931 74.9623 13.7931H73.1297C72.8679 13.7931 72.6389 13.6988 72.4752 13.5417C72.2789 13.3846 72.2134 13.1647 72.2134 12.9133L72.2462 12.9448Z" fill="#727271"/>
<path fill-rule="evenodd" clip-rule="evenodd" d="M14.2584 21.7107C10.6259 21.6165 7.71347 18.7887 7.6153 15.3326H14.2584V21.7107Z" fill="#D42435"/>
</g>
<defs>
<clipPath id="clip0">
<rect width="76" height="29" fill="white"/>
</clipPath>
</defs>
</svg>
