<svg width="143" height="56" viewBox="0 0 143 56" fill="none" xmlns="http://www.w3.org/2000/svg">
<g clip-path="url(#clip0)">
<path fill-rule="evenodd" clip-rule="evenodd" d="M28.4292 0V27.9697H56.8147C56.8147 43.4409 44.0689 55.9393 28.4292 55.9393V27.9697H0.0437012C0.0437012 12.4984 12.7895 0 28.4292 0Z" fill="#727271"/>
<path fill-rule="evenodd" clip-rule="evenodd" d="M49.9184 27.9696C49.9184 39.6792 40.3129 49.144 28.4292 49.144V27.9696H6.93994C6.93994 16.26 16.5454 6.79517 28.4292 6.79517V27.9696H49.9184Z" fill="#008100"/>
<path fill-rule="evenodd" clip-rule="evenodd" d="M43.0221 27.9695C43.0221 35.9175 36.4953 42.3487 28.4292 42.3487V27.9695H13.8362C13.8362 20.0215 20.363 13.5903 28.4292 13.5903V27.9695H43.0221Z" fill="#0461AA"/>
<path d="M124.361 14.3793V13.2265C124.361 12.4378 124.546 11.7704 124.977 11.3457C125.408 10.921 126.024 10.6783 126.762 10.6783H128.979C129.78 10.6783 130.334 10.921 130.765 11.3457C131.196 11.7704 131.38 12.3771 131.38 13.2265V14.3793C131.38 15.168 131.196 15.7748 130.765 16.1995C130.334 16.6242 129.78 16.8668 128.979 16.8668H126.762C125.962 16.8668 125.408 16.6242 124.977 16.1995C124.546 15.7748 124.361 15.168 124.361 14.3793ZM74.9174 14.6827H83.5993C83.4761 11.7704 82.0599 10.3143 79.2891 10.3143C76.5183 10.3143 75.1021 11.7704 74.9174 14.6827ZM71.223 24.4508C69.3142 22.6913 68.329 20.0825 68.329 16.6848C68.329 13.2872 69.3142 10.6783 71.223 8.85818C73.1318 7.03803 75.841 6.12795 79.2276 6.12795C82.6757 6.12795 85.3233 7.03803 87.2321 8.85818C89.1409 10.6783 90.1261 13.2265 90.1261 16.6242V17.7163C90.1261 18.0803 90.003 18.323 89.8182 18.5657C89.5719 18.8083 89.3256 18.869 89.0178 18.869H74.9174C75.0405 20.2645 75.4716 21.2959 76.2104 21.9633C76.9493 22.6307 78.1192 22.934 79.6586 22.934C81.3826 22.934 82.6141 22.5093 83.2914 21.7206C83.8456 21.1139 84.5229 20.7498 85.4465 20.7498H88.2173C88.5252 20.7498 88.8331 20.8712 89.0178 21.0532C89.2641 21.2959 89.3256 21.5386 89.3256 21.9026C89.3256 25.3609 85.9391 27.1204 79.1044 27.1204C75.6563 27.1204 73.0086 26.2103 71.0382 24.4508H71.223ZM30.1533 24.9362V2.06295C30.1533 1.57757 30.338 1.15287 30.6459 0.788841C30.9538 0.42481 31.3848 0.303467 31.8774 0.303467H39.5125C40.0051 0.303467 40.4977 0.485482 40.9287 0.788841C41.3597 1.15287 41.6676 1.5169 41.7907 2.00228L47.3324 17.7163L52.874 2.00228C52.9971 1.5169 53.305 1.0922 53.736 0.788841C54.167 0.42481 54.6596 0.303467 55.1522 0.303467H62.8489C63.3415 0.303467 63.7725 0.485482 64.0804 0.788841C64.3883 1.15287 64.573 1.57757 64.573 2.06295V24.9362C64.573 25.4216 64.3883 25.8463 64.0804 26.2103C63.711 26.5743 63.28 26.6957 62.7874 26.6957H59.3392C58.8467 26.6957 58.4156 26.5137 58.0462 26.2103C57.6768 25.9069 57.492 25.4822 57.492 24.9362V6.91669L50.9036 24.9969C50.7189 25.4822 50.4111 25.8463 49.98 26.1496C49.549 26.453 49.0564 26.635 48.6254 26.635H45.9777C45.4852 26.635 45.0541 26.453 44.6231 26.1496C44.1921 25.8463 43.8842 25.4216 43.6995 24.9969L37.1111 6.91669V24.9362C37.1111 25.4216 36.9264 25.8463 36.6185 26.2103C36.2491 26.5743 35.8181 26.6957 35.3255 26.6957H31.8774C31.3848 26.6957 30.9538 26.5137 30.5843 26.2103C30.2149 25.9069 30.0302 25.4822 30.0302 24.9362H30.1533ZM94.0052 24.9969V2.06295C94.0052 1.57757 94.19 1.15287 94.4978 0.788841C94.8673 0.42481 95.2367 0.303467 95.7293 0.303467H106.197C111.615 0.303467 115.556 1.39556 118.019 3.51907C120.482 5.64258 121.713 8.97952 121.713 13.5299C121.713 18.0803 120.482 21.4172 118.019 23.5407C115.556 25.6642 111.615 26.6957 106.197 26.6957H95.7293C95.2367 26.6957 94.8057 26.5137 94.4978 26.2103C94.1284 25.9069 94.0052 25.4822 94.0052 24.9969ZM101.025 21.4779H106.012C109.337 21.4779 111.615 20.8712 112.847 19.6577C114.078 18.4443 114.694 16.3815 114.694 13.4692C114.694 10.557 114.078 8.49415 112.908 7.28072C111.677 6.06728 109.399 5.46056 106.074 5.46056H101.086V21.4779H101.025Z" fill="#727271"/>
<path d="M135.937 24.9969V2.00228C135.937 1.5169 136.122 1.0922 136.429 0.788841C136.799 0.42481 137.168 0.303467 137.661 0.303467H141.109C141.602 0.303467 142.033 0.485482 142.402 0.788841C142.771 1.15287 142.895 1.5169 142.895 2.00228V24.9362C142.895 25.4216 142.71 25.8463 142.34 26.1496C141.971 26.5137 141.54 26.635 141.047 26.635H137.599C137.107 26.635 136.676 26.453 136.368 26.1496C135.998 25.8463 135.875 25.4216 135.875 24.9362L135.937 24.9969Z" fill="#727271"/>
<path fill-rule="evenodd" clip-rule="evenodd" d="M26.8282 41.9243C19.9935 41.7423 14.5135 36.2818 14.3287 29.6079H26.8282V41.9243Z" fill="#D42435"/>
</g>
<defs>
<clipPath id="clip0">
<rect width="143" height="56" fill="white"/>
</clipPath>
</defs>
</svg>
