<svg width="44" height="41" viewBox="0 0 44 41" fill="none" xmlns="http://www.w3.org/2000/svg">
<path fill-rule="evenodd" clip-rule="evenodd" d="M35 3C38.3137 3 41 5.68629 41 9V25C41 28.3137 38.3137 31 35 31H16.75L10 37V31H9C5.68629 31 3 28.3137 3 25V9C3 5.68629 5.68629 3 9 3H35ZM35 0H9C4.02944 0 1.42553e-06 4.02944 1.42553e-06 9V25C-0.00234944 29.2019 2.90317 32.8462 7 33.78V37C6.99845 38.1838 7.69315 39.2578 8.77346 39.7417C9.85377 40.2257 11.1177 40.0292 12 39.24L17.9 34H35C39.9706 34 44 29.9706 44 25V9C44 4.02944 39.9706 0 35 0V0Z" fill="white"/>
<path fill-rule="evenodd" clip-rule="evenodd" d="M22 18.5C22.8284 18.5 23.5 17.8284 23.5 17C23.5 16.1716 22.8284 15.5 22 15.5C21.1716 15.5 20.5 16.1716 20.5 17C20.5 17.8284 21.1716 18.5 22 18.5Z" fill="white"/>
<path fill-rule="evenodd" clip-rule="evenodd" d="M32 18.5C32.8284 18.5 33.5 17.8284 33.5 17C33.5 16.1716 32.8284 15.5 32 15.5C31.1716 15.5 30.5 16.1716 30.5 17C30.5 17.8284 31.1716 18.5 32 18.5Z" fill="white"/>
<path fill-rule="evenodd" clip-rule="evenodd" d="M12.1201 18.5C12.9485 18.5 13.6201 17.8284 13.6201 17C13.6201 16.1716 12.9485 15.5 12.1201 15.5C11.2917 15.5 10.6201 16.1716 10.6201 17C10.6201 17.8284 11.2917 18.5 12.1201 18.5Z" fill="white"/>
</svg>
