<svg width="14" height="12" viewBox="0 0 14 12" fill="none" xmlns="http://www.w3.org/2000/svg">
<path fill-rule="evenodd" clip-rule="evenodd" d="M7.71284 5.87619L12.8171 1.11826C13.083 0.870896 13.083 0.468764 12.8171 0.221396C12.5513 -0.0263948 12.1208 -0.0263948 11.855 0.221396L6.75068 4.97932L1.64639 0.221396C1.38056 -0.0263948 0.950065 -0.0263948 0.684235 0.221396C0.418406 0.468764 0.418406 0.870896 0.684235 1.11826L5.78852 5.87619L0.684235 10.6341C0.418406 10.8815 0.418406 11.2836 0.684235 11.531C0.81715 11.6549 0.991345 11.7166 1.16554 11.7166C1.33974 11.7166 1.51348 11.6549 1.64639 11.531L6.75068 6.77306L11.855 11.531C11.9879 11.6549 12.1621 11.7166 12.3363 11.7166C12.5105 11.7166 12.6842 11.6549 12.8171 11.531C13.083 11.2836 13.083 10.8815 12.8171 10.6341L7.71284 5.87619Z" fill="#585858"/>
</svg>
