<svg width="19" height="21" viewBox="0 0 19 21" fill="none" xmlns="http://www.w3.org/2000/svg">
<path d="M7.35791 16.3978C5.38767 16.3978 3.78404 14.7942 3.78404 12.8239V4.20483H2.31252C1.03685 4.20483 0 5.24153 0 6.5172V17.8693C0 19.145 1.03685 20.1818 2.31252 20.1818H12.8236C14.0993 20.1818 15.1362 19.145 15.1362 17.8693V16.3978H7.35791Z" fill="white"/>
<path d="M18.4986 2.31277C18.4986 1.03541 17.4635 0.000244141 16.1863 0.000244141H7.35683C6.07947 0.000244141 5.04431 1.03541 5.04431 2.31277V12.8239C5.04431 14.1013 6.07947 15.1364 7.35683 15.1364H16.1863C17.4635 15.1364 18.4986 14.1013 18.4986 12.8239V2.31277Z" fill="white"/>
</svg>
