<svg width="31" height="31" viewBox="0 0 31 31" fill="none" xmlns="http://www.w3.org/2000/svg">
<g opacity="0.3">
<path fill-rule="evenodd" clip-rule="evenodd" d="M11.1282 0H2.38462C1.06763 0 0 1.06763 0 2.38462V11.1282C0 12.4452 1.06763 13.5128 2.38462 13.5128H11.1282C12.4452 13.5128 13.5128 12.4452 13.5128 11.1282V2.38462C13.5128 1.06763 12.4452 0 11.1282 0ZM11.1282 11.1282H2.38462V2.38462H11.1282V11.1282Z" fill="white"/>
<path fill-rule="evenodd" clip-rule="evenodd" d="M28.6155 0H19.8719C18.5549 0 17.4873 1.06763 17.4873 2.38462V11.1282C17.4873 12.4452 18.5549 13.5128 19.8719 13.5128H28.6155C29.9325 13.5128 31.0001 12.4452 31.0001 11.1282V2.38462C31.0001 1.06763 29.9325 0 28.6155 0ZM28.6154 11.1282H19.8718V2.38462H28.6154V11.1282Z" fill="white"/>
<path fill-rule="evenodd" clip-rule="evenodd" d="M11.1282 17.4872H2.38462C1.06763 17.4872 0 18.5548 0 19.8718V28.6154C0 29.9324 1.06763 31 2.38462 31H11.1282C12.4452 31 13.5128 29.9324 13.5128 28.6154V19.8718C13.5128 18.5548 12.4452 17.4872 11.1282 17.4872ZM11.1282 28.6155H2.38462V19.8719H11.1282V28.6155Z" fill="white"/>
<path fill-rule="evenodd" clip-rule="evenodd" d="M28.6155 17.4872H19.8719C18.5549 17.4872 17.4873 18.5548 17.4873 19.8718V28.6154C17.4873 29.9324 18.5549 31 19.8719 31H28.6155C29.9325 31 31.0001 29.9324 31.0001 28.6154V19.8718C31.0001 18.5548 29.9325 17.4872 28.6155 17.4872ZM28.6154 28.6155H19.8718V19.8719H28.6154V28.6155Z" fill="white"/>
</g>
</svg>
