<svg width="31" height="27" viewBox="0 0 31 27" fill="none" xmlns="http://www.w3.org/2000/svg">
<g opacity="0.3">
<path fill-rule="evenodd" clip-rule="evenodd" d="M28.8864 8.45455V2.11364C28.8864 0.946307 27.9401 0 26.7727 0H2.11364C0.946307 0 0 0.946307 0 2.11364V24.6591C0 25.8264 0.946307 26.7727 2.11364 26.7727H26.7727C27.9401 26.7727 28.8864 25.8264 28.8864 24.6591V18.3182C30.0537 18.3182 31 17.3719 31 16.2045V10.5682C31 9.40085 30.0537 8.45455 28.8864 8.45455ZM26.7727 24.6591H2.11364V2.11364H26.7727V8.45455H23.25C22.0827 8.45455 21.1364 9.40085 21.1364 10.5682V16.2045C21.1364 17.3719 22.0827 18.3182 23.25 18.3182H26.7727V24.6591ZM28.8864 16.2045H23.25V10.5682H28.8864V16.2045Z" fill="white"/>
<path fill-rule="evenodd" clip-rule="evenodd" d="M26.0685 14.4432C26.6522 14.4432 27.1254 13.97 27.1254 13.3863C27.1254 12.8027 26.6522 12.3295 26.0685 12.3295C25.4849 12.3295 25.0117 12.8027 25.0117 13.3863C25.0117 13.97 25.4849 14.4432 26.0685 14.4432Z" fill="white"/>
</g>
</svg>
