<svg width="27" height="27" viewBox="0 0 27 27" fill="none" xmlns="http://www.w3.org/2000/svg">
<path fill-rule="evenodd" clip-rule="evenodd" d="M27 25.5092C27 26.3322 26.3329 27 25.5099 27H18.6296V16.544H22.1392L22.6651 12.4689H18.6296V9.86759C18.6296 8.68792 18.9576 7.88407 20.6492 7.88407L22.8071 7.88334V4.23842C22.4334 4.18915 21.153 4.07809 19.6629 4.07809C16.5518 4.07809 14.4219 5.97704 14.4219 9.46456V12.4689H10.9034V16.544H14.4219V27H1.49007C0.667075 27 0 26.3322 0 25.5092V1.49077C0 0.667057 0.667075 0 1.49007 0H25.5099C26.3329 0 27 0.667057 27 1.49077V25.5092Z" fill="white"/>
</svg>
