<svg width="31" height="31" viewBox="0 0 31 31" fill="none" xmlns="http://www.w3.org/2000/svg">
<g opacity="0.3">
<path fill-rule="evenodd" clip-rule="evenodd" d="M11.0727 12.3347C11.0727 11.6418 10.5402 11.0821 9.88044 11.0821L4.59454 11.0997C6.1207 6.13131 10.5799 2.67355 15.5638 2.65679C15.5717 2.65679 15.5876 2.65679 15.6035 2.65679C21.1676 2.65679 25.9527 6.83174 26.9781 12.5977C27.0815 13.2018 27.5822 13.6241 28.1466 13.6241C28.2181 13.6241 28.2976 13.6165 28.3692 13.6023C29.013 13.4741 29.4422 12.8181 29.323 12.1353C28.083 5.17952 22.3202 0.14328 15.6035 0.14328C15.5876 0.14328 15.5717 0.14328 15.5558 0.14328C10.0394 0.161712 5.04762 3.68566 2.84583 8.90539L2.82993 4.19339C2.82993 3.50133 2.28942 2.94082 1.63762 2.94082C1.63762 2.94082 1.63762 2.94082 1.62967 2.94082C0.977877 2.94333 0.445312 3.50804 0.445312 4.20177L0.469159 12.3707C0.469159 12.7041 0.596338 13.0234 0.818902 13.258C1.04147 13.4925 1.34352 13.6233 1.66147 13.6233L9.88839 13.5956C10.5481 13.5931 11.0807 13.0284 11.0727 12.3347Z" fill="white"/>
<path fill-rule="evenodd" clip-rule="evenodd" d="M30.7065 17.985C30.6986 17.293 30.166 16.7325 29.5142 16.7325H29.5063L21.2873 16.7601C20.6276 16.7626 20.095 17.3273 20.095 18.021C20.1029 18.7139 20.6355 19.2736 21.2873 19.2736C21.2952 19.2736 21.2952 19.2736 21.2952 19.2736L26.6606 19.256C25.1981 24.3492 20.7309 27.879 15.6358 27.8966C15.6278 27.8966 15.6199 27.8966 15.604 27.8966C10.5963 27.8966 5.52499 23.7435 4.51551 18.8128C4.37243 18.1333 3.73653 17.7043 3.10063 17.8485C2.45679 17.9951 2.04345 18.6637 2.18653 19.3415C3.43448 25.4527 9.45166 30.4102 15.604 30.4102C15.6199 30.4102 15.6358 30.4102 15.6437 30.4102C21.1919 30.3909 26.1201 26.9289 28.3299 21.7427L28.3458 26.1623C28.3458 26.8544 28.8783 27.4149 29.5381 27.4149C30.1978 27.4124 30.7304 26.8477 30.7304 26.1539L30.7065 17.985Z" fill="white"/>
</g>
</svg>
