<svg width="31" height="25" viewBox="0 0 31 25" fill="none" xmlns="http://www.w3.org/2000/svg">
<path fill-rule="evenodd" clip-rule="evenodd" d="M10.8136 2.11421C12.8435 2.11421 14.4946 3.76341 14.4946 5.79081C14.4946 7.82441 12.8435 9.47361 10.8136 9.47361C8.78377 9.47361 7.13209 7.82441 7.13209 5.79081C7.13209 3.76341 8.78377 2.11421 10.8136 2.11421ZM10.8136 11.3336C13.869 11.3336 16.3546 8.84741 16.3546 5.79081C16.3546 2.74041 13.869 0.254211 10.8136 0.254211C7.75829 0.254211 5.27209 2.74041 5.27209 5.79081C5.27209 8.84741 7.75829 11.3336 10.8136 11.3336ZM22.1336 2.41802C23.5974 2.41802 24.7878 3.60842 24.7878 5.07162C24.7878 6.53482 23.5974 7.72522 22.1336 7.72522C20.6704 7.72522 19.48 6.53482 19.48 5.07162C19.48 3.60842 20.6704 2.41802 22.1336 2.41802ZM22.1336 9.58521C24.6229 9.58521 26.6478 7.56401 26.6478 5.07161C26.6478 2.58542 24.6229 0.558015 22.1336 0.558015C19.6449 0.558015 17.62 2.58542 17.62 5.07161C17.62 7.56401 19.6449 9.58521 22.1336 9.58521ZM28.7525 17.6948H21.4564V17.6576C21.4564 15.1342 19.7235 12.462 16.51 12.462C16.4647 12.462 16.4139 12.462 16.3662 12.462C16.6886 12.1582 17.1052 11.9412 17.6167 11.9412C17.9695 11.9412 19.057 11.935 20.3881 11.9288C22.4818 11.9164 25.1795 11.904 26.5614 11.904C28.295 11.904 28.7525 13.4664 28.7525 14.291V17.6948ZM19.5964 22.3014H2.02992V17.9862C2.02992 16.9012 2.4571 15.8286 3.17258 15.128C3.53838 14.7684 4.159 14.322 5.00096 14.3654C5.4672 14.353 6.9428 14.3592 8.72964 14.3468C11.3994 14.3344 14.7678 14.322 16.51 14.322C18.631 14.322 19.5964 16.0518 19.5964 17.6576V22.3014ZM26.5615 10.044C25.1776 10.044 22.4757 10.0564 20.3788 10.0688C19.052 10.075 17.9683 10.0812 17.6347 10.0812C17.6118 10.0812 17.5888 10.0812 17.5665 10.0812C16.107 10.0812 14.8063 10.9988 14.1255 12.462C12.4465 12.4682 10.4396 12.4806 8.72034 12.4868C6.94714 12.4992 5.48208 12.5054 5.02576 12.5054C5.0239 12.5054 5.02204 12.5054 5.02018 12.5054C3.85768 12.4682 2.74726 12.9394 1.87058 13.8012C0.805422 14.8428 0.169922 16.4114 0.169922 17.9862V23.2314C0.169922 23.746 0.585942 24.1614 1.09992 24.1614H20.5264C21.0404 24.1614 21.4564 23.746 21.4564 23.2314V19.5548H29.6825C30.1965 19.5548 30.6125 19.1394 30.6125 18.6248V14.291C30.6125 12.2326 29.1927 10.044 26.5615 10.044Z" fill="white"/>
</svg>
