<svg width="31" height="31" viewBox="0 0 31 31" fill="none" xmlns="http://www.w3.org/2000/svg">
<g opacity="0.3">
<path fill-rule="evenodd" clip-rule="evenodd" d="M22.2391 14.8261H21.5248C21.4114 13.8032 21.0378 12.8265 20.4398 11.9889L20.8846 11.5441C21.155 11.2921 21.2663 10.9126 21.1749 10.5545C21.0834 10.1963 20.8037 9.91662 20.4456 9.82515C20.0874 9.73368 19.7079 9.84501 19.4559 10.1155L19.0111 10.5602C18.1736 9.96219 17.1968 9.58865 16.1739 9.47524V9.09784C16.1739 8.53956 15.7213 8.08698 15.163 8.08698C14.6048 8.08698 14.1522 8.53956 14.1522 9.09784V9.5898C13.3743 9.76782 12.6391 10.0976 11.9889 10.5602L11.5441 10.1155C11.2921 9.84501 10.9126 9.73368 10.5544 9.82515C10.1963 9.91662 9.9166 10.1963 9.82513 10.5545C9.73366 10.9126 9.84499 11.2921 10.1154 11.5441L10.5602 11.9889C9.96217 12.8265 9.58863 13.8032 9.47522 14.8261H8.76087C8.20258 14.8261 7.75 15.2787 7.75 15.837C7.75 16.3953 8.20258 16.8478 8.76087 16.8478H9.58978C9.7678 17.6258 10.0976 18.3609 10.5602 19.0111L10.1154 19.4559C9.84499 19.7079 9.73366 20.0874 9.82513 20.4456C9.9166 20.8037 10.1963 21.0834 10.5544 21.1749C10.9126 21.2664 11.2921 21.155 11.5441 20.8846L11.9889 20.4398C12.6391 20.9024 13.3743 21.2322 14.1522 21.4102V21.9022C14.1522 22.4605 14.6048 22.9131 15.163 22.9131C15.7213 22.9131 16.1739 22.4605 16.1739 21.9022V21.5248C17.1968 21.4114 18.1736 21.0379 19.0111 20.4398L19.4559 20.8846C19.7079 21.155 20.0874 21.2664 20.4456 21.1749C20.8037 21.0834 21.0834 20.8037 21.1749 20.4456C21.2663 20.0874 21.155 19.7079 20.8846 19.4559L20.4398 19.0111C20.9024 18.3609 21.2322 17.6258 21.4102 16.8478H22.2391C22.7974 16.8478 23.25 16.3953 23.25 15.837C23.25 15.2787 22.7974 14.8261 22.2391 14.8261ZM15.5 19.5435C13.2668 19.5435 11.4565 17.7332 11.4565 15.5001C11.4565 13.2669 13.2668 11.4566 15.5 11.4566C17.7332 11.4566 19.5435 13.2669 19.5435 15.5001C19.5435 17.7332 17.7332 19.5435 15.5 19.5435Z" fill="white"/>
<path fill-rule="evenodd" clip-rule="evenodd" d="M28.9783 0H2.02174C0.905163 0 0 0.905163 0 2.02174V28.9783C0 30.0948 0.905163 31 2.02174 31H28.9783C30.0948 31 31 30.0948 31 28.9783V2.02174C31 0.905163 30.0948 0 28.9783 0ZM2.02174 12.8043H4.04348V18.1957H2.02174V12.8043ZM2.02174 20.2174H6.06522V22.2391H2.02174V20.2174ZM6.06522 24.2609C7.18179 24.2609 8.08696 23.3557 8.08696 22.2391V20.2174C8.08696 19.1008 7.18179 18.1957 6.06522 18.1957V12.8043C7.18179 12.8043 8.08696 11.8992 8.08696 10.7826V8.76087C8.08696 7.64429 7.18179 6.73913 6.06522 6.73913V6.06522H24.9348V24.9348H6.06522V24.2609ZM6.06522 8.76087V10.7826H2.02174V8.76087H6.06522ZM28.9783 28.9783H2.02174V24.2609H4.04348V24.9348C4.04348 26.0514 4.94864 26.9565 6.06522 26.9565H24.9348C26.0514 26.9565 26.9565 26.0514 26.9565 24.9348V6.06522C26.9565 4.94864 26.0514 4.04348 24.9348 4.04348H6.06522C4.94864 4.04348 4.04348 4.94864 4.04348 6.06522V6.73913H2.02174V2.02174H28.9783V28.9783Z" fill="white"/>
</g>
</svg>
