<svg width="32" height="31" viewBox="0 0 32 31" fill="none" xmlns="http://www.w3.org/2000/svg">
<g opacity="0.3">
<path fill-rule="evenodd" clip-rule="evenodd" d="M15.5143 9.86377C12.4014 9.86377 9.87793 12.3873 9.87793 15.5001C9.87793 18.613 12.4014 21.1365 15.5143 21.1365C18.6272 21.1365 21.1507 18.613 21.1507 15.5001C21.1507 12.3873 18.6272 9.86377 15.5143 9.86377ZM15.5148 19.0227C13.5692 19.0227 11.9921 17.4455 11.9921 15.5C11.9921 13.5544 13.5692 11.9772 15.5148 11.9772C17.4603 11.9772 19.0375 13.5544 19.0375 15.5C19.0375 17.4455 17.4603 19.0227 15.5148 19.0227Z" fill="white"/>
<path fill-rule="evenodd" clip-rule="evenodd" d="M28.9005 11.2727H26.7164C26.6271 11.0332 26.5285 10.7983 26.4205 10.5682L27.9634 9.02523C28.7876 8.20001 28.7876 6.86317 27.9634 6.03795L24.9761 3.05068C24.1509 2.2265 22.8141 2.2265 21.9889 3.05068L20.4459 4.59364C20.2158 4.4903 19.9809 4.39167 19.7414 4.29773V2.11364C19.7414 0.946307 18.7951 0 17.6277 0H13.4005C12.2331 0 11.2868 0.946307 11.2868 2.11364V4.29773C11.0473 4.38697 10.8124 4.48561 10.5823 4.59364L9.03932 3.05068C8.2141 2.2265 6.87726 2.2265 6.05205 3.05068L3.06477 6.03795C2.24059 6.86317 2.24059 8.20001 3.06477 9.02523L4.59364 10.5682C4.4903 10.7983 4.39167 11.0332 4.29773 11.2727H2.11364C0.946307 11.2727 0 12.219 0 13.3864V17.6136C0 18.781 0.946307 19.7273 2.11364 19.7273H4.29773C4.38697 19.9668 4.48561 20.2017 4.59364 20.4318L3.05068 21.9748C2.2265 22.8 2.2265 24.1368 3.05068 24.962L6.03795 27.9493C6.86317 28.7735 8.20001 28.7735 9.02523 27.9493L10.5682 26.4064C10.7983 26.5097 11.0332 26.6083 11.2727 26.7023V28.8864C11.2727 30.0537 12.219 31 13.3864 31H17.6136C18.781 31 19.7273 30.0537 19.7273 28.8864V26.7023C19.9668 26.613 20.2017 26.5144 20.4318 26.4064L21.9748 27.9493C22.8 28.7735 24.1368 28.7735 24.962 27.9493L27.9493 24.962C28.7735 24.1368 28.7735 22.8 27.9493 21.9748L26.4345 20.4318C26.5379 20.2017 26.6365 19.9668 26.7305 19.7273H28.9145C30.0819 19.7273 31.0282 18.781 31.0282 17.6136V13.3864C31.0282 12.8233 30.8036 12.2836 30.4041 11.8868C30.0047 11.49 29.4635 11.269 28.9005 11.2727ZM28.9007 17.6138H25.1455C24.8952 18.7507 24.4443 19.8338 23.8139 20.8124L26.47 23.4686L23.4827 26.4558L20.7984 23.7997C19.8198 24.4301 18.7367 24.881 17.5998 25.1313V28.8865H13.3725V25.1313C12.2356 24.881 11.1525 24.4301 10.1739 23.7997L7.51774 26.4558L4.53047 23.4686L7.18661 20.8124C6.55616 19.8338 6.10524 18.7507 5.85502 17.6138H2.12797V13.3865H5.8832C6.13343 12.2496 6.58435 11.1665 7.21479 10.1879L4.55865 7.53173L7.54593 4.54446L10.2021 7.2006C11.1807 6.57015 12.2638 6.11924 13.4007 5.86901V2.11378H17.628V5.86901C18.7648 6.11924 19.848 6.57015 20.8266 7.2006L23.4827 4.54446L26.47 7.53173L23.8139 10.1879C24.4443 11.1665 24.8952 12.2496 25.1455 13.3865H28.9007V17.6138Z" fill="white"/>
</g>
</svg>
