<svg width="30" height="30" viewBox="0 0 30 30" fill="none" xmlns="http://www.w3.org/2000/svg">
<path fill-rule="evenodd" clip-rule="evenodd" d="M29.9845 1.25558L25.6989 26.9699C25.6431 27.2935 25.4645 27.5446 25.1632 27.7232C25.007 27.8125 24.834 27.8571 24.6442 27.8571C24.5215 27.8571 24.3876 27.8292 24.2425 27.7734L16.6589 24.6763L12.6076 29.615C12.4068 29.8717 12.1333 30 11.7873 30C11.6423 30 11.5195 29.9777 11.4191 29.933C11.207 29.8549 11.0368 29.7238 10.9085 29.5396C10.7801 29.3555 10.7159 29.1518 10.7159 28.9286V23.0859L25.18 5.35714L7.28409 20.8426L0.67149 18.1306C0.25855 17.9743 0.0353418 17.6674 0.00186012 17.2098C-0.020461 16.7634 0.158105 16.4342 0.537564 16.2221L28.3942 0.15067C28.5616 0.0502227 28.7401 0 28.9299 0C29.1531 0 29.354 0.0613833 29.5325 0.184152C29.9008 0.45201 30.0515 0.80915 29.9845 1.25558Z" fill="white"/>
</svg>
