<svg width="31" height="26" viewBox="0 0 31 26" fill="none" xmlns="http://www.w3.org/2000/svg">
<path fill-rule="evenodd" clip-rule="evenodd" d="M30.145 0.480664C28.915 1.23207 27.5559 1.77854 26.1033 2.07177C24.9462 0.796386 23.2924 0 21.4615 0C17.9521 0 15.1039 2.93896 15.1039 6.56352C15.1039 7.07834 15.1586 7.57733 15.2678 8.05799C9.98211 7.78392 5.29648 5.17401 2.15782 1.19791C1.60988 2.1709 1.29701 3.29967 1.29701 4.50175C1.29701 6.77761 2.41938 8.7869 4.12693 9.96399C3.08568 9.93233 2.1032 9.6341 1.24404 9.14594V9.22591C1.24404 12.4073 3.43663 15.0614 6.34849 15.662C5.81545 15.8161 5.25261 15.8936 4.67239 15.8936C4.26268 15.8936 3.86289 15.8536 3.47553 15.7769C4.28502 18.3835 6.63239 20.282 9.41596 20.3328C7.23993 22.0939 4.49609 23.1435 1.51718 23.1435C1.004 23.1435 0.496622 23.1135 0 23.0535C2.81419 24.9129 6.15895 26 9.74953 26C21.4491 26 27.8448 16.0002 27.8448 7.32575C27.8448 7.04002 27.8398 6.75512 27.8291 6.47522C29.0714 5.54971 30.1508 4.39428 31 3.07808C29.8611 3.59956 28.6344 3.95277 27.3482 4.11105C28.6617 3.29967 29.6699 2.01346 30.145 0.480664Z" fill="white"/>
</svg>
