<svg width="27" height="31" viewBox="0 0 27 31" fill="none" xmlns="http://www.w3.org/2000/svg">
<path fill-rule="evenodd" clip-rule="evenodd" d="M7.90611 7.66732C7.87157 8.13808 7.86581 11.4642 7.90035 11.521C7.92626 11.5634 9.48048 11.5826 9.62822 11.5422C9.69346 11.5249 9.69826 11.3776 9.69826 9.18164V6.84036L9.81627 6.46491C9.88151 6.25889 10.0446 5.71785 10.1799 5.26249C10.2823 4.91684 10.4013 4.51982 10.4805 4.25553C10.5059 4.17091 10.5272 4.0999 10.5425 4.04853C11.1287 2.1318 11.689 0.244905 11.7034 0.138045L11.7216 0.00615538L10.9013 0.00134188C10.1597 -0.00250891 9.93331 0.00134189 9.91316 0.0205959C9.90357 0.0292602 9.64741 1.00447 9.1917 2.77199C8.97392 3.61435 8.79067 4.28728 8.78491 4.26803C8.77978 4.25182 8.62635 3.68496 8.41447 2.90209C8.34943 2.66181 8.27889 2.40117 8.20544 2.12987C7.89364 0.973668 7.63268 0.0225213 7.62501 0.0148197C7.61349 0.00326728 6.62052 -0.00154621 5.81558 0.00519268C5.79707 0.00534497 5.77987 -0.000235939 5.76888 0.00568873C5.71037 0.0372182 5.82745 0.394595 6.85557 3.67597C7.02442 4.21508 7.2777 4.97946 7.41778 5.3732C7.8495 6.58813 7.9512 7.06371 7.90611 7.66732ZM5.99259 16.9359L5.97245 21.8485L5.9523 26.7612L5.15504 26.7718C4.54007 26.7804 4.35395 26.7708 4.33955 26.7313C4.329 26.7034 4.31557 24.4873 4.31077 21.8081L4.30022 16.9359L3.40414 16.9262L2.50807 16.9147V16.1474V15.3792L5.156 15.3898L7.80585 15.4004L7.81736 16.158L7.82792 16.9147L6.91074 16.9262L5.99259 16.9359ZM21.3211 20.105C21.2713 20.2696 21.2195 21.4046 21.2569 21.5028C21.277 21.5567 21.3902 21.5654 22.0704 21.5654H22.8619L22.8485 20.8482C22.8351 20.1897 22.8264 20.1136 22.7391 19.9355C22.601 19.6544 22.3957 19.5293 22.0724 19.5293C21.6838 19.5293 21.4372 19.718 21.3211 20.105ZM24.2485 25.2956C24.046 26.0456 23.5097 26.577 22.7345 26.7955C21.6888 27.0882 20.5385 26.6068 20.0789 25.6855C19.8218 25.1676 19.8132 25.0646 19.8132 22.5356C19.8132 20.4735 19.8208 20.2212 19.8861 19.9401C20.0712 19.143 20.5327 18.628 21.3137 18.3421C22.3489 17.9637 23.5951 18.4422 24.0451 19.3904C24.2811 19.891 24.3099 20.1048 24.3348 21.5142L24.3549 22.7772L22.8094 22.7888L21.2638 22.7984L21.2523 23.6475C21.236 24.8451 21.3156 25.2138 21.6379 25.4323C21.9085 25.6153 22.3249 25.6008 22.5513 25.4015C22.7643 25.2138 22.8247 25.0126 22.8458 24.4263L22.864 23.9103H23.6114H24.3578L24.3348 24.486C24.3214 24.8027 24.282 25.1676 24.2485 25.2956ZM16.8202 25.0612C16.7713 25.2008 16.709 25.2903 16.614 25.3548C16.3722 25.5165 16.022 25.4655 15.7026 25.221L15.5615 25.1132V22.5351V19.9569L15.7035 19.8491C16.1352 19.518 16.6063 19.5545 16.7934 19.9329C16.8663 20.0811 16.8711 20.214 16.8797 22.4744C16.8884 24.6434 16.8826 24.8773 16.8202 25.0612ZM18.196 26.1763C18.0684 26.4622 17.7844 26.7423 17.5493 26.8107C16.9411 26.9917 16.4527 26.8454 15.8886 26.313C15.7131 26.1474 15.55 26.0126 15.526 26.0126C15.4962 26.0126 15.4809 26.1416 15.4809 26.3967V26.7809H14.7556H14.0303V21.0797V15.3796H14.7556H15.4809V17.2395C15.4809 18.2619 15.4953 19.0995 15.5106 19.0995C15.5279 19.0995 15.6804 18.9637 15.8512 18.7991C16.2436 18.4188 16.5708 18.2533 16.9862 18.2205C17.7287 18.1647 18.1701 18.5469 18.3725 19.422C18.4349 19.6954 18.4425 20.0073 18.4425 22.5353C18.4425 25.615 18.4416 25.6285 18.196 26.1763ZM10.7467 26.1357C10.4599 26.4283 10.1193 26.6652 9.82956 26.773C9.22897 26.9992 8.65909 26.8673 8.41541 26.4476C8.19283 26.0635 8.18899 25.9768 8.18899 21.9903V18.3311H8.91237H9.63768L9.64823 21.7775C9.65974 25.1634 9.66166 25.2269 9.74225 25.3636C9.84874 25.5475 10.0138 25.5975 10.2728 25.5253C10.4263 25.483 10.5299 25.4079 10.7774 25.1605L11.0902 24.8495V21.5898V18.3311H11.8155H12.5408V22.5554V26.7807H11.8155H11.0902V26.3359C11.0902 26.0009 11.0768 25.8912 11.0384 25.8912C11.0096 25.8912 10.8782 26.0009 10.7467 26.1357ZM7.96742 30.2411C8.38859 30.2565 9.50341 30.2825 10.4455 30.2989C12.4085 30.3336 16.0177 30.3133 18.0804 30.2556C19.4687 30.2161 21.9995 30.1141 22.4716 30.0775C22.6049 30.0669 22.9129 30.0476 23.1566 30.0332C23.9769 29.987 24.4978 29.8147 24.9861 29.4286C25.6203 28.929 26.1096 28.0067 26.3168 26.9246C26.5135 25.9013 26.6449 24.0779 26.6708 22.0081C26.6939 20.2782 26.6632 19.3443 26.5394 17.8464C26.3811 15.9537 26.2573 15.3395 25.8678 14.5511C25.3526 13.5065 24.6081 12.9559 23.548 12.8346C22.7287 12.7412 19.6452 12.6083 16.791 12.5448C11.8501 12.4351 3.72784 12.6468 2.68978 12.9135C2.21104 13.0367 1.85127 13.2447 1.4771 13.6192C0.821833 14.2738 0.431359 15.2124 0.274018 16.5121C-0.0838366 19.4772 -0.0915117 23.0613 0.252911 26.1343C0.401618 27.456 0.708625 28.3148 1.28234 29.0224C1.64116 29.4642 2.25901 29.8397 2.81162 29.9514C3.19922 30.0303 5.14008 30.1391 7.96742 30.2411ZM18.5016 11.6613C18.0967 11.6074 17.8598 11.4504 17.6976 11.1279C17.4942 10.7236 17.4942 10.7255 17.4942 6.69664V2.9373H18.3116H19.1281L19.1454 6.40302C19.1636 10.1672 19.1588 10.0796 19.3833 10.1364C19.5896 10.1874 19.8179 10.0767 20.1019 9.78594L20.3744 9.50772L20.3849 6.22203L20.3945 2.9373L21.2109 2.92575L22.0274 2.91612V7.21842V11.5217L21.9161 11.5448C21.7827 11.5727 20.5451 11.5708 20.4453 11.5419C20.3849 11.5255 20.3753 11.4697 20.3753 11.1328V10.7419L20.1431 10.9691C19.6097 11.4899 19.0341 11.7325 18.5016 11.6613ZM14.3875 10.0179C14.6676 9.80417 14.6695 9.78588 14.6839 7.36661C14.6964 5.48646 14.6897 5.16684 14.6331 4.91077C14.5563 4.5642 14.422 4.40054 14.1591 4.32833C13.8195 4.23784 13.5087 4.43231 13.3993 4.80487C13.3168 5.09175 13.3177 9.35651 13.4012 9.6434C13.4645 9.85904 13.667 10.0949 13.8166 10.1276C14.0114 10.169 14.2503 10.1228 14.3884 10.0179H14.3875ZM13.7478 11.6595C13.0167 11.571 12.3452 11.1397 12.0218 10.5505C11.6928 9.95073 11.6621 9.63689 11.6813 6.99524C11.6966 4.9495 11.7024 4.82146 11.783 4.52784C11.9758 3.82988 12.349 3.35431 12.9275 3.06646C13.7219 2.67272 14.5786 2.72374 15.3279 3.21087C15.8057 3.51989 16.0954 3.96851 16.2509 4.63566C16.319 4.93025 16.3257 5.15648 16.3257 7.22244C16.3257 9.73508 16.3142 9.88045 16.0571 10.4244C15.8105 10.949 15.2521 11.4111 14.6698 11.5738C14.4127 11.6441 13.9665 11.6865 13.7478 11.6595Z" fill="white"/>
</svg>
