<svg width="50" height="49" viewBox="0 0 50 49" fill="none" xmlns="http://www.w3.org/2000/svg">
<circle cx="25.25" cy="24.375" r="24.375" fill="white"/>
<path d="M25.7388 3.25C13.8042 3.25 4.125 12.4571 4.125 23.8095C4.125 35.1619 13.8042 44.369 25.7388 44.369C37.6734 44.369 46.375 35.6089 46.375 24.2564C46.375 12.904 37.6734 3.25 25.7388 3.25ZM31.1893 34.9831C26.1147 36.4134 23.1076 31.2288 25.6449 27.5638C26.3966 26.0442 24.3292 24.2564 22.3558 25.5973C19.6306 30.7818 12.5826 28.7259 12.5826 24.2564C12.8645 18.8037 19.6306 17.4629 22.1678 22.2005C23.8594 23.8095 26.3027 22.0217 25.4569 20.1445C22.3558 14.8706 28.2761 11.2056 31.6591 13.0828C36.3578 15.4069 34.9482 22.1111 28.9339 22.1111C26.9605 22.3793 26.7725 25.5079 28.9339 25.7761C35.794 25.7761 36.4518 33.106 31.1893 34.9831Z" fill="#1374A5"/>
</svg>
