<svg width="53" height="49" viewBox="0 0 53 49" fill="none" xmlns="http://www.w3.org/2000/svg">
<ellipse cx="26.125" cy="24.375" rx="26" ry="24.375" fill="white"/>
<path d="M26.6138 3.25C14.6792 3.25 5 12.6873 5 24.3235C5 35.9597 14.6792 45.397 26.6138 45.397C38.5484 45.397 48.2277 35.9597 48.2277 24.3235C48.2277 12.6873 38.5484 3.25 26.6138 3.25ZM13.6455 22.6743H23.7946L22.573 26.3392H12.3299L13.6455 22.6743ZM41.0857 19.8339L38.0786 29.6377C37.1388 31.9283 35.7292 32.8445 33.2859 32.8445H13.0817L14.5853 28.6298H31.8763L34.6955 20.1088H17.3105L18.5321 16.169H38.4544C40.3339 16.2606 41.5556 17.8182 41.0857 19.8339Z" fill="#4875B7"/>
</svg>
