<svg width="51" height="51" viewBox="0 0 51 51" fill="none" xmlns="http://www.w3.org/2000/svg">
<circle cx="25.3125" cy="25.1875" r="25.1875" fill="white"/>
<path fill-rule="evenodd" clip-rule="evenodd" d="M24.9888 46.4777C36.9258 46.4777 46.6027 36.8008 46.6027 24.8638C46.6027 12.9268 36.9258 3.25 24.9888 3.25C13.0518 3.25 3.375 12.9268 3.375 24.8638C3.375 36.8008 13.0518 46.4777 24.9888 46.4777ZM15.8585 12.2553H28.3598C40.2971 13.4015 41.049 35.2746 28.3598 37.4715H15.9525V27.5378H12.3807V22.7621H15.8585V12.2553ZM20.6522 33.4598H27.1378C34.6574 32.2181 34.8454 18.2728 26.9499 16.9356H20.6522V22.8576H25.07V27.2513H20.6522V33.4598Z" fill="#EAB330"/>
</svg>
