<svg width="51" height="51" viewBox="0 0 51 51" fill="none" xmlns="http://www.w3.org/2000/svg">
<circle cx="25.1875" cy="25.1875" r="25.1875" fill="white"/>
<path d="M24.5526 17.96L23.4245 22.7504C24.8347 23.0322 28.877 24.4411 29.629 21.8111C30.2871 18.8993 26.1508 18.2417 24.5526 17.96ZM22.8605 25.0987L21.6384 30.2648C23.3305 30.6405 28.2189 32.2373 28.971 29.3255C29.7231 26.2258 24.5526 25.5683 22.8605 25.0987ZM30.0051 3.87043C18.5361 1.05253 6.78518 8.09729 3.87094 19.6507C1.05071 31.2041 8.10129 42.8515 19.6642 45.8572C31.2272 48.6751 42.8841 41.6304 45.8924 30.077C48.6186 18.5235 41.568 6.68834 30.0051 3.87043ZM34.4234 21.7172C34.0474 23.7836 32.9193 24.8169 31.3212 25.0987C33.3893 26.2258 34.4234 27.9166 33.3894 30.8284C32.1672 34.4917 29.159 34.7735 25.1167 34.022L24.1766 37.9671L21.8264 37.4035L22.7665 33.4584C22.2024 33.3645 21.6384 33.1766 20.9803 33.0827L20.0403 37.0278L17.6901 36.4642L18.6301 32.5191L16.938 32.1434L13.7417 31.392L14.8698 28.7619L16.562 29.1377C17.22 29.2316 17.5021 28.8559 17.6901 28.5741L19.1942 22.3747H19.4762C19.3822 22.2807 19.1942 22.2807 19.1942 22.2807L20.3223 17.7721C20.3223 17.2085 20.2283 16.6449 19.1942 16.3631C19.2882 16.3631 17.5021 15.9874 17.5021 15.9874L18.0661 13.4513L21.2624 14.2967L22.7665 14.6724L23.8946 10.7273L26.2448 11.2909L25.3047 15.0481C25.9627 15.1421 26.7148 15.3299 27.2789 15.4238L28.2189 11.6666L30.5691 12.2302L29.629 16.1753C32.5433 17.3964 34.7995 18.8993 34.4234 21.7172Z" fill="#F7931A"/>
</svg>
