<svg width="51" height="51" viewBox="0 0 51 51" fill="none" xmlns="http://www.w3.org/2000/svg">
<circle cx="25.4375" cy="25.1875" r="25.1875" fill="white"/>
<path d="M42.604 38.1496C36.5085 45.8599 25.5368 48.6807 16.1592 44.6375C6.78162 40.5943 1.90528 30.4394 3.96835 20.2845C6.12519 10.9758 14.565 3.73567 24.3177 3.26553C34.5393 2.88942 43.448 9.3773 46.2612 19.0621C47.9492 29.217 44.667 35.3288 42.604 38.1496ZM39.0405 33.7304C39.0405 33.7304 38.3841 33.3542 38.1027 32.8841C37.9152 32.414 37.9152 31.4737 37.9152 31.4737L37.8214 18.4979C37.8214 18.4979 37.9152 18.0278 38.3841 17.7457C38.8529 17.4636 39.3218 17.3696 39.3218 17.3696C39.3218 17.3696 38.1965 16.7114 36.7899 17.1816C35.0081 17.7457 34.633 19.5322 34.633 19.5322C34.633 19.5322 32.1949 27.0544 30.2256 30.6275C28.1625 26.5843 25.7243 19.4382 25.7243 19.4382C25.7243 19.4382 24.7866 16.5234 21.5982 17.2756C21.7857 17.4636 22.2546 17.6517 22.4422 18.0278C22.7235 18.592 22.6297 19.3442 22.6297 19.3442V31.4737C22.6297 31.7558 22.3484 32.508 21.9733 32.8841C21.4106 33.3542 20.7542 33.5423 20.7542 33.5423H25.6306C25.6306 33.5423 24.7866 33.1662 24.599 32.8841C24.2239 32.3199 24.2239 31.6618 24.2239 31.6618L24.3177 20.3785C24.3177 20.3785 28.2563 29.217 30.3193 33.7304C32.3824 29.6872 36.4148 19.6263 36.4148 19.6263V31.8498C36.4148 31.8498 36.4148 32.602 36.0397 33.0722C35.6646 33.6363 35.0081 33.7304 35.0081 33.7304H39.0405ZM8.93846 17.4636C10.9078 17.8398 11.0015 18.686 11.0015 18.686V25.8321C11.7517 25.8321 12.4082 25.8321 13.0646 25.644V18.592C13.0646 18.592 16.9094 18.4979 17.7534 19.8143C19.5351 22.4471 18.316 25.55 15.5028 26.3962C13.3459 26.9604 11.7517 26.9604 9.03224 27.2425C12.3144 27.6186 14.7526 27.6186 17.1907 26.8664C19.6289 26.0201 21.2231 24.4217 20.848 21.9769C20.4729 19.5322 18.7849 17.9338 16.3468 17.5577C13.8148 17.4636 11.3766 17.4636 8.93846 17.4636ZM15.0339 33.7304C15.0339 33.7304 13.8148 33.5423 13.3459 33.1662C12.9708 32.9781 12.9708 32.508 12.9708 32.508V28.3708C12.2206 28.4648 11.4704 28.4648 10.9078 28.3708L10.814 32.602C10.814 32.602 10.814 32.9781 10.1576 33.2602C9.50112 33.5423 8.84469 33.6363 8.84469 33.6363H15.0339V33.7304Z" fill="#CC302C"/>
</svg>
