<svg width="51" height="51" viewBox="0 0 51 51" fill="none" xmlns="http://www.w3.org/2000/svg">
<circle cx="25.6875" cy="25.1875" r="25.1875" fill="white"/>
<path d="M25.3638 3.25C13.3907 3.25 3.75 12.4034 3.75 23.7713C3.75 25.9859 4.06099 28.2004 4.83847 30.2673H11.3693V12.9939L25.3638 26.2811L39.3584 12.9939V30.2673H45.8892C46.6667 28.2004 46.9777 25.9859 46.9777 23.7713C46.9777 12.4034 37.337 3.25 25.3638 3.25Z" fill="#FF6600"/>
<path d="M16.2826 23.0623V35.351H7.35254C10.9851 41.9935 17.6448 46.4772 25.3641 46.4772C32.9319 46.4772 39.5917 41.9935 43.3756 35.351H34.4455V23.0623L25.3641 33.0261L16.2826 23.0623Z" fill="#4C4C4C"/>
</svg>
