<svg xmlns="http://www.w3.org/2000/svg" width="18.062" height="24.72"><path d="M1.679 1.47c-1.016.76-3.894 4.88 1.492 14.21 5.674 9.83 11.073 9.42 12.156 8.75l-3.826-6.44c-.9.53-1.666-.34-3.072-2.24-.024-.02-2.744-4.58-2.753-4.64-.563-1.23-1.016-2.48-.071-3.04zm15.982 21.61a.837.837 0 00.292-1.15s-2.988-5.02-2.989-5.03a.844.844 0 00-1.143-.29l-1.83 1.08 3.836 6.46s1.831-1.07 1.829-1.07zM7.936 6.7a.827.827 0 00.295-1.14S5.158.39 5.156.39A.835.835 0 004.013.1l-1.83 1.08 3.921 6.6 1.831-1.07V6.7z" fill-rule="evenodd"/></svg>