<svg width="60" height="60" viewBox="0 0 60 60" fill="none" xmlns="http://www.w3.org/2000/svg">
<path d="M42.8906 15.9375H35.2883C34.6412 15.9375 34.1164 16.4621 34.1164 17.1094C34.1164 17.7566 34.6412 18.2812 35.2883 18.2812H41.7188V41.7188H18.2812V18.2812H24.7414C25.3886 18.2812 25.9133 17.7566 25.9133 17.1094C25.9133 16.4621 25.3886 15.9375 24.7414 15.9375H17.1094C16.4623 15.9375 15.9375 16.4621 15.9375 17.1094V42.8906C15.9375 43.5377 16.4623 44.0625 17.1094 44.0625H42.8906C43.5377 44.0625 44.0625 43.5377 44.0625 42.8906V17.1094C44.0625 16.4621 43.5377 15.9375 42.8906 15.9375Z" fill="white"/>
<path d="M21.0938 22.2656V27.4219C21.0938 28.0691 21.6185 28.5938 22.2656 28.5938H27.4219C28.069 28.5938 28.5938 28.0691 28.5938 27.4219V22.2656C28.5938 21.6184 28.069 21.0938 27.4219 21.0938H22.2656C21.6185 21.0938 21.0938 21.6184 21.0938 22.2656ZM23.4375 23.4375H26.25V26.25H23.4375V23.4375Z" fill="white"/>
<path d="M32.5781 23.4375H37.7344C38.3815 23.4375 38.9062 22.9129 38.9062 22.2656C38.9062 21.6184 38.3815 21.0938 37.7344 21.0938H32.5781C31.931 21.0938 31.4062 21.6184 31.4062 22.2656C31.4062 22.9129 31.931 23.4375 32.5781 23.4375Z" fill="white"/>
<path d="M32.5781 28.5938H37.7344C38.3815 28.5938 38.9062 28.0691 38.9062 27.4219C38.9062 26.7746 38.3815 26.25 37.7344 26.25H32.5781C31.931 26.25 31.4062 26.7746 31.4062 27.4219C31.4062 28.0691 31.931 28.5938 32.5781 28.5938Z" fill="white"/>
<path d="M32.5781 38.9062H37.7344C38.3815 38.9062 38.9062 38.3815 38.9062 37.7344V32.5781C38.9062 31.931 38.3815 31.4062 37.7344 31.4062C37.0873 31.4062 36.5625 31.931 36.5625 32.5781V36.5625H32.5781C31.931 36.5625 31.4062 37.0873 31.4062 37.7344C31.4062 38.3815 31.931 38.9062 32.5781 38.9062Z" fill="white"/>
<path d="M32.5781 33.75C32.8863 33.75 33.1887 33.6246 33.4065 33.4065C33.6246 33.1887 33.75 32.8863 33.75 32.5781C33.75 32.2699 33.6246 31.9676 33.4065 31.7496C33.1887 31.5316 32.8863 31.4062 32.5781 31.4062C32.2699 31.4062 31.9676 31.5315 31.7496 31.7496C31.5316 31.9677 31.4062 32.2699 31.4062 32.5781C31.4062 32.8863 31.5315 33.1887 31.7496 33.4065C31.9676 33.6246 32.2699 33.75 32.5781 33.75Z" fill="white"/>
<path d="M27.4219 36.5625H22.2656C21.6185 36.5625 21.0938 37.0873 21.0938 37.7344C21.0938 38.3815 21.6185 38.9062 22.2656 38.9062H27.4219C28.069 38.9062 28.5938 38.3815 28.5938 37.7344C28.5938 37.0873 28.069 36.5625 27.4219 36.5625Z" fill="white"/>
<path d="M27.4219 31.4062H22.2656C21.6185 31.4062 21.0938 31.931 21.0938 32.5781C21.0938 33.2252 21.6185 33.75 22.2656 33.75H27.4219C28.069 33.75 28.5938 33.2252 28.5938 32.5781C28.5938 31.931 28.069 31.4062 27.4219 31.4062Z" fill="white"/>
<path d="M58.8281 31.1719C59.4752 31.1719 60 30.6471 60 30C60 29.3528 59.4752 28.8281 58.8281 28.8281H49.6875V24.6094H54.1406C54.7877 24.6094 55.3125 24.0847 55.3125 23.4375C55.3125 22.7903 54.7877 22.2656 54.1406 22.2656H49.6875V18.0469H58.8281C59.4752 18.0469 60 17.5222 60 16.875C60 16.2278 59.4752 15.7031 58.8281 15.7031H49.6177C49.2089 12.9628 47.0372 10.7911 44.2969 10.3823V1.17188C44.2969 0.524648 43.7721 0 43.125 0C42.4779 0 41.9531 0.524648 41.9531 1.17188V10.3125H37.7344V5.85938C37.7344 5.21215 37.2096 4.6875 36.5625 4.6875C35.9154 4.6875 35.3906 5.21215 35.3906 5.85938V10.3125H31.1719V1.17188C31.1719 0.524648 30.6471 0 30 0C29.3529 0 28.8281 0.524648 28.8281 1.17188V10.3125H24.6094V5.85938C24.6094 5.21215 24.0846 4.6875 23.4375 4.6875C22.7904 4.6875 22.2656 5.21215 22.2656 5.85938V10.3125H18.0469V1.17188C18.0469 0.524648 17.5221 0 16.875 0C16.2279 0 15.7031 0.524648 15.7031 1.17188V10.3823C12.9628 10.7911 10.7911 12.9628 10.3823 15.7031H1.17188C0.524766 15.7031 0 16.2278 0 16.875C0 17.5222 0.524766 18.0469 1.17188 18.0469H10.3125V22.2656H5.85938C5.21227 22.2656 4.6875 22.7903 4.6875 23.4375C4.6875 24.0847 5.21227 24.6094 5.85938 24.6094H10.3125V28.8281H1.17188C0.524766 28.8281 0 29.3528 0 30C0 30.6471 0.524766 31.1719 1.17188 31.1719H10.3125V35.3906H5.85938C5.21227 35.3906 4.6875 35.9154 4.6875 36.5625C4.6875 37.2096 5.21227 37.7344 5.85938 37.7344H10.3125V41.9531H1.17188C0.524766 41.9531 0 42.4779 0 43.125C0 43.7721 0.524766 44.2969 1.17188 44.2969H10.3823C10.7911 47.0372 12.9628 49.2089 15.7031 49.6177V58.8281C15.7031 59.4752 16.2279 60 16.875 60C17.5221 60 18.0469 59.4752 18.0469 58.8281V49.6875H22.2656V54.1406C22.2656 54.7877 22.7904 55.3125 23.4375 55.3125C24.0846 55.3125 24.6094 54.7877 24.6094 54.1406V49.6875H28.8281V58.8281C28.8281 59.4752 29.3529 60 30 60C30.6471 60 31.1719 59.4752 31.1719 58.8281V49.6875H35.3906V54.1406C35.3906 54.7877 35.9154 55.3125 36.5625 55.3125C37.2096 55.3125 37.7344 54.7877 37.7344 54.1406V49.6875H41.9531V58.8281C41.9531 59.4752 42.4779 60 43.125 60C43.7721 60 44.2969 59.4752 44.2969 58.8281V49.6177C47.0371 49.2089 49.2089 47.0372 49.6177 44.2969H58.8281C59.4752 44.2969 60 43.7721 60 43.125C60 42.4779 59.4752 41.9531 58.8281 41.9531H49.6875V37.7344H54.1406C54.7877 37.7344 55.3125 37.2096 55.3125 36.5625C55.3125 35.9154 54.7877 35.3906 54.1406 35.3906H49.6875V31.1719H58.8281ZM47.3438 43.3594C47.3438 45.5564 45.5564 47.3438 43.3594 47.3438H16.6406C14.4436 47.3438 12.6562 45.5564 12.6562 43.3594V16.6406C12.6562 14.4436 14.4436 12.6562 16.6406 12.6562H43.3594C45.5564 12.6562 47.3438 14.4436 47.3438 16.6406V43.3594Z" fill="white"/>
<path d="M30.0153 18.2812C30.3235 18.2812 30.6258 18.1559 30.8438 17.9379C31.0616 17.7199 31.1871 17.4176 31.1871 17.1094C31.1871 16.8012 31.0617 16.4988 30.8438 16.2809C30.6258 16.0629 30.3235 15.9375 30.0153 15.9375C29.7059 15.9375 29.4047 16.0629 29.1867 16.2809C28.9676 16.4988 28.8434 16.8012 28.8434 17.1094C28.8434 17.4176 28.9676 17.7199 29.1867 17.9379C29.4047 18.1559 29.7059 18.2812 30.0153 18.2812Z" fill="white"/>
</svg>
