<svg width="59" height="59" viewBox="0 0 59 59" fill="none" xmlns="http://www.w3.org/2000/svg">
<path d="M6.86633 6.87976V57.9874C6.86633 58.5303 7.30639 58.9703 7.84928 58.9703H45.1972C45.7397 58.9703 46.1798 58.5303 46.1798 57.9874V16.7084C46.1798 16.6866 46.1692 16.6679 46.1672 16.6465C46.1624 16.5603 46.1454 16.4752 46.117 16.3939C46.1061 16.3623 46.0984 16.3319 46.0846 16.3012C46.0369 16.1943 45.9705 16.0967 45.8879 16.0133L36.0596 6.18506C35.9762 6.10206 35.8783 6.03567 35.7706 5.98831C35.741 5.97576 35.7111 5.96523 35.6803 5.95592C35.5981 5.92758 35.5127 5.91058 35.4256 5.90491C35.409 5.90774 35.3896 5.89722 35.369 5.89722H7.84928C7.30639 5.89722 6.86633 6.33687 6.86633 6.87976ZM42.8245 15.7255H36.3515V9.25252L42.8245 15.7255ZM8.83182 7.86271H34.386V16.7084C34.386 17.2509 34.8261 17.691 35.3686 17.691H44.2143V57.0048H8.83182V7.86271Z" fill="white"/>
<path d="M48.1456 51.1076V53.0731H51.0941C51.637 53.0731 52.077 52.6334 52.077 52.0905V0.982947C52.077 0.440059 51.637 0 51.0941 0H13.7461C13.2032 0 12.7632 0.440059 12.7632 0.982947V3.93138H14.7291V1.96549H50.1111V51.1076H48.1456Z" fill="white"/>
<path d="M14.7291 19.657H38.317V21.6225H14.7291V19.657Z" fill="white"/>
<path d="M14.7291 13.7595H22.5918V15.7254H14.7291V13.7595Z" fill="white"/>
<path d="M14.7291 25.5537H30.4546V27.5196H14.7291V25.5537Z" fill="white"/>
<path d="M32.4201 25.5537H38.317V27.5196H32.4201V25.5537Z" fill="white"/>
<path d="M14.7291 31.4507H38.317V33.4166H14.7291V31.4507Z" fill="white"/>
<path d="M14.7291 43.2449H38.317V45.2108H14.7291V43.2449Z" fill="white"/>
<path d="M23.5744 37.3479H38.317V39.3134H23.5744V37.3479Z" fill="white"/>
<path d="M14.7291 37.3479H21.6089V39.3134H14.7291V37.3479Z" fill="white"/>
<path d="M14.7291 49.1421H18.6604V51.1076H14.7291V49.1421Z" fill="white"/>
<path d="M20.6259 49.1421H38.3169V51.1076H20.6259V49.1421Z" fill="white"/>
</svg>
