<svg width="52" height="52" viewBox="0 0 52 52" fill="none" xmlns="http://www.w3.org/2000/svg">
<g clip-path="url(#clip0)">
<path d="M29.0468 38.7969C28.4862 38.7969 28.0312 39.2519 28.0312 39.8125C28.0312 40.3731 28.4862 40.8281 29.0468 40.8281C29.6074 40.8281 30.0624 40.3731 30.0624 39.8125C30.0624 39.2519 29.6074 38.7969 29.0468 38.7969Z" fill="white"/>
<path d="M43.3206 42.8608L42.4883 40.3638C44.9589 37.721 46.3124 34.3043 46.3124 30.6719C46.3124 24.2751 42.0406 18.6827 36.0331 16.9344L38.5226 12.6222C38.803 12.1365 38.6365 11.5154 38.1508 11.2349L37.2712 10.7271L38.2869 8.96802L39.1664 9.47583C39.651 9.75564 40.2726 9.591 40.5537 9.10411L42.585 5.58599C42.8653 5.10053 42.6988 4.47907 42.2133 4.19865L35.177 0.136159C34.6915 -0.144153 34.0701 0.0222062 33.7897 0.507877L31.7584 4.026C31.4781 4.51146 31.6445 5.13292 32.1302 5.41334L33.0097 5.92115L31.9941 7.68021L31.1145 7.1724C30.6292 6.89209 30.0075 7.05844 29.7272 7.54412L22.11 20.738L21.2305 20.2302C20.7452 19.9497 20.1236 20.1162 19.8431 20.6019L17.8119 24.1201C17.5314 24.6059 17.6978 25.2269 18.1836 25.5074L28.738 31.6012C29.2204 31.8799 29.8432 31.7181 30.1253 31.2295L32.1566 27.7112C32.4371 27.2255 32.2706 26.6044 31.7848 26.3239L30.9053 25.8161L31.6553 24.517C35.1964 24.2632 38.1874 27.1069 38.1874 30.6719C38.1874 31.7588 37.9072 32.7965 37.3729 33.717C36.0545 33.0516 34.5985 32.7031 33.1093 32.7031C30.9821 32.7031 28.9168 33.4222 27.2499 34.7344H17.3387C15.4032 34.7344 13.6628 35.8099 12.7962 37.5417L11.8883 39.3586C11.731 39.6735 11.7478 40.0472 11.9329 40.3466C12.1179 40.646 12.4448 40.8282 12.7968 40.8282H23.5755L22.8983 42.8595H8.73436V42.8594C7.05432 42.8594 5.68749 44.2262 5.68749 45.9062V50.9844C5.68749 51.5452 6.14219 52 6.70312 52H45.2968C45.8577 52 46.3124 51.5452 46.3124 50.9844V45.9062C46.3124 44.2447 44.9752 42.8903 43.3206 42.8608ZM35.041 2.40303L40.3182 5.4499L39.3026 7.20886C38.1278 6.53062 35.396 4.95326 34.0254 4.16199L35.041 2.40303ZM34.7689 6.93677L36.5279 7.9524L35.5123 9.71146L33.7533 8.69583L34.7689 6.93677ZM28.8742 29.3343L20.0789 24.2562L21.0945 22.4971C22.0281 23.0361 27.7759 26.3548 29.01 27.0673C29.0101 27.0674 29.0102 27.0674 29.0104 27.0675C29.0105 27.0675 29.0106 27.0676 29.0107 27.0676L29.8898 27.5752L28.8742 29.3343ZM29.1463 24.8005L23.8691 21.7536L30.9785 9.43927C33.0454 10.6326 34.2581 11.3328 34.9292 11.7203C34.7757 11.6316 34.6555 11.5622 34.6416 11.5542C34.6671 11.5689 35.064 11.7981 36.2557 12.4861C35.2061 14.3043 30.0359 23.2595 29.1463 24.8005ZM32.8176 22.504L34.9825 18.7542C40.4112 20.0753 44.2812 24.9775 44.2812 30.6719C44.2812 33.4286 43.3709 36.0407 41.6915 38.1759C41.0858 36.8785 40.1899 35.7295 39.079 34.825C39.8272 33.5743 40.2187 32.1572 40.2187 30.6719C40.2187 26.3956 36.9597 22.8752 32.8176 22.504ZM33.1093 34.7344C36.3485 34.7344 39.1659 36.8203 40.1661 39.8203L41.1791 42.8594H25.0397L26.0525 39.8208C27.0739 36.7571 29.9395 34.7344 33.1093 34.7344ZM14.4398 38.7969C14.5101 38.7146 15.1568 36.7555 17.3388 36.7555H25.3368C24.8988 37.385 24.5377 38.0779 24.263 38.7969H14.4398ZM44.2812 49.9687H7.71874V45.9062C7.71874 45.3462 8.17435 44.8906 8.73436 44.8906C9.57022 44.8906 41.5387 44.8906 43.2655 44.8906C43.8257 44.8906 44.2812 45.3462 44.2812 45.9062V49.9687Z" fill="white"/>
<path d="M35.0529 11.7917C35.1143 11.8272 35.1705 11.8596 35.2213 11.8889C35.1653 11.8566 35.1084 11.8237 35.0529 11.7917Z" fill="white"/>
<path d="M35.0462 11.7878C35.0488 11.7894 35.0514 11.7908 35.054 11.7923C35.0513 11.7908 35.0488 11.7894 35.0462 11.7878Z" fill="white"/>
<path d="M34.9292 11.7202C34.9326 11.7222 34.936 11.7241 34.9394 11.7261C34.936 11.7241 34.9326 11.7221 34.9292 11.7202Z" fill="white"/>
<path d="M34.9391 11.7261C34.9763 11.7476 35.0122 11.7683 35.0461 11.7879C35.0094 11.7667 34.9735 11.7459 34.9391 11.7261Z" fill="white"/>
<path d="M35.2213 11.8889C35.2309 11.8945 35.2405 11.8999 35.25 11.9054C35.2404 11.8999 35.2312 11.8946 35.2213 11.8889Z" fill="white"/>
<path d="M35.6429 12.1323C35.6465 12.1344 35.6495 12.1362 35.652 12.1376C35.6496 12.1362 35.6466 12.1344 35.6429 12.1323Z" fill="white"/>
<path d="M35.6174 12.1174C35.6284 12.1238 35.6371 12.1288 35.6437 12.1326C35.6369 12.1286 35.6282 12.1236 35.6174 12.1174Z" fill="white"/>
<path d="M35.6517 12.1375C35.663 12.144 35.6622 12.1436 35.6517 12.1375V12.1375Z" fill="white"/>
<path d="M35.4752 12.0354C35.4827 12.0397 35.49 12.044 35.497 12.048C35.4899 12.0439 35.4827 12.0396 35.4752 12.0354Z" fill="white"/>
<path d="M35.4971 12.0481C35.5473 12.077 35.589 12.1011 35.6174 12.1176C35.5913 12.1024 35.552 12.0798 35.4971 12.0481Z" fill="white"/>
<path d="M35.4423 12.0166C35.4537 12.0232 35.4649 12.0296 35.4757 12.0359C35.4651 12.0297 35.454 12.0233 35.4423 12.0166Z" fill="white"/>
<path d="M35.2494 11.905C35.3254 11.9489 35.3894 11.9858 35.4423 12.0163C35.384 11.9827 35.3181 11.9446 35.2494 11.905Z" fill="white"/>
<path d="M37.1718 38.7969H33.1093C32.5484 38.7969 32.0937 39.2517 32.0937 39.8125C32.0937 40.3733 32.5484 40.8281 33.1093 40.8281H37.1718C37.7327 40.8281 38.1874 40.3733 38.1874 39.8125C38.1874 39.2517 37.7327 38.7969 37.1718 38.7969Z" fill="white"/>
</g>
<defs>
<clipPath id="clip0">
<rect width="52" height="52" fill="white"/>
</clipPath>
</defs>
</svg>
