<svg width="53" height="57" viewBox="0 0 53 57" fill="none" xmlns="http://www.w3.org/2000/svg">
<path d="M52.2427 47.4118L48.7454 35.1709L47.6599 31.1932C47.1068 29.1767 45.9075 27.3973 44.2459 26.1279C42.5842 24.8586 40.552 24.1694 38.461 24.1661H33.0541L31.8945 23.5864V20.6794C32.6908 19.7781 33.2584 18.6982 33.5492 17.5312C34.2798 17.3892 34.9517 17.033 35.4793 16.508C36.007 15.9831 36.3665 15.313 36.5122 14.5831C36.6579 13.8532 36.5832 13.0964 36.2976 12.4091C36.012 11.7218 35.5283 11.135 34.9082 10.7233C35.0117 10.1271 34.9425 9.51373 34.7088 8.95555V5.40471C34.7074 4.16118 34.2128 2.96898 33.3334 2.08967C32.4541 1.21036 31.2619 0.715752 30.0184 0.714355H22.5138C21.2703 0.715752 20.0781 1.21036 19.1988 2.08967C18.3195 2.96898 17.8249 4.16118 17.8235 5.40471V8.95555C17.5897 9.51403 17.5205 10.1278 17.6241 10.7243C17.4163 10.8618 17.2226 11.0195 17.0456 11.195C16.5645 11.6764 16.2235 12.2797 16.059 12.9402C15.8945 13.6006 15.9127 14.2934 16.1118 14.9442C16.3108 15.5951 16.6831 16.1796 17.1888 16.6351C17.6945 17.0906 18.3146 17.4 18.9827 17.5301C19.2734 18.6976 19.8411 19.7778 20.6377 20.6794V23.5864L19.4781 24.1661H14.0712C11.9803 24.1699 9.94798 24.8572 8.284 26.1233C6.61715 27.389 5.4173 29.172 4.87247 31.1928L3.78689 35.1709L0.28929 47.4127C-0.0304661 48.532 -0.0860281 49.7102 0.126979 50.8546C0.339987 51.999 0.815748 53.0783 1.5168 54.0075C2.21785 54.9368 3.12505 55.6906 4.16697 56.2097C5.20889 56.7287 6.35707 56.9988 7.52111 56.9986H17.2529C17.9016 56.9979 18.5235 56.7399 18.9822 56.2812C19.4409 55.8225 19.6989 55.2006 19.6996 54.5519V50.0646C19.6989 49.4159 19.4409 48.794 18.9822 48.3353C18.5235 47.8766 17.9016 47.6186 17.2529 47.6179H13.3394L13.6129 46.2501C13.689 45.873 13.6856 45.4842 13.603 45.1085C13.5204 44.7328 13.3604 44.3785 13.1331 44.0681V40.1133H22.5138V44.8037C22.5138 45.0525 22.6127 45.2911 22.7886 45.467C22.9645 45.6429 23.2031 45.7418 23.4519 45.7418H29.0803C29.3291 45.7418 29.5677 45.6429 29.7437 45.467C29.9196 45.2911 30.0184 45.0525 30.0184 44.8037V40.1133H39.3991V44.0702C39.1721 44.3805 39.0122 44.7345 38.9294 45.1099C38.8466 45.4853 38.8429 45.8738 38.9184 46.2507L39.1927 47.6179H35.2798C34.631 47.6186 34.009 47.8767 33.5502 48.3355C33.0914 48.7943 32.8333 49.4163 32.8326 50.0651V54.5514C32.8335 54.7439 32.8571 54.9356 32.903 55.1225H21.5758V56.9986H45.0111C46.1752 56.9987 47.3234 56.7285 48.3654 56.2094C49.4073 55.6902 50.3145 54.9363 51.0155 54.007C51.7165 53.0776 52.1923 51.9982 52.4052 50.8538C52.6182 49.7093 52.5625 48.5311 52.2427 47.4118ZM33.7707 12.6732C33.8668 12.5931 33.9581 12.5075 34.0443 12.4168C34.2746 12.6104 34.4548 12.8568 34.5695 13.135C34.6843 13.4132 34.7301 13.715 34.7033 14.0147C34.6764 14.3145 34.5776 14.6033 34.4153 14.8567C34.2529 15.11 34.0318 15.3205 33.7707 15.4701V12.6732ZM18.7616 15.4696C18.5125 15.3261 18.2998 15.1272 18.1399 14.8883C17.9801 14.6494 17.8773 14.377 17.8396 14.092C17.802 13.807 17.8304 13.5172 17.9226 13.245C18.0149 12.9728 18.1686 12.7254 18.3718 12.5221C18.4088 12.4853 18.4488 12.4517 18.489 12.4178C18.5749 12.5077 18.6659 12.5926 18.7616 12.6719V15.4696ZM33.7707 26.0423H38.461C40.1406 26.0449 41.773 26.5985 43.1077 27.6181C44.4424 28.6377 45.4057 30.067 45.8499 31.6868L46.6845 34.7453L41.2753 36.0977V28.8565C41.2753 28.6077 41.1764 28.3691 41.0005 28.1932C40.8246 28.0173 40.586 27.9184 40.3372 27.9184H33.7707V26.0423ZM31.8945 15.7235C31.8945 17.2162 31.3016 18.6479 30.246 19.7034C29.1905 20.7589 27.7589 21.3519 26.2661 21.3519C24.7734 21.3519 23.3418 20.7589 22.2862 19.7034C21.2307 18.6479 20.6377 17.2162 20.6377 15.7235V13.3946C20.6873 13.3968 20.7368 13.3991 20.7867 13.3991C20.911 13.399 21.0351 13.3921 21.1586 13.3783L23.3539 13.1344C24.6603 12.9893 27.872 12.9893 29.1784 13.1344L31.3737 13.3783C31.5466 13.3971 31.7208 13.4022 31.8945 13.3938V15.7235ZM19.6996 5.40471C19.7005 4.6586 19.9973 3.9433 20.5248 3.41572C21.0524 2.88814 21.7677 2.59137 22.5138 2.5905H30.0184C30.7645 2.59137 31.4798 2.88814 32.0074 3.41572C32.535 3.9433 32.8317 4.6586 32.8326 5.40471V8.21892H30.9565V5.40471C30.9565 5.15592 30.8576 4.91732 30.6817 4.74139C30.5058 4.56547 30.2672 4.46664 30.0184 4.46664H22.5138C22.265 4.46664 22.0264 4.56547 21.8505 4.74139C21.6746 4.91732 21.5758 5.15592 21.5758 5.40471V8.21892H19.6996V5.40471ZM29.0803 6.34278V8.21892H23.4519V6.34278H29.0803ZM19.7003 10.9466C19.5249 10.6987 19.4396 10.3982 19.4585 10.0951H33.0737C33.0851 10.2908 33.0537 10.4867 32.9816 10.669C32.9096 10.8513 32.7986 11.0158 32.6565 11.1509C32.5144 11.2859 32.3445 11.3884 32.1588 11.4511C31.973 11.5138 31.7758 11.5352 31.5809 11.5139L29.3857 11.27C27.9279 11.1081 24.6043 11.1081 23.1466 11.27L20.9514 11.5139C20.7109 11.5425 20.4672 11.5047 20.2467 11.4047C20.0262 11.3047 19.8373 11.1463 19.7003 10.9466ZM17.2529 49.4941C17.4042 49.4942 17.5492 49.5544 17.6562 49.6614C17.7631 49.7683 17.8233 49.9134 17.8235 50.0646V54.5519C17.8233 54.7032 17.7631 54.8482 17.6562 54.9552C17.5492 55.0621 17.4042 55.1223 17.2529 55.1225H7.52111C6.64741 55.1226 5.78561 54.9198 5.00358 54.5302C4.22155 54.1406 3.54065 53.5748 3.0145 52.8772C2.48835 52.1797 2.13131 51.3696 1.9715 50.5106C1.81168 49.6517 1.85347 48.7673 2.09355 47.9272L5.34327 36.5531L10.9848 37.9636L9.11607 43.5708C8.62616 43.976 8.29045 44.5373 8.16522 45.1606L7.67367 47.6179H5.62856V49.4941H8.44277C8.65964 49.4941 8.86981 49.4189 9.03752 49.2815C9.20524 49.144 9.32013 48.9526 9.36267 48.74L10.0049 45.5286C10.0462 45.3244 10.1567 45.1408 10.3178 45.0087C10.4789 44.8766 10.6807 44.8042 10.889 44.8037C11.0225 44.8037 11.1543 44.8333 11.2749 44.8903C11.3955 44.9474 11.5019 45.0305 11.5865 45.1338C11.6711 45.237 11.7317 45.3577 11.764 45.4871C11.7963 45.6166 11.7994 45.7516 11.7732 45.8825L11.2752 48.3724C11.248 48.5084 11.2514 48.6488 11.285 48.7835C11.3187 48.9181 11.3817 49.0435 11.4697 49.1508C11.5577 49.2581 11.6684 49.3446 11.7938 49.4039C11.9193 49.4633 12.0563 49.4941 12.1951 49.4941H17.2529ZM12.1951 27.9184C11.9463 27.9184 11.7077 28.0173 11.5317 28.1932C11.3558 28.3691 11.257 28.6077 11.257 28.8565V36.0977L5.84771 34.7453L6.68236 31.6867C7.12416 30.0655 8.08687 28.6347 9.4221 27.6147C10.7573 26.5947 12.391 26.0422 14.0712 26.0423H18.7616V27.9184H12.1951ZM22.5138 38.2372H13.1331V29.7946H22.5138V38.2372ZM20.6377 27.9184V25.6839L21.2783 25.3637L23.1031 27.9184H20.6377ZM28.1423 43.8656H24.39V40.1133H28.1423V43.8656ZM28.1423 38.2372H24.39V29.7946H28.1423V38.2372ZM27.1236 27.9184H25.4086L22.5138 23.8656V22.2185C23.6538 22.8798 24.9482 23.2281 26.2661 23.2281C27.584 23.2281 28.8785 22.8798 30.0184 22.2185V23.8656L27.1236 27.9184ZM29.4292 27.9184L31.254 25.3637L31.8945 25.6839V27.9184H29.4292ZM30.0184 38.2372V29.7946H39.3991V38.2372H30.0184ZM49.0026 53.4691C48.4797 53.9949 47.8576 54.4118 47.1725 54.6956C46.4873 54.9794 45.7527 55.1245 45.0111 55.1225H35.2798C35.1284 55.1223 34.9833 55.0621 34.8762 54.955C34.7692 54.848 34.7089 54.7028 34.7088 54.5514V50.0651C34.7089 49.9137 34.7692 49.7686 34.8762 49.6615C34.9833 49.5545 35.1284 49.4942 35.2798 49.4941H40.3372C40.476 49.4941 40.6131 49.4633 40.7385 49.4039C40.864 49.3445 40.9747 49.258 41.0627 49.1507C41.1507 49.0433 41.2138 48.9178 41.2474 48.7831C41.281 48.6485 41.2843 48.508 41.2571 48.3719L40.7586 45.8825C40.7374 45.7773 40.735 45.6692 40.7517 45.5632C40.7862 45.3514 40.8948 45.1588 41.0582 45.0197C41.2215 44.8806 41.429 44.804 41.6436 44.8037C41.8527 44.8041 42.0553 44.8769 42.2168 45.0097C42.378 45.1407 42.4878 45.3243 42.527 45.5282L43.1696 48.74C43.2121 48.9526 43.327 49.144 43.4947 49.2815C43.6624 49.4189 43.8726 49.4941 44.0895 49.4941H46.9037V47.6179H44.8585L44.3669 45.1613C44.2424 44.5361 43.9061 43.9729 43.4148 43.5666L41.5474 37.9636L47.189 36.5531L50.4386 47.9272C50.715 48.8951 50.7277 49.9193 50.4752 50.8937C50.2227 51.8681 49.7143 52.7573 49.0026 53.4691Z" fill="white"/>
</svg>
