<svg width="61" height="61" viewBox="0 0 61 61" fill="none" xmlns="http://www.w3.org/2000/svg">
<path d="M56.2344 38.125C56.2344 38.3778 56.134 38.6202 55.9552 38.799C55.7765 38.9777 55.534 39.0781 55.2813 39.0781C54.5229 39.0781 53.7956 39.3794 53.2594 39.9156C52.7231 40.4519 52.4219 41.1791 52.4219 41.9375C52.4219 42.1903 52.3215 42.4327 52.1427 42.6115C51.964 42.7902 51.7215 42.8906 51.4687 42.8906L47.6562 42.8906L47.6562 44.7969L51.4687 44.7969C52.2271 44.7969 52.9544 44.4956 53.4906 43.9594C54.0269 43.4231 54.3281 42.6959 54.3281 41.9375C54.3281 41.6847 54.4285 41.4423 54.6073 41.2635C54.786 41.0848 55.0285 40.9844 55.2813 40.9844C56.0396 40.9844 56.7669 40.6831 57.3031 40.1469C57.8394 39.6106 58.1406 38.8834 58.1406 38.125L58.1406 35.2656L56.2344 35.2656L56.2344 38.125Z" fill="white"/>
<path d="M51.4687 39.5547C51.4687 39.4283 51.519 39.3071 51.6083 39.2177C51.6977 39.1283 51.8189 39.0781 51.9453 39.0781C52.5773 39.0781 53.1834 38.8271 53.6302 38.3802C54.0771 37.9334 54.3281 37.3273 54.3281 36.6953L54.3281 35.2656L52.4219 35.2656L52.4219 36.6953C52.4219 36.8217 52.3717 36.9429 52.2823 37.0323C52.1929 37.1217 52.0717 37.1719 51.9453 37.1719C51.6324 37.1719 51.3225 37.2335 51.0334 37.3533C50.7444 37.473 50.4817 37.6485 50.2604 37.8698C50.0391 38.091 49.8636 38.3537 49.7439 38.6428C49.6241 38.9319 49.5625 39.2418 49.5625 39.5547C49.5625 39.6811 49.5123 39.8023 49.4229 39.8917C49.3335 39.981 49.2123 40.0312 49.0859 40.0312L43.8437 40.0312L43.8437 41.9375L49.0859 41.9375C49.7179 41.9375 50.324 41.6865 50.7708 41.2396C51.2177 40.7927 51.4687 40.1866 51.4687 39.5547Z" fill="white"/>
<path d="M45.75 44.7969L41.9375 44.7969L41.9375 42.8906L45.75 42.8906L45.75 44.7969Z" fill="white"/>
<path d="M25.2578 16.2031L6.67187 16.2031C5.40841 16.2046 4.19713 16.7072 3.30373 17.6006C2.41033 18.494 1.90775 19.7053 1.90624 20.9687L1.90624 30.5C1.90775 32.0162 2.51075 33.4699 3.58289 34.5421C4.65504 35.6142 6.10875 36.2172 7.62499 36.2187L27.6406 36.2187L27.6406 38.125C27.6406 38.3778 27.741 38.6202 27.9198 38.799C28.0985 38.9777 28.341 39.0781 28.5937 39.0781L32.4062 39.0781C32.659 39.0781 32.9015 38.9777 33.0802 38.799C33.2589 38.6202 33.3594 38.3778 33.3594 38.125L33.3594 34.3125L50.5156 34.3125C50.7684 34.3125 51.0108 34.2121 51.1896 34.0333C51.3683 33.8546 51.4687 33.6122 51.4687 33.3594L58.1406 33.3594C58.3291 33.3593 58.5133 33.3034 58.67 33.1987C58.8267 33.0939 58.9489 32.9451 59.021 32.771C59.0931 32.5968 59.112 32.4052 59.0752 32.2204C59.0385 32.0355 58.9477 31.8657 58.8145 31.7324L55.002 27.9199C54.8233 27.7411 54.5809 27.6407 54.3281 27.6406L51.4687 27.6406C51.4687 27.3878 51.3683 27.1454 51.1896 26.9667C51.0108 26.7879 50.7684 26.6875 50.5156 26.6875L33.3594 26.6875L33.3594 22.875C33.3594 22.6222 33.2589 22.3798 33.0802 22.201C32.9015 22.0223 32.659 21.9219 32.4062 21.9219L28.5937 21.9219C28.341 21.9219 28.0985 22.0223 27.9198 22.201C27.741 22.3798 27.6406 22.6222 27.6406 22.875L27.6406 24.7813L7.62499 24.7812C6.21626 24.7816 4.85777 25.3046 3.81249 26.2491L3.81249 20.9687C3.81249 20.2104 4.11375 19.4831 4.64998 18.9469C5.18622 18.4106 5.91352 18.1094 6.67187 18.1094L25.2578 18.1094C26.9009 18.1094 28.4767 17.4567 29.6386 16.2948C30.8004 15.133 31.4531 13.5572 31.4531 11.9141C31.4531 10.271 30.8004 8.69516 29.6386 7.53332C28.4767 6.37147 26.9009 5.71875 25.2578 5.71875L18.9672 5.71875C18.746 4.64307 18.1607 3.67654 17.3099 2.98206C16.4592 2.28759 15.3951 1.90764 14.2969 1.90625L8.57812 1.90625C8.32533 1.90625 8.0829 2.00667 7.90416 2.18542C7.72541 2.36416 7.62499 2.60659 7.62499 2.85938L7.62499 3.8125L1.90624 3.8125L1.90624 5.71875L7.62499 5.71875L7.62499 7.625L1.90624 7.625L1.90624 9.53125L7.62499 9.53125L7.62499 10.4844C7.62499 10.7372 7.72541 10.9796 7.90415 11.1583C8.0829 11.3371 8.32533 11.4375 8.57812 11.4375L14.2969 11.4375C15.3951 11.4361 16.4592 11.0562 17.3099 10.3617C18.1607 9.66722 18.746 8.70069 18.9672 7.625L25.2578 7.625C26.3953 7.625 27.4863 8.07689 28.2906 8.88124C29.095 9.6856 29.5469 10.7765 29.5469 11.9141C29.5469 13.0516 29.095 14.1425 28.2906 14.9469C27.4863 15.7512 26.3953 16.2031 25.2578 16.2031ZM53.9335 29.5469L55.8398 31.4531L51.4687 31.4531L51.4687 29.5469L53.9335 29.5469ZM39.0781 28.5938C39.0781 29.0993 39.279 29.5842 39.6364 29.9417C39.9939 30.2992 40.4788 30.5 40.9844 30.5C41.4899 30.5 41.9748 30.2992 42.3323 29.9417C42.6898 29.5842 42.8906 29.0993 42.8906 28.5938L49.5625 28.5938L49.5625 32.4063L47.6562 32.4063C47.6562 31.9007 47.4554 31.4158 47.0979 31.0583C46.7404 30.7008 46.2556 30.5 45.75 30.5C45.2444 30.5 44.7596 30.7008 44.4021 31.0583C44.0446 31.4158 43.8437 31.9007 43.8437 32.4063L38.125 32.4062C38.125 31.9007 37.9242 31.4158 37.5667 31.0583C37.2092 30.7008 36.7243 30.5 36.2187 30.5C35.7132 30.5 35.2283 30.7008 34.8708 31.0583C34.5133 31.4158 34.3125 31.9007 34.3125 32.4062L33.3594 32.4062L33.3594 28.5937L39.0781 28.5938ZM29.5469 23.8281L31.4531 23.8281L31.4531 37.1719L29.5469 37.1719L29.5469 23.8281ZM27.6406 29.5469L24.7812 29.5469L24.7812 31.4531L27.6406 31.4531L27.6406 34.3125L14.2969 34.3125L14.2969 26.6875L27.6406 26.6875L27.6406 29.5469ZM12.3906 26.6875L12.3906 34.3125L10.4844 34.3125L10.4844 26.6875L12.3906 26.6875ZM7.62499 26.6875L8.57811 26.6875L8.57811 34.3125L7.62499 34.3125C6.61385 34.3125 5.64413 33.9108 4.92915 33.1958C4.21417 32.4809 3.81249 31.5111 3.81249 30.5C3.81249 29.4889 4.21417 28.5191 4.92915 27.8042C5.64413 27.0892 6.61385 26.6875 7.62499 26.6875ZM14.2969 9.53125L9.53124 9.53125L9.53124 3.8125L14.2969 3.8125C15.0552 3.8125 15.7825 4.11376 16.3188 4.64999C16.855 5.18623 17.1562 5.91352 17.1562 6.67188C17.1562 7.43023 16.855 8.15752 16.3188 8.69376C15.7825 9.23 15.0552 9.53125 14.2969 9.53125Z" fill="white"/>
</svg>
