<svg width="16" height="16" viewBox="0 0 16 16" fill="none" xmlns="http://www.w3.org/2000/svg">
<g clip-path="url(#clip0)">
<path d="M15.9843 4.70404C15.9469 3.8539 15.8094 3.26944 15.6124 2.76299C15.4093 2.22541 15.0967 1.74412 14.6872 1.34401C14.2871 0.937683 13.8026 0.621948 13.2713 0.421957C12.7619 0.22502 12.1805 0.0875415 11.3304 0.0500586C10.4739 0.00940124 10.202 0 8.02968 0C5.85738 0 5.58548 0.00940124 4.73216 0.0468842C3.88202 0.0843671 3.29756 0.221967 2.79123 0.418783C2.25353 0.621948 1.77224 0.934509 1.37213 1.34401C0.965804 1.74412 0.650191 2.22858 0.450079 2.75994C0.253141 3.26944 0.115663 3.85073 0.0781805 4.70087C0.0375232 5.55736 0.0281219 5.82926 0.0281219 8.00156C0.0281219 10.1739 0.0375232 10.4458 0.0750061 11.2991C0.112489 12.1492 0.250089 12.7337 0.447026 13.2401C0.650191 13.7777 0.965804 14.259 1.37213 14.6591C1.77224 15.0654 2.2567 15.3812 2.78806 15.5812C3.29756 15.7781 3.87885 15.9156 4.72911 15.9531C5.5823 15.9907 5.85433 16 8.02662 16C10.1989 16 10.4708 15.9907 11.3241 15.9531C12.1743 15.9156 12.7587 15.7781 13.2651 15.5812C14.3403 15.1654 15.1905 14.3153 15.6062 13.2401C15.803 12.7306 15.9406 12.1492 15.9781 11.2991C16.0156 10.4458 16.025 10.1739 16.025 8.00156C16.025 5.82926 16.0218 5.55736 15.9843 4.70404ZM14.5435 11.2366C14.5091 12.018 14.3778 12.4399 14.2684 12.7212C13.9996 13.4183 13.4464 13.9715 12.7493 14.2403C12.468 14.3497 12.043 14.481 11.2647 14.5153C10.4208 14.5529 10.1677 14.5622 8.03285 14.5622C5.89804 14.5622 5.64176 14.5529 4.8009 14.5153C4.0195 14.481 3.59754 14.3497 3.31624 14.2403C2.96937 14.1121 2.65363 13.909 2.39736 13.6433C2.13168 13.3838 1.92852 13.0713 1.80032 12.7244C1.69092 12.4431 1.55967 12.018 1.52536 11.2397C1.48776 10.3958 1.47848 10.1426 1.47848 8.00779C1.47848 5.87297 1.48776 5.6167 1.52536 4.77596C1.55967 3.99455 1.69092 3.5726 1.80032 3.29129C1.92852 2.9443 2.13168 2.62869 2.40053 2.37229C2.65986 2.10661 2.97242 1.90345 3.31941 1.77537C3.60071 1.66597 4.02585 1.53472 4.80407 1.50029C5.64799 1.46281 5.90121 1.45341 8.0359 1.45341C10.1739 1.45341 10.427 1.46281 11.2679 1.50029C12.0493 1.53472 12.4712 1.66597 12.7525 1.77537C13.0994 1.90345 13.4151 2.10661 13.6714 2.37229C13.9371 2.63174 14.1402 2.9443 14.2684 3.29129C14.3778 3.5726 14.5091 3.99761 14.5435 4.77596C14.581 5.61987 14.5904 5.87297 14.5904 8.00779C14.5904 10.1426 14.581 10.3927 14.5435 11.2366Z" fill="white"/>
<path d="M8.02964 3.8916C5.76052 3.8916 3.91946 5.73254 3.91946 8.00178C3.91946 10.271 5.76052 12.112 8.02964 12.112C10.2989 12.112 12.1398 10.271 12.1398 8.00178C12.1398 5.73254 10.2989 3.8916 8.02964 3.8916ZM8.02964 10.668C6.55755 10.668 5.36347 9.474 5.36347 8.00178C5.36347 6.52957 6.55755 5.33561 8.02964 5.33561C9.50185 5.33561 10.6958 6.52957 10.6958 8.00178C10.6958 9.474 9.50185 10.668 8.02964 10.668Z" fill="white"/>
<path d="M13.262 3.72907C13.262 4.25896 12.8324 4.68861 12.3023 4.68861C11.7725 4.68861 11.3428 4.25896 11.3428 3.72907C11.3428 3.19906 11.7725 2.76953 12.3023 2.76953C12.8324 2.76953 13.262 3.19906 13.262 3.72907Z" fill="white"/>
</g>
<defs>
<clipPath id="clip0">
<rect width="16" height="16" fill="white"/>
</clipPath>
</defs>
</svg>
