<svg width="57" height="35" viewBox="0 0 57 35" fill="none" xmlns="http://www.w3.org/2000/svg">
<path d="M44.2177 23.9982C43.1187 21.7069 39.1869 18.5264 35.3882 15.4533C33.2694 13.7405 31.2674 12.1212 29.991 10.8449C29.6713 10.5229 29.193 10.4202 28.7707 10.5719C27.9844 10.8566 27.499 11.0759 27.1164 11.2462C26.5331 11.5075 26.3371 11.5962 25.5506 11.6755C25.2029 11.7105 24.8903 11.8972 24.6966 12.1865C23.0469 14.6529 21.3388 14.4429 20.1978 14.0603C19.8338 13.939 19.7685 13.7825 19.7335 13.6332C19.4885 12.6089 20.7182 10.2242 22.3118 8.63041C26.1036 4.83631 28.059 3.88659 32.1891 5.73234C36.8745 7.82769 41.5693 9.46814 41.6161 9.48444C42.2298 9.69674 42.8901 9.37473 43.1024 8.76571C43.3124 8.1567 42.9927 7.49168 42.3837 7.27938C42.337 7.26308 37.7355 5.65533 33.1434 3.59958C27.793 1.20781 24.8575 2.78285 20.6644 6.97837C19.0683 8.57441 16.9006 11.8038 17.4606 14.1723C17.7009 15.1803 18.4103 15.927 19.465 16.2746C22.1087 17.1473 24.5214 16.3119 26.3181 13.9273C27.0602 13.813 27.4639 13.645 28.0705 13.3719C28.2898 13.2739 28.5465 13.1596 28.8872 13.0219C30.2219 14.275 32.0233 15.7333 33.9203 17.2663C37.3504 20.0407 41.2402 23.1862 42.1153 25.0063C42.547 25.9046 42.0826 26.4903 41.7675 26.7586C41.3055 27.1553 40.6732 27.2813 40.3302 27.0409C39.9522 26.7819 39.4599 26.7656 39.0702 26.9989C38.6782 27.2322 38.4589 27.6732 38.5079 28.1259C38.5872 28.8679 37.9081 29.2927 37.6141 29.4397C36.8674 29.8177 36.0881 29.7524 35.7964 29.4817C35.4697 29.1784 35.0007 29.0897 34.5854 29.2437C34.17 29.4 33.8806 29.7827 33.8386 30.226C33.7686 30.9913 33.2016 31.7263 32.4619 32.0133C32.1049 32.1486 31.5869 32.2303 31.1226 31.8056C30.8333 31.5443 30.4318 31.4439 30.0562 31.5349C29.6759 31.6282 29.3702 31.9036 29.2372 32.2699C29.1929 32.3866 29.0925 32.6666 28.0005 32.6666C27.2235 32.6666 25.8257 32.1416 25.1421 31.6889C24.3231 31.1499 19.1872 27.3185 14.7515 23.6037C14.1285 23.0787 13.0505 21.954 12.0985 20.9599C11.2537 20.0779 10.4814 19.2776 10.0847 18.9416C9.58769 18.5216 8.85267 18.5846 8.43966 19.0793C8.02435 19.5716 8.08495 20.309 8.57737 20.7243C8.93908 21.03 9.6391 21.7696 10.4114 22.5747C11.4521 23.662 12.5278 24.7867 13.2512 25.3934C17.596 29.0312 22.8181 32.9584 23.8588 33.642C24.7175 34.2067 26.5678 35 28.0006 35C29.1509 35 30.0353 34.7363 30.649 34.2207C31.4703 34.5404 32.4037 34.5427 33.302 34.1927C34.3638 33.782 35.2364 32.9536 35.7311 31.9503C36.6504 32.1463 37.7028 32.0086 38.6595 31.528C39.5952 31.0567 40.2718 30.3357 40.6078 29.4933C41.5365 29.5423 42.4932 29.2133 43.2842 28.5342C44.6237 27.3886 44.9923 25.606 44.2177 23.9982Z" fill="#FFC539"/>
<path d="M23.333 4.66608H12.8327C12.1887 4.66608 11.666 5.1888 11.666 5.83282C11.666 6.47684 12.1887 6.99955 12.8327 6.99955H23.333C23.977 6.99955 24.4998 6.47684 24.4998 5.83282C24.4998 5.1888 23.977 4.66608 23.333 4.66608Z" fill="#FFC539"/>
<path d="M47.6363 21.5155C47.2746 20.9812 46.5513 20.8342 46.017 21.1982L42.6056 23.4895C42.0713 23.8488 41.9289 24.5746 42.2883 25.1089C42.5146 25.4426 42.8833 25.6246 43.259 25.6246C43.4807 25.6246 43.707 25.5616 43.9077 25.4263L47.3191 23.1349C47.8533 22.7755 47.9956 22.0499 47.6363 21.5155Z" fill="#FFC539"/>
<path d="M40.3928 27.083C39.5575 26.425 35.8217 22.6006 33.5116 20.1925C33.0659 19.7258 32.3263 19.7095 31.8619 20.1575C31.3951 20.6032 31.3811 21.3429 31.8269 21.8073C32.4266 22.4326 37.7163 27.9464 38.946 28.9172C39.1583 29.0852 39.4151 29.1669 39.6671 29.1669C40.0101 29.1669 40.3531 29.0129 40.5864 28.7212C40.9855 28.217 40.8992 27.482 40.3928 27.083Z" fill="#FFC539"/>
<path d="M35.7299 29.4234C34.3322 28.3056 30.8205 24.5745 30.0271 23.7112C29.5884 23.2352 28.8534 23.2072 28.3773 23.6412C27.9036 24.0775 27.871 24.8172 28.3073 25.291C28.3493 25.3353 32.5402 29.8598 34.2715 31.2458C34.4862 31.4161 34.7452 31.5001 34.9995 31.5001C35.3402 31.5001 35.6808 31.3484 35.9118 31.0638C36.3134 30.5597 36.2317 29.8247 35.7299 29.4234Z" fill="#FFC539"/>
<path d="M31.0888 31.7732C29.425 30.3709 26.0206 26.747 25.3556 26.0353C24.9146 25.564 24.1749 25.5383 23.7058 25.9793C23.2345 26.4203 23.2111 27.1577 23.6498 27.6291C24.6066 28.6534 27.864 32.1069 29.5837 33.5582C29.803 33.7425 30.069 33.8335 30.335 33.8335C30.6663 33.8335 30.9977 33.6912 31.2288 33.4182C31.6441 32.9235 31.5811 32.1885 31.0888 31.7732Z" fill="#FFC539"/>
<path d="M13.6364 2.65236C11.6366 0.757606 3.6401 0.143887 1.23674 0.00158605C0.90543 -0.0147113 0.599719 0.094886 0.366416 0.316595C0.133003 0.535898 0 0.843906 0 1.16591V22.1665C0 22.8105 0.522717 23.3332 1.16673 23.3332H8.16692C8.67093 23.3332 9.11894 23.0089 9.27524 22.5282C9.44555 22.0055 13.4661 9.66655 13.9957 3.59968C14.0261 3.24497 13.8954 2.89496 13.6364 2.65236ZM7.31519 20.9999H2.33336V2.41665C6.08316 2.71296 10.1293 3.35697 11.5993 4.07099C10.981 9.18113 8.18322 18.2604 7.31519 20.9999Z" fill="#FFC539"/>
<path d="M54.8345 2.33268C45.6735 2.33268 40.5914 4.67774 40.3791 4.77575C40.0758 4.91805 39.8494 5.18176 39.7561 5.50147C39.6628 5.82118 39.7094 6.16419 39.8844 6.44879C41.3264 8.77056 45.8415 21.6649 46.7096 24.8103C46.8496 25.3166 47.3093 25.6666 47.8343 25.6666H54.8345C55.4785 25.6666 56.0012 25.1439 56.0012 24.4999V3.49931C56.0012 2.85299 55.4785 2.33268 54.8345 2.33268ZM53.6679 23.3332H48.707C47.601 19.7304 44.3342 10.3362 42.5119 6.45349C44.2922 5.84918 48.1167 4.81075 53.6679 4.68015V23.3332Z" fill="#FFC539"/>
</svg>
