<svg width="38" height="38" viewBox="0 0 38 38" fill="none" xmlns="http://www.w3.org/2000/svg">
<circle cx="19" cy="19" r="19" fill="white"/>
<path d="M18.5206 13.548L17.6697 17.1616C18.7334 17.3742 21.7827 18.437 22.35 16.4531C22.8464 14.2566 19.7262 13.7606 18.5206 13.548ZM17.2442 18.933L16.3223 22.8301C17.5988 23.1135 21.2863 24.318 21.8536 22.1215C22.4209 19.7833 18.5206 19.2873 17.2442 18.933ZM22.6337 2.91968C13.9822 0.794012 5.11791 6.10818 2.91958 14.8234C0.792157 23.5386 6.1107 32.3247 14.8331 34.5921C23.5555 36.7178 32.3489 31.4036 34.6181 22.6884C36.6746 13.9731 31.3561 5.04534 22.6337 2.91968ZM25.9666 16.3822C25.683 17.941 24.832 18.7205 23.6265 18.933C25.1866 19.7833 25.9666 21.0587 25.1866 23.2552C24.2647 26.0186 21.9954 26.2311 18.9461 25.6643L18.237 28.6402L16.4641 28.2151L17.1733 25.2392C16.7478 25.1683 16.3223 25.0266 15.8259 24.9557L15.1168 27.9317L13.3439 27.5065L14.0531 24.5306L12.7766 24.2472L10.3655 23.6803L11.2165 21.6964L12.493 21.9798C12.9894 22.0507 13.2021 21.7672 13.3439 21.5547L14.4786 16.8782H14.6913C14.6204 16.8074 14.4786 16.8074 14.4786 16.8074L15.3295 13.4063C15.3295 12.9812 15.2586 12.556 14.4786 12.3435C14.5495 12.3435 13.2021 12.06 13.2021 12.06L13.6276 10.1469L16.0387 10.7846L17.1733 11.0681L18.0243 8.09213L19.7971 8.51726L19.088 11.3515C19.5844 11.4223 20.1517 11.5641 20.5772 11.6349L21.2863 8.80069L23.0591 9.22582L22.35 12.2018C24.5483 13.1229 26.2503 14.2566 25.9666 16.3822Z" fill="#F7931A"/>
</svg>
