<svg width="26" height="24" viewBox="0 0 26 24" fill="none" xmlns="http://www.w3.org/2000/svg">
<path d="M21.3493 12.221H25.1284V7.80392H1.47237C0.933629 7.80392 0.43484 7.648 0 7.39441V20.3191C0 22.3486 1.65136 24 3.68092 24H25.1284V19.5829H21.3493C19.3198 19.5829 17.6684 17.9315 17.6684 15.902C17.6684 13.8724 19.3198 12.221 21.3493 12.221ZM12.5151 15.1658C13.733 15.1658 14.7237 16.1565 14.7237 17.3743C14.7237 18.3328 14.1064 19.1423 13.2513 19.4473V21.0552H11.779V19.4473C10.9239 19.1423 10.3066 18.3328 10.3066 17.3743H11.779C11.779 17.7805 12.109 18.1105 12.5151 18.1105C12.9213 18.1105 13.2513 17.7805 13.2513 17.3743C13.2513 16.9681 12.9213 16.6381 12.5151 16.6381C11.2973 16.6381 10.3066 15.6474 10.3066 14.4296C10.3066 13.4711 10.9239 12.6616 11.779 12.3566V10.7487H13.2513V12.3566C14.1064 12.6616 14.7237 13.4711 14.7237 14.4296H13.2513C13.2513 14.0234 12.9213 13.6934 12.5151 13.6934C12.109 13.6934 11.779 14.0234 11.779 14.4296C11.779 14.8358 12.109 15.1658 12.5151 15.1658Z" fill="white"/>
<path d="M21.3492 13.6935C20.1313 13.6935 19.1406 14.6842 19.1406 15.902C19.1406 17.1199 20.1313 18.1106 21.3492 18.1106H25.1283V13.6935H21.3492ZM22.0854 16.6382H20.613V15.1659H22.0854V16.6382Z" fill="white"/>
<path d="M9.57061 0L4.50586 6.33158H14.6354L9.57061 0Z" fill="white"/>
<path d="M15.4608 0L13.459 2.50268L16.5222 6.33158H20.5255L15.4608 0Z" fill="white"/>
<path d="M20.0547 3.38684L22.4106 6.33158H23.5577V3.38684H20.0547Z" fill="white"/>
<path d="M1.47237 3.38684C0.65918 3.38684 0 4.04602 0 4.85921C0 5.67235 0.65918 6.33158 1.47237 6.33158H2.61944L4.97538 3.38684H1.47237Z" fill="white"/>
</svg>
