<svg width="25" height="21" viewBox="0 0 25 21" fill="none" xmlns="http://www.w3.org/2000/svg">
<path d="M24.0864 13.0266L21.0327 8.66115C21.2431 8.34835 21.3673 7.98461 21.3903 7.5991C21.4247 7.02651 21.2322 6.47475 20.8487 6.04588C19.6608 4.7176 17.8776 3.74681 15.8001 3.24675C15.9941 2.92505 16.1058 2.54919 16.1058 2.14777C16.1058 0.963402 15.1352 0 13.9423 0C13.3886 0 12.883 0.207715 12.5 0.548541C12.117 0.207715 11.6114 0 11.0577 0C9.86481 0 8.89416 0.963402 8.89416 2.14777C8.89416 2.54919 9.00593 2.92505 9.19991 3.24675C7.12242 3.74681 5.33924 4.7176 4.15134 6.04588C3.48606 6.78982 3.43723 7.86854 3.96767 8.66077L0.91362 13.0266C0.315857 13.8811 0 14.8826 0 15.9226C0 18.7223 2.29435 21 5.11456 21H19.8854C22.7057 21 25 18.7223 25 15.9226C25 14.8826 24.6841 13.8811 24.0864 13.0266ZM14.423 12.6477C14.8214 12.6477 15.1442 12.9682 15.1442 13.3636V14.3181C15.1442 15.4218 14.3013 16.3331 13.2212 16.4522V17.6591C13.2212 18.0545 12.8983 18.3751 12.5 18.3751C12.1017 18.3751 11.7788 18.0545 11.7788 17.6591V16.4659H10.577C10.1786 16.4659 9.85584 16.1453 9.85584 15.75C9.85584 15.3546 10.1786 15.034 10.577 15.034H12.9808C13.3783 15.034 13.702 14.7129 13.702 14.3181V14.0795H10.577C10.1786 14.0795 9.85584 13.759 9.85584 13.3636V12.4091C9.85584 11.3056 10.6987 10.3941 11.7788 10.275V9.06825C11.7788 8.67289 12.1017 8.35232 12.5 8.35232C12.8983 8.35232 13.2212 8.67289 13.2212 9.06825V10.2613H14.423C14.8214 10.2613 15.1442 10.5819 15.1442 10.9773C15.1442 11.3726 14.8214 11.6932 14.423 11.6932H12.0192C11.6217 11.6932 11.298 12.0143 11.298 12.4091V12.6477H14.423ZM19.9507 7.51427C19.9392 7.70513 19.8536 7.88009 19.7096 8.00714C19.6953 8.01964 19.6806 8.03081 19.6657 8.04198C19.6531 8.05145 19.6402 8.06035 19.627 8.06887C19.6201 8.07341 19.6131 8.07815 19.6058 8.0825C19.5936 8.08989 19.581 8.0967 19.5684 8.10352C19.5602 8.10787 19.5518 8.11223 19.5435 8.11621C19.5314 8.12208 19.5192 8.12719 19.507 8.1323C19.4977 8.13609 19.4883 8.13987 19.479 8.14309C19.467 8.14745 19.455 8.15142 19.4429 8.15521C19.433 8.15824 19.4231 8.16108 19.4132 8.16354C19.4012 8.16657 19.389 8.16941 19.3768 8.17187C19.3668 8.17396 19.3567 8.17585 19.3468 8.17737C19.3342 8.17945 19.3218 8.18115 19.3092 8.18248C19.2995 8.18342 19.2898 8.18418 19.2801 8.18494C19.2671 8.1857 19.2541 8.18645 19.2411 8.18664C19.232 8.18683 19.2226 8.18645 19.2135 8.18626C19.1999 8.18589 19.1864 8.18551 19.173 8.18437C19.1645 8.18361 19.1559 8.18267 19.1473 8.18153C19.1334 8.18002 19.1195 8.17831 19.1055 8.17585C19.0975 8.17452 19.0897 8.17263 19.0817 8.17093C19.0676 8.16809 19.0535 8.16487 19.0393 8.16108C19.0319 8.159 19.0245 8.15654 19.0168 8.15426C19.0027 8.14991 18.9888 8.14555 18.9749 8.14025C18.9676 8.1376 18.9604 8.13419 18.9529 8.13116C18.9394 8.12567 18.9259 8.11999 18.9125 8.11355C18.9051 8.10996 18.8976 8.1056 18.8902 8.10163C18.8776 8.095 18.865 8.08837 18.8528 8.08099C18.8444 8.07587 18.8364 8.07 18.8282 8.06451C18.8173 8.05732 18.8063 8.05031 18.7958 8.04236C18.7857 8.03479 18.7759 8.02627 18.7662 8.01793C18.758 8.01112 18.7496 8.00487 18.7418 7.99767C18.7244 7.98177 18.7077 7.96492 18.6916 7.94693C18.0832 7.2666 17.1686 6.69932 16.0473 6.30661C14.9645 5.92772 13.7379 5.7272 12.5 5.7272C11.2621 5.7272 10.0355 5.92772 8.9529 6.3068C7.97157 6.65046 7.14874 7.12762 6.55079 7.69737C6.46534 7.77879 6.38466 7.8621 6.30856 7.94712C6.1718 8.09992 5.97496 8.18759 5.76859 8.18759C5.74722 8.18759 5.72605 8.18664 5.70488 8.18475C5.70068 8.18437 5.69668 8.18361 5.69248 8.18323C5.67532 8.18134 5.65815 8.17926 5.64098 8.17623C5.63698 8.17547 5.63316 8.17452 5.62916 8.17377C5.61218 8.17036 5.5954 8.16676 5.5788 8.16222C5.57461 8.16108 5.5706 8.15976 5.56641 8.15843C5.55058 8.15389 5.53474 8.14877 5.51929 8.14309C5.51414 8.1412 5.509 8.13912 5.50404 8.13722C5.4903 8.13173 5.47676 8.12586 5.46341 8.11961C5.45654 8.11658 5.44987 8.11318 5.44319 8.10977C5.43251 8.10447 5.42202 8.0986 5.41153 8.09273C5.40276 8.08761 5.39379 8.0825 5.38521 8.0772C5.37777 8.07247 5.37071 8.06754 5.36366 8.06281C5.35278 8.05542 5.34191 8.04804 5.33142 8.04009C5.3175 8.02948 5.30357 8.01869 5.29041 8.00695C4.99306 7.74489 4.96578 7.29141 5.22995 6.99621C6.74248 5.30515 9.46026 4.29555 12.5 4.29555C15.5397 4.29555 18.2575 5.30515 19.7701 6.9964C19.898 7.13955 19.9621 7.32341 19.9507 7.51427Z" fill="white"/>
</svg>
