<svg width="26" height="25" viewBox="0 0 26 25" fill="none" xmlns="http://www.w3.org/2000/svg">
<path d="M12.6173 13.2456C15.7422 13.2456 18.2756 10.2805 18.2756 6.62278C18.2756 1.55058 15.7423 0 12.6173 0C9.49222 0 6.95898 1.55058 6.95898 6.62278C6.95905 10.2805 9.49228 13.2456 12.6173 13.2456Z" fill="white"/>
<path d="M25.113 22.9936L22.2583 16.5629C22.1278 16.2686 21.8984 16.0246 21.6129 15.8759L17.1826 13.5696C17.0849 13.5189 16.9666 13.5288 16.8787 13.5952C15.6257 14.543 14.1524 15.0439 12.6183 15.0439C11.0839 15.0439 9.61074 14.543 8.35769 13.5952C8.26962 13.5288 8.15132 13.5189 8.05362 13.5696L3.62361 15.8759C3.33798 16.0246 3.10885 16.2685 2.97815 16.5629L0.123454 22.9936C-0.07336 23.4369 -0.0330228 23.9442 0.23139 24.3508C0.49568 24.7574 0.942967 25 1.42794 25H23.8084C24.2934 25 24.7408 24.7573 25.0051 24.3508C25.2694 23.9442 25.3098 23.4367 25.113 22.9936Z" fill="white"/>
</svg>
