<svg width="25" height="25" viewBox="0 0 25 25" fill="none" xmlns="http://www.w3.org/2000/svg">
<path d="M13.3384 17.5592L12.973 15H12.029L11.6636 17.5592C11.6341 17.7643 11.4583 17.9167 11.251 17.9167H10.8848L12.501 19.0712L14.1172 17.9167H13.751C13.5437 17.9167 13.3679 17.7643 13.3384 17.5592Z" fill="white"/>
<path d="M16.6673 8.74996C16.6673 6.90894 14.8019 5.41663 12.5007 5.41663C10.1994 5.41663 8.33398 6.90894 8.33398 8.74996C8.33398 10.591 10.1994 12.0833 12.5007 12.0833C14.8019 12.0833 16.6673 10.591 16.6673 8.74996Z" fill="white"/>
<path d="M22.0996 4.67485L22.9171 4.51147L24.5829 12.8485L23.7653 13.0116L22.0996 4.67485Z" fill="white"/>
<path d="M0.423828 12.8347L2.09192 4.50159L2.90918 4.66516L1.24089 12.9983L0.423828 12.8347Z" fill="white"/>
<path d="M0 0V0.833333H2.91667V2.5C2.91667 2.7301 3.10323 2.91667 3.33333 2.91667H3.72965L4.08875 0.833333H4.93408L0.911255 24.1667H24.0887L20.0659 0.833333H20.9113L21.2703 2.91667H21.6667C21.8968 2.91667 22.0833 2.7301 22.0833 2.5V0.833333H25V0H0ZM20.6588 19.1559C20.6744 19.2712 20.6413 19.3878 20.5672 19.4777C20.493 19.5675 20.3845 19.622 20.2684 19.6283C19.1833 19.6879 18.3333 20.4 18.3333 21.25C18.3333 21.4801 18.1468 21.6667 17.9167 21.6667H7.08333C6.85323 21.6667 6.66667 21.4801 6.66667 21.25C6.66667 20.4 5.81665 19.6879 4.73165 19.6283C4.61548 19.622 4.50704 19.5675 4.43278 19.4777C4.35872 19.3878 4.32556 19.2712 4.34123 19.1559L6.86747 0.833333H7.70833L5.22502 18.8505C6.30025 19.0025 7.18018 19.7835 7.45829 20.8333H17.5417C17.8198 19.7837 18.6993 19.0027 19.7746 18.8505L17.2917 0.833333H18.1329L20.6588 19.1559ZM12.5 12.9167C9.74284 12.9167 7.5 11.0476 7.5 8.75C7.5 6.45243 9.74284 4.58333 12.5 4.58333C15.2572 4.58333 17.5 6.45243 17.5 8.75C17.5 11.0476 15.2572 12.9167 12.5 12.9167ZM15.6588 17.8387L12.7421 19.9221C12.5972 20.0254 12.4028 20.0254 12.2579 19.9221L9.34123 17.8387C9.19413 17.7334 9.13188 17.5452 9.18701 17.3728C9.24235 17.2005 9.40247 17.0835 9.58333 17.0833H10.8887L11.2541 14.5241C11.2836 14.319 11.4594 14.1667 11.6667 14.1667H13.3333C13.5406 14.1667 13.7164 14.319 13.7459 14.5241L14.1113 17.0833H15.4167C15.5975 17.0835 15.7576 17.2005 15.813 17.3728C15.8681 17.5452 15.8059 17.7334 15.6588 17.8387Z" fill="white"/>
</svg>
