<svg width="47" height="47" viewBox="0 0 47 47" fill="none" xmlns="http://www.w3.org/2000/svg">
<path d="M26.1649 8.36788H10.1429C8.96286 8.36788 8.00586 9.32488 8.00586 10.5039C8.00586 11.6829 8.96286 12.6399 10.1429 12.6399H26.1649C27.3469 12.6399 28.3019 11.6829 28.3019 10.5039C28.3009 9.32488 27.3459 8.36788 26.1649 8.36788Z" fill="#FFC539"/>
<path d="M28.3009 18.5158C28.3009 17.3358 27.3459 16.3798 26.1639 16.3798H10.1429C8.96286 16.3798 8.00586 17.3368 8.00586 18.5158C8.00586 19.6958 8.96286 20.6528 10.1429 20.6528H26.1649C27.3459 20.6528 28.3009 19.6958 28.3009 18.5158Z" fill="#FFC539"/>
<path d="M18.1549 28.6623C19.3349 28.6623 20.2909 27.7053 20.2909 26.5263C20.2909 25.3463 19.3349 24.3893 18.1549 24.3893H10.1429C8.96286 24.3893 8.00586 25.3463 8.00586 26.5263C8.00586 27.7063 8.96286 28.6623 10.1429 28.6623H18.1549Z" fill="#FFC539"/>
<path d="M34.286 35.93L32.045 37.409V42.727H4.273V4.273H32.045V12.715L36.318 5.314V2.136C36.318 0.956 35.361 0 34.181 0H2.136C0.956 0 0 0.957 0 2.136V44.865C0 46.045 0.956 47.001 2.136 47.001H34.181C35.362 47.001 36.319 46.044 36.319 44.865V33.09L35.298 34.856C35.049 35.287 34.699 35.658 34.286 35.93Z" fill="#FFC539"/>
<path d="M46.9135 9.89343C46.8695 9.70143 46.4185 7.97543 43.7005 6.40543C40.9825 4.83643 39.2625 5.30843 39.0725 5.36743C38.8175 5.44843 38.6025 5.62043 38.4685 5.85243L25.1165 28.9784C25.0335 29.1234 24.9845 29.2844 24.9745 29.4504L24.4745 37.7954C24.4505 38.1994 24.6565 38.5814 25.0055 38.7844C25.3575 38.9864 25.7905 38.9724 26.1285 38.7514L33.1055 34.1454C33.2445 34.0554 33.3595 33.9324 33.4425 33.7894L46.7955 10.6594C46.9295 10.4274 46.9705 10.1554 46.9135 9.89343ZM28.8205 35.0544C28.4655 34.7674 28.0625 34.4964 27.6295 34.2454C27.1945 33.9944 26.7585 33.7834 26.3325 33.6174L26.4815 31.1154C27.0385 31.1884 27.8645 31.4144 28.9135 32.0184C29.9615 32.6234 30.5685 33.2274 30.9125 33.6724L28.8205 35.0544Z" fill="#FFC539"/>
<path d="M14.8887 38.5335C14.9587 38.9625 15.4537 39.0955 15.7847 39.2335C16.1047 39.3685 16.4867 39.1125 16.7527 38.9835C18.3827 38.1905 20.5907 39.1225 22.3367 39.1225C23.3697 39.1225 23.3697 37.5205 22.3367 37.5205C20.3007 37.5205 18.6067 37.0055 16.5887 37.3385C16.5887 37.2215 16.5457 37.0635 16.4197 36.8485C16.0427 36.2035 15.5627 36.0205 15.0817 36.0985C15.0497 36.0225 15.0187 35.9465 14.9737 35.8695C14.8477 35.6635 14.6717 35.5605 14.4737 35.5175C15.0367 34.5335 15.3997 33.4925 15.0307 32.6505C14.9177 32.3945 14.5967 32.2635 14.3387 32.2535C13.2687 32.2135 12.3507 33.3365 11.6627 34.0105C9.94173 35.6975 8.42573 37.6125 6.95873 39.5185C6.32873 40.3375 7.72173 41.1335 8.34173 40.3285C9.64173 38.6405 11.0187 37.0015 12.5007 35.4685C12.1437 36.0545 11.7647 36.6295 11.3657 37.1835C10.7957 38.0645 12.1567 38.8145 12.7487 37.9925C12.8897 37.7775 13.0687 37.6225 13.2647 37.4895C13.2257 37.5885 13.1857 37.6855 13.1457 37.7855C13.1477 37.7855 13.1497 37.7865 13.1517 37.7875C13.1207 37.8515 13.0897 37.9155 13.0647 37.9765C12.7067 38.8735 14.0437 39.2845 14.5297 38.5925C14.6527 38.4185 14.7667 38.2325 14.8697 38.0375C14.8627 38.1715 14.8597 38.3515 14.8887 38.5335Z" fill="#FFC539"/>
</svg>
