<svg width="26" height="25" viewBox="0 0 26 25" fill="none" xmlns="http://www.w3.org/2000/svg">
<path d="M16.7384 12.5974C16.3797 12.5974 16.0879 12.8892 16.0879 13.2479V15.4222C16.0879 15.7809 16.3797 16.0726 16.7384 16.0726H25.5542V12.5975H16.7384V12.5974ZM17.8354 15.3379C17.2816 15.3379 16.8325 14.8889 16.8325 14.335C16.8325 13.7811 17.2815 13.332 17.8354 13.332C18.3893 13.332 18.8383 13.781 18.8383 14.335C18.8383 14.8889 18.3893 15.3379 17.8354 15.3379Z" fill="white"/>
<path d="M16.7384 11.0791H25.5542V7.3566C25.5542 6.1608 24.5814 5.18799 23.3856 5.18799H23.0819H6.67319H2.16861C0.972857 5.18799 0 6.1608 0 7.3566V22.8312C0 24.027 0.972857 24.9999 2.16861 24.9999H23.3856C24.5814 24.9999 25.5542 24.027 25.5542 22.8312V17.5906H16.7384C15.5426 17.5906 14.5697 16.6178 14.5697 15.422V13.2478C14.5697 12.052 15.5427 11.0791 16.7384 11.0791Z" fill="white"/>
<path d="M21.233 0L10.9336 3.66993H22.5407L21.233 0Z" fill="white"/>
</svg>
