<svg width="26" height="25" viewBox="0 0 26 25" fill="none" xmlns="http://www.w3.org/2000/svg">
<path d="M12.6173 13.2456C15.7422 13.2456 18.2756 10.2805 18.2756 6.62278C18.2756 1.55058 15.7423 0 12.6173 0C9.49222 0 6.95898 1.55058 6.95898 6.62278C6.95905 10.2805 9.49228 13.2456 12.6173 13.2456Z" fill="white"/>
<path d="M25.113 22.9935L22.2583 16.5628C22.1278 16.2685 21.8984 16.0244 21.6129 15.8758L17.1826 13.5695C17.0849 13.5188 16.9666 13.5286 16.8787 13.5951C15.6257 14.5429 14.1524 15.0438 12.6183 15.0438C11.0839 15.0438 9.61074 14.5429 8.35769 13.5951C8.26962 13.5286 8.15132 13.5188 8.05362 13.5695L3.62361 15.8758C3.33798 16.0244 3.10885 16.2684 2.97815 16.5628L0.123454 22.9935C-0.07336 23.4368 -0.0330228 23.944 0.23139 24.3507C0.49568 24.7573 0.942967 24.9999 1.42794 24.9999H23.8084C24.2934 24.9999 24.7408 24.7571 25.0051 24.3506C25.2694 23.944 25.3098 23.4366 25.113 22.9935Z" fill="white"/>
</svg>
