<svg width="25" height="25" viewBox="0 0 25 25" fill="none" xmlns="http://www.w3.org/2000/svg">
<path d="M12.4998 0C5.59643 0 0 5.59659 0 12.4998C0 19.403 5.59643 25 12.4998 25C19.4032 25 25 19.403 25 12.4998C25 5.59659 19.4032 0 12.4998 0ZM17.9038 14.8772H12.6044C12.5865 14.8772 12.5698 14.8729 12.552 14.8722C12.5343 14.8731 12.5177 14.8772 12.4997 14.8772C12.0223 14.8772 11.6352 14.4902 11.6352 14.0127V5.1875C11.6352 4.71008 12.0223 4.32299 12.4997 4.32299C12.9771 4.32299 13.3642 4.71008 13.3642 5.1875V13.1482H17.9035C18.3809 13.1482 18.768 13.5353 18.768 14.0127C18.768 14.4902 18.3812 14.8772 17.9038 14.8772Z" fill="white"/>
</svg>
