<svg width="25" height="25" viewBox="0 0 25 25" fill="none" xmlns="http://www.w3.org/2000/svg">
<path d="M15.6906 11.7154C15.6906 13.4772 14.2624 14.9055 12.5006 14.9055C10.7388 14.9055 9.31055 13.4772 9.31055 11.7154C9.31055 9.95361 10.7388 8.52539 12.5006 8.52539C14.2624 8.52539 15.6906 9.95361 15.6906 11.7154Z" fill="white"/>
<path d="M24.0961 0.903511C23.513 0.320816 22.7381 0 21.9141 0H3.0859C2.26192 0 1.48697 0.320816 0.903511 0.903893C0.320816 1.48716 0 2.26192 0 3.0859V6.22406C0 7.04803 0.320816 7.8228 0.903893 8.40645C1.48716 8.98914 2.26192 9.30977 3.0859 9.30977H3.2423V3.92246C3.2423 3.5181 3.57018 3.19004 3.97472 3.19004H21.0255C21.4298 3.19004 21.7579 3.5181 21.7579 3.92246V9.30977H21.9141C22.7381 9.30977 23.5128 8.98895 24.0965 8.40588C24.6792 7.8228 25 7.04784 25 6.22406V3.0859C25 2.26192 24.6792 1.48716 24.0961 0.903511Z" fill="white"/>
<path d="M4.70703 22.6985C4.70703 23.3136 4.94659 23.8915 5.3809 24.3253C5.81539 24.7603 6.39332 24.9999 7.00844 24.9999H17.9917C18.6068 24.9999 19.1848 24.7603 19.6185 24.326C20.0534 23.8915 20.2929 23.3136 20.2929 22.6985V4.65479H4.70703V22.6985ZM12.5001 7.06052C15.0668 7.06052 17.155 9.14869 17.155 11.7154C17.155 14.2821 15.0668 16.3703 12.5001 16.3703C9.93336 16.3703 7.84519 14.2821 7.84519 11.7154C7.84519 9.14869 9.93336 7.06052 12.5001 7.06052ZM8.57761 19.6126H16.4225C16.8271 19.6126 17.155 19.9405 17.155 20.345C17.155 20.7494 16.8271 21.0774 16.4225 21.0774H8.57761C8.17307 21.0774 7.84519 20.7494 7.84519 20.345C7.84519 19.9405 8.17307 19.6126 8.57761 19.6126Z" fill="white"/>
</svg>
