<svg width="32" height="22" viewBox="0 0 32 22" fill="none" xmlns="http://www.w3.org/2000/svg">
<path fill-rule="evenodd" clip-rule="evenodd" d="M20.5713 2.60575L24.5713 6.53575L1.50132 6.53575C0.672893 6.53575 0.00131957 7.20732 0.00131953 8.03575C0.0013195 8.86418 0.672893 9.53575 1.50132 9.53575L27.3813 9.53575L28.3813 10.5358L27.3813 11.5358L1.50132 11.5358C0.672893 11.5358 0.00131935 12.2073 0.00131932 13.0358C0.00131928 13.8642 0.672893 14.5358 1.50132 14.5358L24.5813 14.5358L20.5813 18.4658C20.1773 18.8361 20.0075 19.3973 20.1383 19.9295C20.2691 20.4617 20.6798 20.8802 21.2094 21.0211C21.7391 21.1619 22.3034 21.0027 22.6813 20.6058L29.3013 14.1058C29.4692 13.9348 29.5928 13.7254 29.6613 13.4958L31.5613 11.5958C32.1462 11.0101 32.1462 10.0614 31.5613 9.47575L29.6613 7.57575C29.5928 7.34612 29.4692 7.1367 29.3013 6.96575L22.6713 0.465753C22.2934 0.0688105 21.7291 -0.0904281 21.1995 0.0504154C20.6698 0.191259 20.2591 0.60976 20.1283 1.14198C19.9975 1.6742 20.1673 2.23541 20.5713 2.60575Z" fill="#FFC539"/>
</svg>
