<svg width="47" height="41" viewBox="0 0 47 41" fill="none" xmlns="http://www.w3.org/2000/svg">
<path d="M45.6317 5.46702C45.6288 5.46702 45.6259 5.46667 45.623 5.46667H33.1387V4.1C33.1387 1.83931 31.2855 0 29.0078 0H17.9922C15.7145 0 13.8613 1.83931 13.8613 4.1V5.46667H1.37695C0.610306 5.46667 0 6.09021 0 6.83333V36.9C0 39.1607 1.85315 41 4.13086 41H42.8691C45.1469 41 47 39.1607 47 36.9V6.86216C47 6.86038 47 6.8586 47 6.85682C46.9473 5.95924 46.3911 5.472 45.6317 5.46702ZM16.6152 4.1C16.6152 3.34655 17.2331 2.73333 17.9922 2.73333H29.0078C29.7669 2.73333 30.3848 3.34655 30.3848 4.1V5.46667H16.6152V4.1ZM43.7125 8.2L39.4364 20.9321C39.2489 21.4912 38.7239 21.8667 38.1305 21.8667H30.3848V20.5C30.3848 19.7451 29.7684 19.1333 29.0078 19.1333H17.9922C17.2316 19.1333 16.6152 19.7451 16.6152 20.5V21.8667H8.86951C8.27606 21.8667 7.7511 21.4912 7.56356 20.9321L3.28748 8.2H43.7125ZM27.6309 21.8667V24.6H19.3691V21.8667H27.6309ZM44.2461 36.9C44.2461 37.6534 43.6283 38.2667 42.8691 38.2667H4.13086C3.37174 38.2667 2.75391 37.6534 2.75391 36.9V15.2551L4.95094 21.7966C5.51391 23.4736 7.0888 24.6 8.86951 24.6H16.6152V25.9667C16.6152 26.7215 17.2316 27.3333 17.9922 27.3333H29.0078C29.7684 27.3333 30.3848 26.7215 30.3848 25.9667V24.6H38.1305C39.9112 24.6 41.4861 23.4736 42.0491 21.7966L44.2461 15.2551V36.9Z" fill="#FFC539"/>
</svg>
