<svg width="16" height="14" viewBox="0 0 16 14" fill="none" xmlns="http://www.w3.org/2000/svg">
<path d="M15.4542 4.37544L11.8323 0.753598C11.5335 0.454754 11.2303 0.303223 10.9314 0.303223C10.521 0.303223 10.0417 0.61541 10.0417 1.49525V2.72832C7.41028 2.843 4.95294 3.92216 3.07869 5.79632C1.09356 7.78128 0.000218756 10.4205 5.67506e-09 13.2278C-3.12443e-05 13.4295 0.129 13.6086 0.320312 13.6725C0.369125 13.6888 0.419156 13.6966 0.468688 13.6966C0.613281 13.6966 0.75325 13.6295 0.843531 13.5094C3.05656 10.5636 6.38847 8.82275 10.0417 8.68529V9.89932C10.0417 10.7791 10.5209 11.0913 10.9314 11.0914H10.9314C11.2303 11.0914 11.5335 10.9398 11.8323 10.641L15.4541 7.01913C15.8062 6.66719 16 6.19775 16 5.69732C16 5.19685 15.8062 4.72741 15.4542 4.37544ZM14.7913 6.35622L11.1694 9.97813C11.0999 10.0476 11.0424 10.0915 11 10.1181C10.9888 10.0693 10.9792 9.99757 10.9792 9.89935V8.20775C10.9792 7.94888 10.7693 7.739 10.5104 7.739C8.42769 7.739 6.43753 8.21619 4.59531 9.15725C3.27281 9.83285 2.06388 10.7423 1.04009 11.8253C1.72116 7.20982 5.70872 3.65563 10.5104 3.65563C10.7693 3.65563 10.9792 3.44575 10.9792 3.18688V1.49525C10.9792 1.39704 10.9888 1.32532 10.9999 1.2765C11.0424 1.30316 11.0999 1.34704 11.1694 1.4165L14.7913 5.03838C14.9662 5.21328 15.0625 5.44728 15.0625 5.69732C15.0625 5.94732 14.9662 6.18132 14.7913 6.35622Z" fill="#3D3F40"/>
</svg>
