<svg width="15" height="15" viewBox="0 0 15 15" fill="none" xmlns="http://www.w3.org/2000/svg">
<path d="M12.8066 2.19615C9.88193 -0.728469 5.1217 -0.728469 2.19708 2.19615C0.780388 3.6134 0 5.4973 0 7.50087C0 9.50444 0.780388 11.3883 2.19708 12.805C3.65968 14.2676 5.58076 14.9986 7.5018 14.9986C9.42285 14.9986 11.3439 14.2676 12.8065 12.805C15.7311 9.88041 15.7311 5.12133 12.8066 2.19615ZM11.9849 11.9834C9.51293 14.4553 5.49067 14.4553 3.01872 11.9834C1.8217 10.7863 1.16216 9.19416 1.16216 7.50087C1.16216 5.80758 1.8217 4.2154 3.01872 3.01779C5.49067 0.54584 9.51293 0.546426 11.9849 3.01779C14.4562 5.48974 14.4562 9.512 11.9849 11.9834Z" fill="white"/>
<path d="M10.0057 9.10632L8.36064 7.4636L10.0057 5.82088C10.2323 5.59427 10.2323 5.22644 10.0063 4.99921C9.77909 4.77143 9.41126 4.77201 9.18406 4.99863L7.53785 6.64252L5.89165 4.99863C5.66445 4.77201 5.29662 4.77143 5.06942 4.99921C4.84281 5.22641 4.84281 5.59424 5.07001 5.82088L6.71507 7.4636L5.07001 9.10632C4.84281 9.33294 4.84281 9.70076 5.06942 9.92799C5.18274 10.0419 5.33207 10.0982 5.48084 10.0982C5.62961 10.0982 5.77836 10.0413 5.89168 9.92855L7.53788 8.28466L9.18409 9.92855C9.29741 10.0419 9.44615 10.0982 9.59492 10.0982C9.7437 10.0982 9.89302 10.0413 10.0063 9.92799C10.2329 9.70076 10.2329 9.33294 10.0057 9.10632Z" fill="white"/>
</svg>
