<svg width="28" height="28" viewBox="0 0 28 28" fill="none" xmlns="http://www.w3.org/2000/svg">
<g clip-path="url(#clip0)">
<path d="M2.91665 12.25C1.309 12.25 0 13.559 0 15.1666V24.5C0 26.1076 1.309 27.4166 2.91665 27.4166H6.41665C7.0735 27.4166 7.6778 27.195 8.16665 26.8263V12.25H2.91665Z" fill="white"/>
<path d="M28.0001 16.625C28.0001 15.9239 27.7225 15.2705 27.2406 14.7887C27.7855 14.1925 28.0631 13.3933 27.9873 12.5615C27.8508 11.0787 26.5149 9.91665 24.9446 9.91665H17.7381C18.0951 8.8328 18.6668 6.846 18.6668 5.25C18.6668 2.7195 16.5166 0.583355 15.1668 0.583355C13.9546 0.583355 13.0889 1.26586 13.0516 1.29386C12.914 1.40471 12.8335 1.57271 12.8335 1.75V5.70615L9.4735 12.985L9.3335 13.0562V25.5605C10.2831 26.0085 11.4848 26.25 12.2501 26.25H22.959C24.2295 26.25 25.3413 25.3937 25.6026 24.2119C25.7368 23.604 25.6586 22.9915 25.3915 22.4595C26.2536 22.0255 26.8335 21.1377 26.8335 20.125C26.8335 19.712 26.739 19.3165 26.5593 18.9584C27.4215 18.5244 28.0001 17.6365 28.0001 16.625Z" fill="white"/>
</g>
<defs>
<clipPath id="clip0">
<rect width="28" height="28" fill="white"/>
</clipPath>
</defs>
</svg>
