<svg width="158" height="36" viewBox="0 0 158 36" fill="none" xmlns="http://www.w3.org/2000/svg">
<path d="M20.5781 21.0547H7.07812V35H0.046875V0.875H22.2656V6.57031H7.07812V15.3828H20.5781V21.0547ZM56.9062 31.6719C56.9062 30.5938 57.2656 29.7188 57.9844 29.0469C58.7188 28.375 59.6328 28.0391 60.7266 28.0391C61.8359 28.0391 62.75 28.375 63.4688 29.0469C64.2031 29.7188 64.5703 30.5938 64.5703 31.6719C64.5703 32.7344 64.2109 33.6016 63.4922 34.2734C62.7734 34.9297 61.8516 35.2578 60.7266 35.2578C59.6172 35.2578 58.7031 34.9297 57.9844 34.2734C57.2656 33.6016 56.9062 32.7344 56.9062 31.6719ZM125.391 20.2109H111.891V29.3516H127.734V35H104.859V0.875H127.688V6.57031H111.891V14.7031H125.391V20.2109Z" fill="#FFDD73"/>
<path d="M26.3438 35V0.875H38.2969C42.4375 0.875 45.5781 1.67188 47.7188 3.26562C49.8594 4.84375 50.9297 7.16406 50.9297 10.2266C50.9297 11.8984 50.5 13.375 49.6406 14.6562C48.7812 15.9219 47.5859 16.8516 46.0547 17.4453C47.8047 17.8828 49.1797 18.7656 50.1797 20.0938C51.1953 21.4219 51.7031 23.0469 51.7031 24.9688C51.7031 28.25 50.6562 30.7344 48.5625 32.4219C46.4688 34.1094 43.4844 34.9688 39.6094 35H26.3438ZM33.375 20.1406V29.3516H39.3984C41.0547 29.3516 42.3438 28.9609 43.2656 28.1797C44.2031 27.3828 44.6719 26.2891 44.6719 24.8984C44.6719 21.7734 43.0547 20.1875 39.8203 20.1406H33.375ZM33.375 15.1719H38.5781C42.125 15.1094 43.8984 13.6953 43.8984 10.9297C43.8984 9.38281 43.4453 8.27344 42.5391 7.60156C41.6484 6.91406 40.2344 6.57031 38.2969 6.57031H33.375V15.1719ZM98.7188 35H91.6875L78 12.5469V35H70.9688V0.875H78L91.7109 23.375V0.875H98.7188V35ZM157.547 6.57031H147.094V35H140.062V6.57031H129.75V0.875H157.547V6.57031Z" fill="white"/>
</svg>
