<svg width="40" height="40" viewBox="0 0 40 40" fill="none" xmlns="http://www.w3.org/2000/svg">
<path d="M20 40C31.0457 40 40 31.0457 40 20C40 8.95431 31.0457 0 20 0C8.95431 0 0 8.95431 0 20C0 31.0457 8.95431 40 20 40Z" fill="#4D76A1"/>
<path fill-rule="evenodd" clip-rule="evenodd" d="M19.2445 28.7717H20.8143C20.8143 28.7717 21.2884 28.7197 21.5305 28.4587C21.7533 28.2191 21.7462 27.7692 21.7462 27.7692C21.7462 27.7692 21.7155 25.6629 22.6931 25.3527C23.6568 25.0472 24.8943 27.3885 26.2059 28.2887C27.1977 28.97 27.9514 28.8206 27.9514 28.8206L31.4585 28.7717C31.4585 28.7717 33.2931 28.6587 32.4232 27.2163C32.3519 27.0982 31.9166 26.1492 29.8156 24.199C27.6166 22.158 27.9111 22.4881 30.5601 18.9575C32.1733 16.8073 32.8183 15.4946 32.6168 14.9324C32.4247 14.3969 31.2382 14.5384 31.2382 14.5384L27.2894 14.563C27.2894 14.563 26.9967 14.5231 26.7795 14.6529C26.5674 14.7802 26.4309 15.0768 26.4309 15.0768C26.4309 15.0768 25.8059 16.7407 24.9723 18.1557C23.214 21.1415 22.5109 21.2991 22.2236 21.1137C21.5551 20.6816 21.722 19.3778 21.722 18.4516C21.722 15.5581 22.1608 14.3516 20.8674 14.0393C20.4381 13.9356 20.1223 13.8671 19.0245 13.8561C17.6156 13.8414 16.423 13.8603 15.7478 14.1912C15.2986 14.4112 14.952 14.9014 15.1631 14.9295C15.424 14.9645 16.0152 15.0889 16.3285 15.5157C16.7332 16.0661 16.7189 17.3025 16.7189 17.3025C16.7189 17.3025 16.9514 20.7087 16.1759 21.1319C15.6437 21.4221 14.9135 20.8296 13.3459 18.1207C12.5427 16.7332 11.9362 15.1994 11.9362 15.1994C11.9362 15.1994 11.8193 14.9128 11.6107 14.7595C11.3576 14.5737 11.0039 14.5146 11.0039 14.5146L7.25156 14.5392C7.25156 14.5392 6.68826 14.5548 6.48148 14.7998C6.29752 15.0176 6.46687 15.4682 6.46687 15.4682C6.46687 15.4682 9.40458 22.3412 12.7309 25.8048C15.7809 28.9803 19.2445 28.7717 19.2445 28.7717Z" fill="white"/>
</svg>
