<svg aria-hidden="true" xmlns="http://www.w3.org/2000/svg" xmlns:xlink="http://www.w3.org/1999/xlink"><symbol viewBox="0 0 20 20" fill="none" id="arrow-up-right" xmlns="http://www.w3.org/2000/svg">
<path d="M5.83331 14.1668L14.1666 5.8335M14.1666 5.8335H5.83331M14.1666 5.8335V14.1668" stroke="currentColor" stroke-width="2" stroke-linecap="round" stroke-linejoin="round"/>
</symbol><symbol viewBox="0 0 16 16" fill="none" id="chevron-right" xmlns="http://www.w3.org/2000/svg">
<path d="M6 4L9.5286 7.5286C9.78895 7.78895 9.78895 8.21106 9.5286 8.4714L6 12" stroke="currentColor" stroke-width="1.33333" stroke-linecap="round" stroke-linejoin="round"/>
</symbol><symbol viewBox="0 0 24 24" fill="none" id="email" xmlns="http://www.w3.org/2000/svg">
<path d="M2 7L10.1649 12.7154C10.8261 13.1783 11.1567 13.4097 11.5163 13.4993C11.8339 13.5785 12.1661 13.5785 12.4837 13.4993C12.8433 13.4097 13.1739 13.1783 13.8351 12.7154L22 7M6.8 20H17.2C18.8802 20 19.7202 20 20.362 19.673C20.9265 19.3854 21.3854 18.9265 21.673 18.362C22 17.7202 22 16.8802 22 15.2V8.8C22 7.11984 22 6.27976 21.673 5.63803C21.3854 5.07354 20.9265 4.6146 20.362 4.32698C19.7202 4 18.8802 4 17.2 4H6.8C5.11984 4 4.27976 4 3.63803 4.32698C3.07354 4.6146 2.6146 5.07354 2.32698 5.63803C2 6.27976 2 7.11984 2 8.8V15.2C2 16.8802 2 17.7202 2.32698 18.362C2.6146 18.9265 3.07354 19.3854 3.63803 19.673C4.27976 20 5.11984 20 6.8 20Z" stroke="currentColor" stroke-width="2" stroke-linecap="round" stroke-linejoin="round"/>
</symbol><symbol viewBox="0 0 22 20" fill="none" id="menuAboutUs" xmlns="http://www.w3.org/2000/svg">
<path d="M6.5 9H3.6C3.03995 9 2.75992 9 2.54601 9.10899C2.35785 9.20487 2.20487 9.35785 2.10899 9.54601C2 9.75992 2 10.0399 2 10.6V19M15.5 9H18.4C18.9601 9 19.2401 9 19.454 9.10899C19.6422 9.20487 19.7951 9.35785 19.891 9.54601C20 9.75992 20 10.0399 20 10.6V19M15.5 19V4.2C15.5 3.0799 15.5 2.51984 15.282 2.09202C15.0903 1.71569 14.7843 1.40973 14.408 1.21799C13.9802 1 13.4201 1 12.3 1H9.7C8.57989 1 8.01984 1 7.59202 1.21799C7.21569 1.40973 6.90973 1.71569 6.71799 2.09202C6.5 2.51984 6.5 3.0799 6.5 4.2V19M21 19H1M10 5H12M10 9H12M10 13H12" stroke="currentColor" stroke-width="2" stroke-linecap="round" stroke-linejoin="round"/>
</symbol><symbol viewBox="0 0 22 18" fill="none" id="menuContact" xmlns="http://www.w3.org/2000/svg">
<path d="M1 4L9.16492 9.71544C9.82609 10.1783 10.1567 10.4097 10.5163 10.4993C10.8339 10.5785 11.1661 10.5785 11.4837 10.4993C11.8433 10.4097 12.1739 10.1783 12.8351 9.71544L21 4M5.8 17H16.2C17.8802 17 18.7202 17 19.362 16.673C19.9265 16.3854 20.3854 15.9265 20.673 15.362C21 14.7202 21 13.8802 21 12.2V5.8C21 4.11984 21 3.27976 20.673 2.63803C20.3854 2.07354 19.9265 1.6146 19.362 1.32698C18.7202 1 17.8802 1 16.2 1H5.8C4.11984 1 3.27976 1 2.63803 1.32698C2.07354 1.6146 1.6146 2.07354 1.32698 2.63803C1 3.27976 1 4.11984 1 5.8V12.2C1 13.8802 1 14.7202 1.32698 15.362C1.6146 15.9265 2.07354 16.3854 2.63803 16.673C3.27976 17 4.11984 17 5.8 17Z" stroke="currentColor" stroke-width="2" stroke-linecap="round" stroke-linejoin="round"/>
</symbol><symbol viewBox="0 0 20 21" fill="none" id="menuHome" xmlns="http://www.w3.org/2000/svg">
<path d="M6.12602 13C6.57006 14.7252 8.13616 16 10 16C11.8638 16 13.4299 14.7252 13.874 13M9.0177 1.76401L2.23539 7.03914C1.78202 7.39176 1.55534 7.56807 1.39203 7.78887C1.24737 7.98446 1.1396 8.2048 1.07403 8.43907C1 8.70353 1 8.99071 1 9.56507V16.8C1 17.9201 1 18.4802 1.21799 18.908C1.40973 19.2843 1.71569 19.5903 2.09202 19.782C2.51984 20 3.07989 20 4.2 20H15.8C16.9201 20 17.4802 20 17.908 19.782C18.2843 19.5903 18.5903 19.2843 18.782 18.908C19 18.4802 19 17.9201 19 16.8V9.56507C19 8.99071 19 8.70353 18.926 8.43907C18.8604 8.2048 18.7526 7.98446 18.608 7.78887C18.4447 7.56807 18.218 7.39176 17.7646 7.03914L10.9823 1.76401C10.631 1.49076 10.4553 1.35413 10.2613 1.30162C10.0902 1.25528 9.9098 1.25528 9.73865 1.30162C9.54468 1.35413 9.36902 1.49076 9.0177 1.76401Z" stroke="currentColor" stroke-width="2" stroke-linecap="round" stroke-linejoin="round"/>
</symbol><symbol viewBox="0 0 22 22" fill="none" id="menuOffer" xmlns="http://www.w3.org/2000/svg">
<path d="M8 11L10 13L14.5 8.5M16.9012 3.99851C17.1071 4.49653 17.5024 4.8924 18.0001 5.09907L19.7452 5.82198C20.2433 6.02828 20.639 6.42399 20.8453 6.92206C21.0516 7.42012 21.0516 7.97974 20.8453 8.47781L20.1229 10.2218C19.9165 10.7201 19.9162 11.2803 20.1236 11.7783L20.8447 13.5218C20.9469 13.7685 20.9996 14.0329 20.9996 14.2999C20.9997 14.567 20.9471 14.8314 20.8449 15.0781C20.7427 15.3249 20.5929 15.549 20.4041 15.7378C20.2152 15.9266 19.991 16.0764 19.7443 16.1785L18.0004 16.9009C17.5023 17.1068 17.1065 17.5021 16.8998 17.9998L16.1769 19.745C15.9706 20.2431 15.575 20.6388 15.0769 20.8451C14.5789 21.0514 14.0193 21.0514 13.5212 20.8451L11.7773 20.1227C11.2792 19.9169 10.7198 19.9173 10.2221 20.1239L8.47689 20.8458C7.97912 21.0516 7.42001 21.0514 6.92237 20.8453C6.42473 20.6391 6.02925 20.2439 5.82281 19.7464L5.09972 18.0006C4.8938 17.5026 4.49854 17.1067 4.00085 16.9L2.25566 16.1771C1.75783 15.9709 1.36226 15.5754 1.15588 15.0777C0.949508 14.5799 0.949228 14.0205 1.1551 13.5225L1.87746 11.7786C2.08325 11.2805 2.08283 10.7211 1.8763 10.2233L1.15497 8.47678C1.0527 8.2301 1.00004 7.96568 1 7.69863C0.999957 7.43159 1.05253 7.16715 1.15472 6.92043C1.25691 6.67372 1.40671 6.44955 1.59557 6.26075C1.78442 6.07195 2.00862 5.92222 2.25537 5.8201L3.9993 5.09772C4.49687 4.89197 4.89248 4.4972 5.0993 4.00006L5.82218 2.25481C6.02848 1.75674 6.42418 1.36103 6.92222 1.15473C7.42027 0.948424 7.97987 0.948424 8.47792 1.15473L10.2218 1.87712C10.7199 2.08291 11.2793 2.08249 11.7771 1.87595L13.523 1.15585C14.021 0.94966 14.5804 0.949702 15.0784 1.15597C15.5763 1.36223 15.972 1.75783 16.1783 2.25576L16.9014 4.00153L16.9012 3.99851Z" stroke="currentColor" stroke-width="2" stroke-linecap="round" stroke-linejoin="round"/>
</symbol><symbol viewBox="0 0 9 11" fill="none" id="textarea" xmlns="http://www.w3.org/2000/svg">
<path d="M1 9.32867L6.09091 0.985962" stroke="currentColor" stroke-linecap="round"/>
<path d="M5 10L8.00002 4.8146" stroke="currentColor" stroke-linecap="round"/>
</symbol><symbol viewBox="0 0 24 24" fill="none" id="user" xmlns="http://www.w3.org/2000/svg">
<path d="M12.0001 15C8.83002 15 6.01089 16.5306 4.21609 18.906C3.8298 19.4172 3.63665 19.6728 3.64297 20.0183C3.64785 20.2852 3.81546 20.6219 4.02546 20.7867C4.29728 21 4.67396 21 5.42733 21H18.5729C19.3262 21 19.7029 21 19.9747 20.7867C20.1847 20.6219 20.3523 20.2852 20.3572 20.0183C20.3635 19.6728 20.1704 19.4172 19.7841 18.906C17.9893 16.5306 15.1702 15 12.0001 15Z" stroke="currentColor" stroke-width="2" stroke-linecap="round" stroke-linejoin="round"/>
<path d="M12.0001 12C14.4854 12 16.5001 9.98528 16.5001 7.5C16.5001 5.01472 14.4854 3 12.0001 3C9.51481 3 7.5001 5.01472 7.5001 7.5C7.5001 9.98528 9.51481 12 12.0001 12Z" stroke="currentColor" stroke-width="2" stroke-linecap="round" stroke-linejoin="round"/>
</symbol></svg>