<svg width="30" height="30" viewBox="0 0 30 30" fill="none" xmlns="http://www.w3.org/2000/svg">
<path d="M3.75 5.40021C3.75 4.51414 4.49479 3.79492 5.41289 3.79492H24.5871C25.5056 3.79492 26.25 4.51414 26.25 5.40021V24.5999C26.25 25.4862 25.5056 26.2049 24.5871 26.2049H5.41289C4.49487 26.2049 3.75 25.4863 3.75 24.6002V5.39995V5.40021Z" fill="#0E76A8"/>
<path d="M10.5881 22.5491V12.46H7.22116V22.5491H10.5884H10.5881ZM8.90532 11.0827C10.0792 11.0827 10.81 10.308 10.81 9.33979C10.788 8.34954 10.0792 7.59644 8.92765 7.59644C7.77531 7.59644 7.02271 8.34954 7.02271 9.33971C7.02271 10.3079 7.75325 11.0826 8.88326 11.0826H8.90506L8.90532 11.0827ZM12.4517 22.5491H15.8184V16.9155C15.8184 16.6144 15.8403 16.3124 15.9293 16.0974C16.1726 15.4946 16.7265 14.8707 17.6569 14.8707C18.8748 14.8707 19.3624 15.7959 19.3624 17.1523V22.5491H22.7289V16.7643C22.7289 13.6655 21.0682 12.2234 18.853 12.2234C17.037 12.2234 16.2394 13.2344 15.7962 13.923H15.8186V12.4603H12.4519C12.4958 13.4068 12.4516 22.5495 12.4516 22.5495L12.4517 22.5491Z" fill="white"/>
</svg>
