<svg width="56" height="69" viewBox="0 0 56 69" fill="none" xmlns="http://www.w3.org/2000/svg">
<path d="M27.9 33H30.3V47H27.54V35.92L24.9 36.66L24.22 34.3L27.9 33Z" fill="#A0C800"/>
<path d="M2.68317 6.23344H6.03291L6.9634 1.7151C7.16842 0.721207 8.05265 0 9.06567 0H46.9343C47.9479 0 48.8321 0.721207 49.0366 1.7151L49.9676 6.23344H53.3174C54.7967 6.23344 56 7.43843 56 8.9198V13.3613C56 14.8426 54.7967 16.0482 53.3174 16.0482H52.001L51.255 21.2972C51.4811 21.4277 51.6872 21.5946 51.8622 21.7962C52.3101 22.3137 52.512 22.9991 52.4158 23.6777L47.4359 58.7152C47.2986 59.6817 46.5737 60.4482 45.6579 60.6745L44.9493 65.663C44.6786 67.5655 43.0279 69 41.1091 69H14.8909C12.9721 69 11.3214 67.5655 11.0507 65.663L10.3421 60.6745C9.4263 60.4482 8.70136 59.6817 8.56415 58.7152L3.58421 23.6777C3.48801 22.9991 3.68988 22.3137 4.13777 21.7962C4.31283 21.5946 4.5189 21.4277 4.74548 21.2972L3.99899 16.0482H2.68264C1.20332 16.0482 0 14.8426 0 13.3613V8.9198C0.000526428 7.43843 1.20385 6.23344 2.68317 6.23344ZM5.58502 23.3924L10.565 58.4298C10.5886 58.5962 10.7327 58.721 10.8998 58.721H20.569C21.1268 58.721 21.5789 59.1737 21.5789 59.7328C21.5789 60.2918 21.1268 60.7446 20.569 60.7446H12.3928L13.0515 65.3782C13.1814 66.2894 13.972 66.9769 14.8915 66.9769H41.1091C42.0285 66.9769 42.8192 66.2894 42.949 65.3782L43.6072 60.7446H25.2703C24.712 60.7446 24.2599 60.2918 24.2599 59.7328C24.2599 59.1737 24.712 58.721 25.2703 58.721H45.1007C45.2679 58.721 45.4119 58.5962 45.4356 58.4298L50.4155 23.3924C50.4344 23.2592 50.374 23.166 50.3361 23.1223C50.2999 23.0807 50.221 23.0144 50.098 23.0081C50.0843 23.0075 50.0712 23.0065 50.057 23.0054H5.94355C5.92988 23.0065 5.91621 23.0075 5.90254 23.0081C5.77953 23.0144 5.70067 23.0807 5.6644 23.1223C5.62655 23.166 5.56609 23.2592 5.58502 23.3924ZM49.9597 16.0482H6.04027L6.74155 20.9824H49.2584L49.9597 16.0482ZM2.02079 13.3613C2.02079 13.7271 2.31781 14.0246 2.68317 14.0246H53.3174C53.6822 14.0246 53.9797 13.7271 53.9797 13.3613V8.9198C53.9797 8.55393 53.6822 8.2565 53.3174 8.2565H44.2769C43.7192 8.2565 43.2671 7.80377 43.2671 7.24471C43.2671 6.68616 43.7192 6.23344 44.2769 6.23344H47.9042L47.0579 2.12414C47.0458 2.0657 46.9937 2.02306 46.9343 2.02306H9.06567C9.00626 2.02306 8.95422 2.0657 8.94213 2.12414L8.09575 6.23344H39.5756C40.1339 6.23344 40.586 6.68616 40.586 7.24471C40.586 7.80377 40.1339 8.2565 39.5756 8.2565H2.68317C2.31781 8.2565 2.02079 8.55393 2.02079 8.9198V13.3613Z" fill="#A0C800"/>
</svg>
