<svg width="26" height="26" viewBox="0 0 26 26" fill="none" xmlns="http://www.w3.org/2000/svg">
<g clip-path="url(#clip0)">
<path d="M24.4936 14.9505C25.2313 8.74086 24.1392 4.82056 22.1693 3.0474L22.1703 3.04637C18.9908 0.0183132 8.25298 -0.429869 4.4491 3.18237C2.74086 4.94935 2.13916 7.54262 2.07322 10.753C2.00728 13.9645 1.92898 19.9804 7.53486 21.6124H7.54001L7.53486 24.1047C7.53486 24.1047 7.49673 25.1144 8.1417 25.3174C8.8794 25.5564 9.21322 25.0877 11.5077 22.347C15.3446 22.6798 18.2912 21.9174 18.6261 21.8061C19.4009 21.5465 23.7848 20.9664 24.4936 14.9505ZM11.8858 20.5935C11.8858 20.5935 9.4574 23.6215 8.70219 24.4077C8.45492 24.6632 8.18395 24.6395 8.18807 24.1326C8.18807 23.7998 8.20661 19.9949 8.20661 19.9949C3.45383 18.6328 3.73407 13.5101 3.78558 10.8303C3.8371 8.14947 4.32752 5.95389 5.77407 4.47541C9.11122 1.34637 18.5251 2.04595 20.9236 4.30025C23.8559 6.89971 22.8122 14.2437 22.8184 14.4941C22.2156 19.5158 18.6632 19.8341 18.0099 20.0515C17.7307 20.1443 15.1395 20.8109 11.8858 20.5935Z" fill="white"/>
<path d="M13.2291 5.06339C12.8325 5.06339 12.8325 5.68157 13.2291 5.68673C16.3067 5.71042 18.8412 7.85551 18.869 11.7902C18.869 12.2055 19.4769 12.2003 19.4718 11.7851H19.4707C19.4378 7.54539 16.6704 5.08709 13.2291 5.06339Z" fill="white"/>
<path d="M17.2768 11.1381C17.2676 11.5482 17.8744 11.5678 17.8796 11.1526C17.9301 8.8148 16.4887 6.88917 13.78 6.6862C13.3833 6.65735 13.3421 7.28068 13.7378 7.30953C16.0868 7.48777 17.3242 9.09093 17.2768 11.1381Z" fill="white"/>
<path d="M16.628 13.7976C16.119 13.5029 15.6008 13.6863 15.3865 13.9758L14.9383 14.5559C14.7106 14.8506 14.2851 14.8114 14.2851 14.8114C11.1797 13.9903 10.3493 10.7407 10.3493 10.7407C10.3493 10.7407 10.3112 10.3008 10.5956 10.0648L11.156 9.60118C11.4363 9.37863 11.6135 8.84287 11.3281 8.31639C10.5657 6.93887 10.0536 6.4639 9.79294 6.09918C9.51888 5.75608 9.10676 5.67881 8.67816 5.91063H8.66888C7.77767 6.43196 6.80198 7.40766 7.11416 8.41221C7.64682 9.47136 8.62561 12.8477 11.7454 15.3987C13.2115 16.6052 15.5317 17.8415 16.5167 18.1269L16.526 18.1414C17.4965 18.4649 18.4403 17.4511 18.9441 16.5331V16.5258C19.1677 16.0818 19.0935 15.6614 18.7669 15.3863C18.1878 14.8217 17.3142 14.1984 16.628 13.7976Z" fill="white"/>
<path d="M14.205 8.98584C15.1951 9.04354 15.6753 9.56075 15.7268 10.623C15.7453 11.0382 16.3481 11.0094 16.3295 10.5941C16.2636 9.20735 15.5403 8.43463 14.238 8.36251C13.8413 8.33881 13.8042 8.96214 14.205 8.98584Z" fill="white"/>
</g>
<defs>
<clipPath id="clip0">
<rect width="24.7273" height="24.7273" fill="white" transform="translate(0.636719 0.63636)"/>
</clipPath>
</defs>
</svg>
