<svg width="45" height="120" viewBox="0 0 45 120" fill="none" xmlns="http://www.w3.org/2000/svg">
<path d="M32.268 82.5709H32.1784L32.2068 82.2654C32.2074 82.2587 32.208 82.2521 32.2084 82.2454C32.2965 81.0074 31.8964 79.7825 31.1382 78.9687C30.5562 78.344 29.803 78 29.0173 78C29.0169 78 29.0165 78 29.0162 78L14.7232 78.0057C13.9373 78.0061 13.1837 78.3505 12.6014 78.9757C11.8431 79.7898 11.4426 81.0147 11.53 82.2524C11.5305 82.2591 11.5311 82.2658 11.5316 82.2725L11.5598 82.5781C10.3926 82.6667 9.46973 83.6439 9.46973 84.8334V86.2202C9.46973 87.4677 10.4847 88.4827 11.7322 88.4827H12.1046L14.0115 109.15C14.0559 109.632 14.4598 110 14.9432 110H14.9436L28.7832 109.994C29.2663 109.994 29.6698 109.626 29.7144 109.145L31.6302 88.4827H32.268C33.5156 88.4827 34.5305 87.4678 34.5305 86.2202V84.8335C34.5305 83.5859 33.5156 82.5709 32.268 82.5709ZM13.9706 80.2511C14.1295 80.0805 14.3892 79.877 14.7239 79.8769L29.0169 79.8712H29.0173C29.3514 79.8712 29.6106 80.0741 29.7692 80.2443C30.178 80.683 30.3921 81.3773 30.3426 82.1032L30.2992 82.5709H13.4384L13.396 82.1112C13.3469 81.3852 13.5614 80.6905 13.9706 80.2511ZM28.5846 101.062H15.1445L14.4013 93.0073H29.3315L28.5846 101.062ZM15.7965 108.128L15.3171 102.933H28.4112L27.9299 108.123L15.7965 108.128ZM29.505 91.1361H14.2286L13.9838 88.4827H29.751L29.505 91.1361ZM32.6593 86.2202C32.6593 86.436 32.4838 86.6115 32.268 86.6115H11.7323C11.5165 86.6115 11.341 86.436 11.341 86.2202V84.8335C11.341 84.6177 11.5165 84.4422 11.7323 84.4422H32.268C32.4837 84.4422 32.6592 84.6177 32.6592 84.8335V86.2202H32.6593Z" fill="#373737"/>
<g clip-path="url(#clip0)">
<path d="M32.268 43.5709H32.1784L32.2068 43.2654C32.2074 43.2587 32.208 43.2521 32.2084 43.2454C32.2965 42.0074 31.8964 40.7825 31.1382 39.9687C30.5562 39.344 29.803 39 29.0173 39C29.0169 39 29.0165 39 29.0162 39L14.7232 39.0057C13.9373 39.0061 13.1837 39.3505 12.6014 39.9757C11.8431 40.7898 11.4426 42.0147 11.53 43.2524C11.5305 43.2591 11.5311 43.2658 11.5316 43.2725L11.5598 43.5781C10.3926 43.6667 9.46973 44.6439 9.46973 45.8334V47.2202C9.46973 48.4677 10.4847 49.4827 11.7322 49.4827H12.1046L14.0115 70.1503C14.0559 70.6317 14.4598 71 14.9432 71H14.9436L28.7832 70.994C29.2663 70.9938 29.6698 70.6258 29.7144 70.1448L31.6302 49.4827H32.268C33.5156 49.4827 34.5305 48.4678 34.5305 47.2202V45.8335C34.5305 44.5859 33.5156 43.5709 32.268 43.5709ZM13.9706 41.2511C14.1295 41.0805 14.3892 40.877 14.7239 40.8769L29.0169 40.8712H29.0173C29.3514 40.8712 29.6106 41.0741 29.7692 41.2443C30.178 41.683 30.3921 42.3773 30.3426 43.1032L30.2992 43.5709H13.4384L13.396 43.1112C13.3469 42.3852 13.5614 41.6905 13.9706 41.2511ZM28.5846 62.0619H15.1445L14.4013 54.0073H29.3315L28.5846 62.0619ZM15.7965 69.1284L15.3171 63.9331H28.4112L27.9299 69.1232L15.7965 69.1284ZM29.505 52.1361H14.2286L13.9838 49.4827H29.751L29.505 52.1361ZM32.6593 47.2202C32.6593 47.436 32.4838 47.6115 32.268 47.6115H11.7323C11.5165 47.6115 11.341 47.436 11.341 47.2202V45.8335C11.341 45.6177 11.5165 45.4422 11.7323 45.4422H32.268C32.4837 45.4422 32.6592 45.6177 32.6592 45.8335V47.2202H32.6593Z" fill="#373737"/>
</g>
<rect x="1.75" y="1.75" width="41.5" height="116.5" rx="2.25" stroke="#373737" stroke-width="2.5"/>
<circle cx="21.5" cy="33.5" r="1.5" fill="#A0C800"/>
<circle cx="21.5" cy="28.5" r="1.5" fill="#A0C800"/>
<circle cx="21.5" cy="23.5" r="1.5" fill="#A0C800"/>
<rect x="11" y="10" width="22" height="2.5" rx="1.25" fill="#A0C800"/>
<rect x="16" y="15" width="11" height="2.5" rx="1.25" fill="#A0C800"/>
<defs>
<clipPath id="clip0">
<rect width="32" height="32" fill="white" transform="translate(6 39)"/>
</clipPath>
</defs>
</svg>
