<svg width="69" height="69" viewBox="0 0 69 69" fill="none" xmlns="http://www.w3.org/2000/svg">
<g clip-path="url(#clip0)">
<path d="M63.8748 17.778C63.8722 17.7409 63.8658 17.7039 63.8594 17.6655C63.836 17.5189 63.7871 17.3776 63.7151 17.2477V17.2388C63.7151 17.2298 63.701 17.2247 63.6946 17.2158C63.6195 17.0982 63.5255 16.9942 63.4161 16.9078C63.3891 16.8843 63.361 16.8621 63.3317 16.8414C63.3087 16.8248 63.2896 16.8043 63.2653 16.789L35.1543 0.177951C34.7531 -0.0592356 34.2546 -0.0592356 33.8535 0.177951L5.74255 16.789C5.35219 17.018 5.11197 17.4365 5.11133 17.8891V51.1112C5.11117 51.5631 5.34979 51.9814 5.73871 52.2114L33.8497 68.8224C33.8826 68.8384 33.9163 68.8524 33.9506 68.8646C33.9877 68.8825 34.0235 68.8978 34.0618 68.9119C34.3421 69.0294 34.658 69.0294 34.9384 68.9119C34.9767 68.8978 35.0125 68.8825 35.0495 68.8646C35.0839 68.8524 35.1176 68.8384 35.1505 68.8224L63.2615 52.2114C63.6504 51.9814 63.889 51.5631 63.8888 51.1112V17.8891C63.8888 17.8508 63.8773 17.815 63.8748 17.778ZM25.3423 8.17297L36.4052 14.71C37.0048 15.0822 37.7926 14.8979 38.1647 14.2984C38.5369 13.6989 38.3526 12.9111 37.7531 12.539C37.7376 12.5294 37.722 12.5201 37.706 12.5112L27.8557 6.68964L34.5001 2.76304L60.099 17.8893L53.4546 21.8159L41.5406 14.7754C40.933 14.4162 40.1493 14.6176 39.7901 15.2252C39.4308 15.8327 39.6323 16.6165 40.2398 16.9757L50.9425 23.3007L44.298 27.2273L18.6979 12.101L25.3423 8.17297ZM52.1755 25.5392V34.0721L45.5745 37.9732V29.4402L52.1755 25.5392ZM61.3333 50.3816L35.7779 65.4823V61.3334C35.7779 60.6277 35.2057 60.0556 34.5001 60.0556C33.7944 60.0556 33.2223 60.6277 33.2223 61.3334V65.4823L7.66687 50.3816V18.6188L16.1858 13.5843L41.7834 28.7119L34.5001 33.0154L11.3647 19.3433C10.7572 18.984 9.97341 19.1854 9.6142 19.793C9.25498 20.4006 9.45639 21.1844 10.064 21.5436L33.2223 35.2298V56.2223C33.2223 56.928 33.7944 57.5001 34.5001 57.5001C35.2057 57.5001 35.7779 56.928 35.7779 56.2223V35.2298L43.019 30.9505V40.2118C43.0188 40.9175 43.5908 41.4898 44.2964 41.4899C44.5253 41.4899 44.75 41.4286 44.9471 41.312L54.1037 35.9057C54.4926 35.6757 54.7312 35.2574 54.731 34.8056V24.0301L61.3333 20.1278V50.3816Z" fill="#373737"/>
<path d="M11.4999 42.1668C10.7943 42.1668 10.2222 42.7389 10.2222 43.4446V48.5557C10.2222 49.2613 10.7943 49.8334 11.4999 49.8334C12.2056 49.8334 12.7777 49.2613 12.7777 48.5557V43.4446C12.7777 42.7389 12.2056 42.1668 11.4999 42.1668Z" fill="#A0C800"/>
<path d="M16.6113 44.7224C15.9056 44.7224 15.3335 45.2945 15.3335 46.0001V51.1112C15.3335 51.8169 15.9056 52.389 16.6113 52.389C17.3169 52.389 17.889 51.8169 17.889 51.1112V46.0001C17.889 45.2945 17.3169 44.7224 16.6113 44.7224Z" fill="#A0C800"/>
</g>
<defs>
<clipPath id="clip0">
<rect width="69" height="69" fill="white"/>
</clipPath>
</defs>
</svg>
