<svg width="73" height="69" viewBox="0 0 73 69" fill="none" xmlns="http://www.w3.org/2000/svg">
<path d="M19.7854 41.1101C20.2325 41.496 20.9078 41.446 21.2936 40.9989L22.3343 39.7927V44.3357C22.3343 44.9262 22.8131 45.405 23.4036 45.405C23.9942 45.405 24.473 44.9262 24.473 44.3357V39.7927L25.5136 40.9989C25.7251 41.2442 26.0236 41.3698 26.3238 41.3698C26.5711 41.3698 26.8198 41.2844 27.0218 41.1101C27.4691 40.7243 27.5187 40.0492 27.133 39.6019L24.2133 36.2177C24.0102 35.9822 23.7146 35.8469 23.4036 35.8469C23.0927 35.8469 22.7971 35.9822 22.5939 36.2177L19.6742 39.6019C19.2885 40.0492 19.3381 40.7245 19.7854 41.1101Z" fill="#A0C800"/>
<path d="M27.6395 48.0907C27.6395 47.5001 27.1607 47.0214 26.5701 47.0214H20.2378C19.6472 47.0214 19.1685 47.5001 19.1685 48.0907C19.1685 48.6813 19.6472 49.16 20.2378 49.16H26.57C27.1607 49.16 27.6395 48.6813 27.6395 48.0907Z" fill="#A0C800"/>
<path d="M45.9783 41.1101C46.4254 41.496 47.1007 41.446 47.4865 40.9989L48.5272 39.7927V44.3357C48.5272 44.9262 49.0059 45.405 49.5965 45.405C50.1871 45.405 50.6658 44.9262 50.6658 44.3357V39.7927L51.7065 40.9989C51.918 41.2442 52.2165 41.3698 52.5166 41.3698C52.764 41.3698 53.0127 41.2844 53.2147 41.1101C53.662 40.7243 53.7116 40.0492 53.3259 39.6019L50.4062 36.2177C50.203 35.9822 49.9075 35.8469 49.5965 35.8469C49.2855 35.8469 48.99 35.9822 48.7868 36.2177L45.8671 39.6019C45.4814 40.0492 45.531 40.7245 45.9783 41.1101Z" fill="#A0C800"/>
<path d="M46.4302 49.16H52.7624C53.3529 49.16 53.8317 48.6813 53.8317 48.0907C53.8317 47.5001 53.3529 47.0214 52.7624 47.0214H46.4302C45.8396 47.0214 45.3608 47.5001 45.3608 48.0907C45.3608 48.6813 45.8396 49.16 46.4302 49.16Z" fill="#A0C800"/>
<path d="M49.9499 21.7564H44.7129C44.1223 21.7564 43.6436 22.2352 43.6436 22.8257C43.6436 23.4163 44.1223 23.8951 44.7129 23.8951H49.9499C50.5405 23.8951 51.0193 23.4163 51.0193 22.8257C51.0193 22.2352 50.5405 21.7564 49.9499 21.7564Z" fill="#A0C800"/>
<path d="M49.9499 18.2689H44.7129C44.1223 18.2689 43.6436 18.7476 43.6436 19.3382C43.6436 19.9288 44.1223 20.4075 44.7129 20.4075H49.9499C50.5405 20.4075 51.0193 19.9288 51.0193 19.3382C51.0193 18.7476 50.5405 18.2689 49.9499 18.2689Z" fill="#A0C800"/>
<path d="M24.4613 14.9176C24.9084 15.3035 25.5836 15.2536 25.9694 14.8064L27.0101 13.6002V18.1432C27.0101 18.7337 27.4889 19.2125 28.0795 19.2125C28.67 19.2125 29.1488 18.7337 29.1488 18.1432V13.6002L30.1895 14.8064C30.4009 15.0517 30.6995 15.1773 30.9996 15.1773C31.247 15.1773 31.4956 15.0919 31.6977 14.9176C32.1449 14.5318 32.1946 13.8567 31.8089 13.4095L28.8892 10.0251C28.686 9.78954 28.3904 9.65424 28.0795 9.65424C27.7685 9.65424 27.4729 9.78954 27.2698 10.0251L24.35 13.4095C23.9642 13.8566 24.014 14.5318 24.4613 14.9176Z" fill="#A0C800"/>
<path d="M31.2453 20.8288H24.9131C24.3225 20.8288 23.8438 21.3076 23.8438 21.8981C23.8438 22.4887 24.3225 22.9675 24.9131 22.9675H31.2453C31.8358 22.9675 32.3146 22.4887 32.3146 21.8981C32.3146 21.3076 31.8358 20.8288 31.2453 20.8288Z" fill="#A0C800"/>
<path d="M71.5029 58.5684C72.3285 58.5684 73 57.8968 73 57.0713V53.8821C73 53.0566 72.3285 52.3851 71.5029 52.3851H63.7619V27.6897C63.7619 26.8641 63.0904 26.1926 62.2649 26.1926H59.2319V17.4752C59.2319 16.8847 58.7532 16.4059 58.1626 16.4059C57.572 16.4059 57.0933 16.8847 57.0933 17.4752V26.1926H37.5693V6.66852H43.4036V10.0103C43.4036 10.8037 44.0492 11.4493 44.8427 11.4493H49.8199C50.6134 11.4493 51.259 10.8037 51.259 10.0103V6.66852H57.0933V12.485C57.0933 13.0756 57.572 13.5543 58.1626 13.5543C58.7532 13.5543 59.2319 13.0756 59.2319 12.485V6.02692C59.2319 5.20139 58.5604 4.52985 57.7349 4.52985H42.2448V1.49707C42.2448 0.671543 41.5732 0 40.7477 0H15.4104C14.5849 0 13.9133 0.671543 13.9133 1.49707V26.1926H10.7351C9.90961 26.1926 9.23806 26.8641 9.23806 27.6897V52.3852H1.49707C0.671543 52.3852 0 53.0567 0 53.8823V57.0715C0 57.897 0.671543 58.5685 1.49707 58.5685H5.03443V62.4159H1.49707C0.671543 62.4159 0 63.0874 0 63.9129V67.1021C0 67.9276 0.671543 68.5992 1.49707 68.5992H53.752C54.3425 68.5992 54.8213 68.1204 54.8213 67.5298C54.8213 66.9393 54.3425 66.4605 53.752 66.4605H2.13867V64.5545H70.8613V66.4605H58.7422C58.1516 66.4605 57.6729 66.9393 57.6729 67.5298C57.6729 68.1204 58.1516 68.5992 58.7422 68.5992H71.5029C72.3285 68.5992 73 67.9276 73 67.1021V63.9129C73 63.0874 72.3285 62.4159 71.5029 62.4159H69.9604V58.5685H71.5029V58.5684ZM45.5423 6.66852H49.1202V9.31064H45.5423V6.66852ZM47.2096 28.3313H51.9828V31.973H47.2096V28.3313ZM45.0709 28.3313V32.5955C45.0709 33.4316 45.7512 34.1118 46.5873 34.1118H52.6052C53.4413 34.1118 54.1215 33.4316 54.1215 32.5955V28.3313H61.6233V52.3852H37.5693V28.3313H45.0709ZM25.6924 2.13867H30.4657V5.78054H25.6924V2.13867ZM16.052 2.13867H23.5536V6.4029C23.5536 7.23898 24.2339 7.91922 25.0699 7.91922H31.0879C31.924 7.91922 32.6042 7.23898 32.6042 6.4029V2.13867H40.1059V4.52985H36.9277C36.1022 4.52985 35.4307 5.20139 35.4307 6.02692V26.1926H16.052V2.13867ZM25.7904 28.3313V31.973H21.0172V28.3313H25.7904ZM16.2431 62.4157H7.17311V58.5684H16.2431V62.4157ZM27.6416 62.4157H18.3817V58.5684H27.6416V62.4157ZM45.2145 62.4157H29.7803V58.5684H45.2144V62.4157H45.2145ZM56.6131 62.4157H47.3532V58.5684H56.6131V62.4157ZM67.8217 62.4157H58.7517V58.5684H67.8217V62.4157ZM2.13867 56.4297V54.5237H19.5332C20.1238 54.5237 20.6025 54.0449 20.6025 53.4544C20.6025 52.8638 20.1238 52.3851 19.5332 52.3851H11.3767V28.3313H18.8785V32.5955C18.8785 33.4316 19.5587 34.1118 20.3948 34.1118H26.4127C27.2488 34.1118 27.9291 33.4316 27.9291 32.5955V28.3313H35.4307V52.3852H24.5234C23.9329 52.3852 23.4541 52.864 23.4541 53.4545C23.4541 54.0451 23.9329 54.5239 24.5234 54.5239H70.8613V56.4299H2.13867V56.4297Z" fill="#373737"/>
</svg>
