<svg width="67" height="67" viewBox="0 0 67 67" fill="none" xmlns="http://www.w3.org/2000/svg">
<g clip-path="url(#clip0)">
<path d="M18.0588 47.6982C13.11 47.9037 13.1138 54.9536 18.0588 55.1572H28.2659C33.2147 54.9518 33.2109 47.9019 28.2659 47.6982H18.0588ZM30.0325 51.4277C30.0325 52.4019 29.24 53.1943 28.2659 53.1943H18.0588C15.7146 53.0971 15.7165 49.7574 18.0588 49.6611H28.2659C29.24 49.6611 30.0325 50.4536 30.0325 51.4277Z" fill="#A0C800"/>
<path d="M60.5053 10.4033H55.5094C54.2098 10.4483 54.2109 12.3217 55.5094 12.3662H60.5053C61.3806 12.3662 62.0928 13.0782 62.0928 13.9537V40.2221C62.0928 41.0974 61.3808 41.8096 60.5053 41.8096H15.3931C14.5178 41.8096 13.8057 41.0976 13.8057 40.2221V38.9079H24.3398C30.1569 38.6663 30.1525 30.3797 24.3398 30.1403H13.8057V13.9537C13.8057 13.0783 14.5177 12.3662 15.3931 12.3662H50.8959C52.1955 12.3212 52.1944 10.4478 50.8959 10.4033H43.3799V6.21582C43.3799 2.78848 40.5914 0 37.1641 0H9.16016C5.73282 0 2.94434 2.78848 2.94434 6.21582V11.8479C2.98935 13.1474 4.86273 13.1464 4.90723 11.8479V6.21582C4.90723 3.87069 6.81503 1.96289 9.16016 1.96289H37.1641C39.5092 1.96289 41.417 3.87069 41.417 6.21582V10.4033H39.9775V6.21582C39.9775 4.66448 38.7154 3.40234 37.1641 3.40234H31.9166C31.1932 3.40234 30.5485 3.86153 30.3119 4.54619L29.6831 6.37547H16.6409L16.0116 4.54488C15.7755 3.86153 15.1309 3.40247 14.4074 3.40247H9.16016C7.60882 3.40247 6.34668 4.66461 6.34668 6.21595V60.7843C6.34668 62.3356 7.60882 63.5978 9.16016 63.5978H37.1641C38.7154 63.5978 39.9775 62.3356 39.9775 60.7843V57.7157C39.9325 56.4161 38.0591 56.4171 38.0146 57.7157V60.7843C38.0146 61.2533 37.6331 61.6349 37.1641 61.6349H9.16016C8.69116 61.6349 8.30957 61.2533 8.30957 60.7843V6.21595C8.30957 5.74695 8.69116 5.36537 9.16016 5.36537H14.2181L14.8474 7.19583C15.0834 7.8793 15.728 8.33836 16.4516 8.33836H29.8726C30.5961 8.33836 31.2408 7.87917 31.4773 7.19452L32.1061 5.36523H37.1641C37.6331 5.36523 38.0146 5.74682 38.0146 6.21582V10.4033H15.3931C13.4355 10.4033 11.8428 11.996 11.8428 13.9537V40.2221C11.8428 42.1798 13.4355 43.7725 15.3931 43.7725H38.0146V53.1385C38.0597 54.438 39.933 54.437 39.9775 53.1385V43.7725H41.417V60.7842C41.417 63.1293 39.5092 65.0371 37.1641 65.0371H9.16016C6.81503 65.0371 4.90723 63.1293 4.90723 60.7842V16.4883C4.86221 15.1887 2.98883 15.1898 2.94434 16.4883V60.7842C2.94434 64.2115 5.73282 67 9.16016 67H37.1641C40.5914 67 43.3799 64.2115 43.3799 60.7842V43.7725H60.5053C62.463 43.7725 64.0557 42.1798 64.0557 40.2221V13.9537C64.0557 11.996 62.463 10.4033 60.5053 10.4033ZM24.3398 32.1032C27.5523 32.2366 27.5498 36.8128 24.3398 36.945H13.8057V32.1032H24.3398Z" fill="#A0C800"/>
<path d="M45.4322 39.2257C45.9385 39.4189 46.5057 39.1645 46.6988 38.6579L47.1658 37.4315H50.3773L50.8391 38.6552C51.0299 39.1674 51.61 39.4172 52.1039 39.2268C52.611 39.0355 52.8669 38.4692 52.6755 37.962L49.8593 30.4995C49.856 30.4905 49.8523 30.4815 49.8487 30.4724C49.67 30.0386 49.2517 29.7585 48.7826 29.7585H48.781C48.3112 29.759 47.8928 30.0403 47.7151 30.4753C47.7121 30.4826 47.7093 30.4898 47.7065 30.4972L44.8644 37.9593C44.6714 38.4657 44.9257 39.0327 45.4322 39.2257ZM48.7789 33.1961L49.6365 35.4686H47.9134L48.7789 33.1961Z" fill="#A0C800"/>
<path d="M54.3936 34.7334L54.3848 38.3061C54.3835 38.8482 54.8219 39.2887 55.3638 39.29H55.3663C55.9072 39.29 56.3464 38.8522 56.3477 38.3111L56.3565 34.7347L58.596 31.2944C58.8917 30.84 58.7632 30.2322 58.309 29.9365C57.8548 29.6405 57.2467 29.7691 56.9511 30.2234L55.3745 32.6452L53.78 30.2031C53.4833 29.7492 52.8756 29.6219 52.4216 29.9179C51.9677 30.2143 51.84 30.8224 52.1363 31.2763L54.3936 34.7334Z" fill="#A0C800"/>
<path d="M39.3137 38.3086C39.3587 39.6081 41.2321 39.6071 41.2766 38.3086V35.9971C41.691 35.995 42.14 35.9931 42.4025 35.9931C46.5941 35.8212 46.5921 29.9294 42.4025 29.7584H40.2951C39.7667 29.7479 39.3017 30.2147 39.3137 30.7428V38.3086ZM42.4025 31.7212C43.0509 31.7212 43.5988 32.2499 43.5988 32.8757C43.5988 33.5015 43.0509 34.0301 42.4025 34.0301C42.1417 34.0301 41.6981 34.032 41.2859 34.034C41.2807 33.0603 41.2825 32.7243 41.2795 31.7211H42.4025V31.7212Z" fill="#A0C800"/>
<path d="M19.498 15.5068C18.5239 15.5068 17.7314 16.2993 17.7314 17.2734V22.5078C17.7314 23.4819 18.5239 24.2744 19.498 24.2744H27.6113C28.5854 24.2744 29.3779 23.4819 29.3779 22.5078V17.2734C29.3779 16.2993 28.5854 15.5068 27.6113 15.5068H19.498ZM27.415 22.3115H19.6943V17.4697H27.415V22.3115Z" fill="#A0C800"/>
<path d="M35.8428 18.8528V20.4231C35.8878 21.7227 37.7612 21.7216 37.8057 20.4231V18.8528C37.7608 17.5532 35.8873 17.5543 35.8428 18.8528Z" fill="#A0C800"/>
<path d="M53.0117 21.4045C53.5539 21.4045 53.9932 20.9652 53.9932 20.4231V18.8528C53.9481 17.5532 52.0748 17.5543 52.0303 18.8528V20.4231C52.0303 20.9652 52.4697 21.4045 53.0117 21.4045Z" fill="#A0C800"/>
<path d="M57.4922 20.4231V18.8528C57.4472 17.5532 55.5738 17.5543 55.5293 18.8528V20.4231C55.5742 21.7227 57.4477 21.7217 57.4922 20.4231Z" fill="#A0C800"/>
<path d="M42.8857 20.4231V18.8528C42.8407 17.5532 40.9673 17.5543 40.9229 18.8528V20.4231C40.9677 21.7227 42.8412 21.7217 42.8857 20.4231Z" fill="#A0C800"/>
<path d="M45.6123 21.4045C46.1545 21.4045 46.5938 20.9652 46.5938 20.4231V18.8528C46.5487 17.5532 44.6754 17.5543 44.6309 18.8528V20.4231C44.6309 20.9652 45.0702 21.4045 45.6123 21.4045Z" fill="#A0C800"/>
</g>
<defs>
<clipPath id="clip0">
<rect width="67" height="67" fill="white"/>
</clipPath>
</defs>
</svg>
