<svg width="56" height="56" viewBox="0 0 56 56" fill="none" xmlns="http://www.w3.org/2000/svg">
<path d="M28 42.2188C27.3963 42.2188 26.9062 42.7088 26.9062 43.3125C26.9062 43.9162 27.3963 44.4062 28 44.4062C28.6037 44.4062 29.0938 43.9162 29.0938 43.3125C29.0938 42.7088 28.6037 42.2188 28 42.2188Z" fill="#A0C800"/>
<path d="M51.3064 6.71234C48.6149 5.62833 45.1155 5.03125 41.4531 5.03125C37.7907 5.03125 34.2914 5.62833 31.5999 6.71234C30.0093 7.35295 28.7949 8.13586 28 9.01436C27.2051 8.13586 25.9907 7.35306 24.4001 6.71245C21.7086 5.62833 18.2093 5.03125 14.5469 5.03125C10.8845 5.03125 7.38511 5.62833 4.69361 6.71234C1.66687 7.93144 0 9.66503 0 11.5938V37.8438C0 39.7725 1.66687 41.5061 4.69361 42.7252C7.19687 43.7334 10.3992 44.3196 13.7812 44.3968V44.4062C13.7812 48.1475 19.894 50.9688 28 50.9688C36.106 50.9688 42.2188 48.1475 42.2188 44.4062V44.3968C45.6008 44.3196 48.8031 43.7334 51.3064 42.7252C54.3331 41.5061 56 39.7725 56 37.8438V11.5938C56 9.66503 54.3331 7.93144 51.3064 6.71234ZM53.8125 31.2812C53.8125 32.215 52.539 33.3079 50.4891 34.1335C48.2705 35.0271 45.2918 35.5678 42.2188 35.6454V31.2812C42.2188 31.2781 42.2185 31.2749 42.2185 31.2718C45.6007 31.1947 48.803 30.6085 51.3065 29.6002C52.289 29.2044 53.1272 28.7542 53.8126 28.261L53.8125 31.2812ZM26.9062 18.1562C26.9062 19.09 25.6328 20.1829 23.5829 21.0085C21.1803 21.9763 17.8867 22.5312 14.5469 22.5312C11.207 22.5312 7.9135 21.9763 5.51086 21.0085C3.46095 20.1829 2.1875 19.09 2.1875 18.1562V15.136C2.87295 15.6293 3.71109 16.0794 4.69361 16.4752C7.38511 17.5592 10.8845 18.1562 14.5469 18.1562C18.2093 18.1562 21.7086 17.5592 24.4001 16.4752C25.3827 16.0794 26.2208 15.6293 26.9062 15.136V18.1562ZM4.69361 23.0377C7.38511 24.1217 10.8845 24.7188 14.5469 24.7188C18.2093 24.7188 21.7086 24.1217 24.4001 23.0377C25.3827 22.6419 26.2208 22.1917 26.9062 21.6985V24.7381C24.0767 24.8339 21.3631 25.2983 19.1683 26.0713C16.9669 26.8466 15.3828 27.8806 14.5214 29.0934C11.1903 29.0906 7.90737 28.5363 5.51086 27.571C3.46095 26.7454 2.1875 25.6525 2.1875 24.7188V21.6985C2.87295 22.1917 3.71109 22.6419 4.69361 23.0377ZM2.1875 28.261C2.87295 28.7542 3.71109 29.2044 4.69361 29.6002C7.19698 30.6084 10.3994 31.1946 13.7816 31.2718C13.7816 31.275 13.7814 31.2782 13.7814 31.2812V35.6454C10.7083 35.5678 7.72964 35.0271 5.51097 34.1335C3.46095 33.3079 2.1875 32.215 2.1875 31.2812V28.261ZM16.0845 30.7439C16.895 28.8575 21.5736 26.9062 28 26.9062C34.4264 26.9062 39.105 28.8575 39.9147 30.7417C39.9932 30.9256 40.0312 31.102 40.0312 31.2812C40.0312 32.2429 38.8457 33.311 36.8599 34.1385C34.511 35.1172 31.3645 35.6562 28 35.6562C24.6355 35.6562 21.489 35.1172 19.1401 34.1385C17.1543 33.311 15.9688 32.2429 15.9688 31.2812C15.9688 31.102 16.0069 30.9256 16.0845 30.7439ZM53.8125 24.7188C53.8125 25.6525 52.539 26.7454 50.4891 27.571C48.0927 28.5363 44.81 29.0906 41.4789 29.0934C40.6182 27.8812 39.0339 26.8469 36.8317 26.0713C34.6369 25.2982 31.9233 24.8339 29.0938 24.7381V21.6985C29.7792 22.1917 30.6173 22.6419 31.5999 23.0377C34.2914 24.1217 37.7907 24.7188 41.4531 24.7188C45.1155 24.7188 48.6149 24.1217 51.3064 23.0377C52.2889 22.6419 53.127 22.1917 53.8125 21.6985V24.7188ZM53.8125 18.1562C53.8125 19.09 52.539 20.1829 50.4891 21.0085C48.0865 21.9763 44.793 22.5312 41.4531 22.5312C38.1133 22.5312 34.8198 21.9763 32.4171 21.0085C30.3672 20.1829 29.0938 19.09 29.0938 18.1562V15.136C29.7792 15.6293 30.6173 16.0794 31.5999 16.4752C34.2914 17.5592 37.7907 18.1562 41.4531 18.1562C45.1155 18.1562 48.6149 17.5592 51.3064 16.4752C52.2889 16.0794 53.127 15.6293 53.8125 15.136V18.1562ZM32.4171 8.74147C34.8198 7.77372 38.1133 7.21875 41.4531 7.21875C44.793 7.21875 48.0865 7.77372 50.4891 8.74147C52.539 9.56714 53.8125 10.66 53.8125 11.5938C53.8125 12.5275 52.539 13.6204 50.4891 14.446C48.0865 15.4138 44.793 15.9688 41.4531 15.9688C38.1133 15.9688 34.8198 15.4138 32.4171 14.446C30.3672 13.6204 29.0938 12.5275 29.0938 11.5938C29.0938 10.66 30.3672 9.56714 32.4171 8.74147ZM5.51086 8.74147C7.9135 7.77372 11.207 7.21875 14.5469 7.21875C17.8867 7.21875 21.1803 7.77372 23.5829 8.74147C25.6328 9.56714 26.9062 10.66 26.9062 11.5938C26.9062 12.5275 25.6328 13.6204 23.5829 14.446C21.1803 15.4138 17.8867 15.9688 14.5469 15.9688C11.207 15.9688 7.9135 15.4138 5.51086 14.446C3.46095 13.6204 2.1875 12.5275 2.1875 11.5938C2.1875 10.66 3.46095 9.56714 5.51086 8.74147ZM5.51086 40.696C3.46095 39.8704 2.1875 38.7775 2.1875 37.8438V34.8235C2.87295 35.3167 3.71109 35.7669 4.69361 36.1627C7.19687 37.1709 10.3992 37.7571 13.7812 37.8343V42.208C10.7081 42.1303 7.72953 41.5897 5.51086 40.696ZM36.8599 47.2635C34.511 48.2422 31.3645 48.7812 28 48.7812C24.6355 48.7812 21.489 48.2422 19.1401 47.2635C17.1543 46.436 15.9688 45.3679 15.9688 44.4062V41.4497C16.2165 41.629 16.4903 41.8072 16.7939 41.9828C18.4924 42.9657 20.8033 43.6927 23.4771 44.0851C23.531 44.093 23.5844 44.0968 23.6374 44.0968C24.1711 44.0968 24.6383 43.7056 24.7181 43.1618C24.8058 42.5642 24.3924 42.0085 23.7949 41.9208C18.7117 41.1745 15.9688 39.2633 15.9688 37.8438V34.8775C18.4443 36.689 22.8142 37.8438 28 37.8438C33.1858 37.8438 37.5557 36.689 40.0312 34.8775V37.8438C40.0312 39.2633 37.2883 41.1745 32.2051 41.9208C31.6075 42.0085 31.1941 42.5642 31.2819 43.1618C31.3618 43.7057 31.8289 44.0968 32.3626 44.0968C32.4155 44.0968 32.4691 44.093 32.5229 44.0851C35.1965 43.6927 37.5075 42.9658 39.2061 41.9828C39.5096 41.8072 39.7835 41.629 40.0312 41.4497V44.4062C40.0312 45.3679 38.8457 46.436 36.8599 47.2635ZM50.4891 40.696C48.2705 41.5896 45.2918 42.1303 42.2188 42.2079V37.8342C45.6008 37.757 48.8031 37.1708 51.3064 36.1625C52.2889 35.7668 53.127 35.3166 53.8125 34.8234V37.8438C53.8125 38.7775 52.539 39.8704 50.4891 40.696Z" fill="#A0C800"/>
</svg>
