<svg width="160" height="25" viewBox="0 0 160 25" fill="none" xmlns="http://www.w3.org/2000/svg">
<g clip-path="url(#clip0)">
<path d="M6.39999 6.875C6.39999 6.25 6.39999 6.25 6.39999 5.625C6.39999 5 7.03999 4.375 8.31999 4.375C9.59999 4.375 10.24 5 10.24 6.25V7.5H16V5.625C16 0.625 11.52 0 8.31999 0C4.47999 0 0.639992 1.25 0.639992 5C0.639992 6.25 0.639992 6.875 0.639992 8.125C1.91999 12.5 9.59999 13.75 10.88 16.875C10.88 17.5 10.88 18.125 10.88 18.75C10.88 19.375 10.24 20 8.95999 20C7.67999 20 6.39999 19.375 6.39999 18.125V16.25H-7.62939e-06V18.125C-7.62939e-06 23.125 3.83999 24.375 8.31999 24.375C12.16 24.375 16 23.125 16.64 19.375C16.64 17.5 16.64 16.25 16.64 15.625C15.36 11.25 7.03999 10 6.39999 6.875ZM80.64 6.875C80.64 6.25 80.64 6.25 80.64 5.625C80.64 5 81.28 4.375 82.56 4.375C83.84 4.375 84.48 5 84.48 6.25V7.5H90.24V6.25C90.24 1.25 85.76 0.625 82.56 0.625C78.72 0.625 75.52 1.875 74.88 5.625C74.88 6.875 74.88 7.5 74.88 8.75C76.16 13.125 83.84 14.375 85.12 17.5C85.12 18.125 85.12 18.75 85.12 19.375C85.12 20 84.48 20.625 83.2 20.625C81.92 20.625 80.64 20 80.64 18.75V16.875H74.88V18.75C74.88 23.75 78.72 25 83.2 25C87.04 25 90.88 23.75 90.88 20C90.88 18.125 90.88 16.875 90.88 16.25C89.6 11.25 81.28 10 80.64 6.875ZM132.48 19.375L127.36 1.25H119.04V23.125H124.8L124.16 4.375L129.92 23.125H138.24V1.25H132.48V19.375ZM24.96 1.25L20.48 23.75H26.88L30.08 3.125L33.28 23.75H39.68L35.2 1.25H24.96ZM58.88 1.25L55.68 18.75L53.12 1.25H43.52L42.88 23.75H48.64V3.125L52.48 23.75H58.24L62.08 3.125V23.75H67.84L67.2 1.25H58.88ZM112 1.25H106.24V17.5V18.125C106.24 18.75 105.6 20 104.32 20C103.04 20 102.4 18.75 102.4 18.125V17.5V1.25H96.64V17.5C96.64 18.125 96.64 18.75 96.64 18.75C97.28 23.125 100.48 24.375 104.32 24.375C108.8 24.375 112 23.125 112 18.75V17.5V1.25ZM151.68 11.25V14.375H154.24V17.5V18.125C154.24 18.75 153.6 20 151.68 20C149.76 20 149.76 18.75 149.12 18.125V17.5V7.5C149.12 6.875 149.12 6.875 149.12 6.25C149.12 5.625 149.76 4.375 151.68 4.375C153.6 4.375 153.6 5.625 154.24 6.25C154.24 6.875 154.24 6.875 154.24 6.875V8.125H160V7.5C160 7.5 160 6.875 160 6.25C159.36 1.875 156.16 0.625 151.68 0.625C147.84 0.625 144 1.875 143.36 6.25C143.36 6.875 143.36 7.5 143.36 7.5V16.875C143.36 17.5 143.36 17.5 143.36 18.125C144 22.5 147.2 23.75 151.68 23.75C155.52 23.75 159.36 22.5 160 18.125C160 17.5 160 16.875 160 16.875V10.625H151.68V11.25Z" fill="#274FA6"/>
</g>
<defs>
<clipPath id="clip0">
<rect width="160" height="25" fill="white"/>
</clipPath>
</defs>
</svg>
