<svg width="198" height="34" viewBox="0 0 198 34" fill="none" xmlns="http://www.w3.org/2000/svg">
<g clip-path="url(#clip0)">
<path d="M86.6999 24.7404H82.0825L84.9706 7.31592H89.5877L86.6999 24.7404Z" fill="white"/>
<path d="M103.438 7.74183C102.528 7.38927 101.083 7 99.297 7C94.7371 7 91.5261 9.37257 91.5064 12.7646C91.4686 15.2673 93.8054 16.6573 95.5532 17.4918C97.3396 18.3445 97.9469 18.901 97.9469 19.6611C97.9287 20.8284 96.5033 21.3665 95.174 21.3665C93.3305 21.3665 92.3427 21.0891 90.8416 20.4396L90.2336 20.1612L89.5875 24.0727C90.6704 24.5541 92.6657 24.9813 94.7371 25C99.582 25 102.736 22.6641 102.774 19.0494C102.792 17.0658 101.558 15.5459 98.8978 14.304C97.2828 13.5067 96.2938 12.9691 96.2938 12.1534C96.3127 11.4118 97.1303 10.6522 98.9533 10.6522C100.454 10.615 101.557 10.9671 102.393 11.3194L102.81 11.5044L103.438 7.74183Z" fill="white"/>
<path d="M109.575 18.5675C109.956 17.5665 111.419 13.6923 111.419 13.6923C111.4 13.7295 111.798 12.6728 112.026 12.0241L112.349 13.5255C112.349 13.5255 113.223 17.6963 113.413 18.5675C112.692 18.5675 110.487 18.5675 109.575 18.5675ZM115.275 7.31592H111.703C110.602 7.31592 109.765 7.63078 109.29 8.76163L102.432 24.7401H107.276C107.276 24.7401 108.074 22.5896 108.245 22.1264C108.777 22.1264 113.49 22.1264 114.174 22.1264C114.306 22.7381 114.725 24.7401 114.725 24.7401H119L115.275 7.31592Z" fill="white"/>
<path d="M78.2259 7.31592L73.7039 19.1977L73.2098 16.788C72.3738 14.0074 69.7519 10.9864 66.8259 9.48425L70.9679 24.7219H75.8506L83.1084 7.31592H78.2259Z" fill="white"/>
<path d="M69.5049 7.31592H62.076L62 7.66798C67.795 9.11395 71.633 12.5994 73.2098 16.7887L71.5949 8.7806C71.329 7.66774 70.5119 7.35263 69.5049 7.31592Z" fill="#DDDDDD"/>
</g>
<g clip-path="url(#clip1)">
<path d="M30.9296 7.84717H20.001V27.289H30.9296V7.84717Z" fill="#DDDDDD"/>
<path d="M20.6949 17.5704C20.6929 15.6978 21.1214 13.8492 21.9479 12.1647C22.7744 10.4803 23.9772 9.00402 25.4653 7.84781C23.6228 6.41439 21.41 5.52303 19.0799 5.27561C16.7498 5.02819 14.3964 5.43468 12.2887 6.44863C10.1809 7.46259 8.40383 9.04309 7.16057 11.0095C5.9173 12.9759 5.258 15.2489 5.258 17.5687C5.258 19.8885 5.9173 22.1615 7.16057 24.1279C8.40383 26.0943 10.1809 27.6749 12.2887 28.6888C14.3964 29.7028 16.7498 30.1092 19.0799 29.8618C21.41 29.6144 23.6228 28.723 25.4653 27.2896C23.9777 26.1338 22.7751 24.6581 21.9486 22.9742C21.1222 21.2904 20.6934 19.4425 20.6949 17.5704Z" fill="#F0F0F0"/>
<path d="M45.6745 17.5699C45.6745 19.8899 45.015 22.163 43.7715 24.1295C42.528 26.096 40.7507 27.6765 38.6427 28.6903C36.5347 29.7041 34.181 30.1103 31.8508 29.8625C29.5205 29.6148 27.3077 28.723 25.4653 27.2891C26.9524 26.1322 28.1546 24.6561 28.9813 22.9722C29.808 21.2883 30.2376 19.4404 30.2376 17.5682C30.2376 15.6959 29.808 13.8481 28.9813 12.1642C28.1546 10.4803 26.9524 9.00417 25.4653 7.84729C27.3077 6.41342 29.5205 5.52163 31.8508 5.27385C34.181 5.02607 36.5347 5.4323 38.6427 6.44611C40.7507 7.45992 42.528 9.0404 43.7715 11.0069C45.015 12.9734 45.6745 15.2465 45.6745 17.5665V17.5699Z" fill="white"/>
<path d="M44.4811 25.2284V24.83H44.6441V24.7476H44.2313V24.83H44.4082V25.2284H44.4811ZM45.2825 25.2284V24.7476H45.1576L45.0119 25.091L44.8662 24.7476H44.7551V25.2284H44.8453V24.8678L44.9807 25.1803H45.0743L45.2096 24.8678V25.2318L45.2825 25.2284Z" fill="white"/>
<path d="M14.5864 20.1146V18.3356C14.5968 18.186 14.575 18.0359 14.5225 17.8953C14.4699 17.7547 14.3878 17.6269 14.2816 17.5203C14.1754 17.4137 14.0476 17.3308 13.9066 17.2771C13.7656 17.2234 13.6147 17.2002 13.464 17.209C13.2667 17.1961 13.0696 17.2361 12.8932 17.3248C12.7168 17.4134 12.5675 17.5475 12.4611 17.713C12.3641 17.5525 12.2252 17.4209 12.0592 17.3322C11.8932 17.2435 11.7062 17.2009 11.5179 17.209C11.3537 17.2007 11.1902 17.2352 11.0436 17.3091C10.897 17.3829 10.7724 17.4936 10.6821 17.63V17.2801H10.0612V20.1146H10.6881V18.555C10.6747 18.4581 10.6831 18.3594 10.7126 18.2661C10.7421 18.1728 10.792 18.0871 10.8588 18.0151C10.9255 17.9432 11.0074 17.8868 11.0986 17.8499C11.1899 17.8131 11.2882 17.7967 11.3865 17.8019C11.7984 17.8019 12.0074 18.0688 12.0074 18.5491V20.1264H12.6342V18.555C12.6214 18.4582 12.6302 18.3598 12.6599 18.2667C12.6896 18.1736 12.7396 18.0881 12.8062 18.0163C12.8728 17.9444 12.9545 17.888 13.0455 17.851C13.1364 17.8139 13.2345 17.7972 13.3327 17.8019C13.7565 17.8019 13.9595 18.0688 13.9595 18.5491V20.1264L14.5864 20.1146ZM23.8605 17.2801H22.8396V16.4203H22.2128V17.2801H21.6457V17.8435H22.2248V19.148C22.2248 19.8062 22.4815 20.1976 23.2157 20.1976C23.4901 20.1985 23.7591 20.1224 23.9918 19.9782L23.8127 19.4504C23.6462 19.5491 23.4573 19.6042 23.2635 19.6105C22.965 19.6105 22.8516 19.4208 22.8516 19.1361V17.8435H23.8665L23.8605 17.2801ZM29.1557 17.209C29.0044 17.2045 28.8546 17.2408 28.7222 17.3138C28.5898 17.3869 28.4797 17.4941 28.4035 17.6241V17.2801H27.7886V20.1146H28.4095V18.5254C28.4095 18.0569 28.6125 17.796 29.0065 17.796C29.1393 17.7942 29.2711 17.8184 29.3945 17.8672L29.5856 17.2742C29.4438 17.2238 29.2944 17.1977 29.1438 17.1971L29.1557 17.209ZM21.1502 17.5055C20.7987 17.2979 20.3947 17.195 19.9861 17.209C19.2637 17.209 18.7921 17.5529 18.7921 18.1162C18.7921 18.5787 19.1384 18.8634 19.7771 18.9523L20.0756 18.9938C20.4159 19.0413 20.5771 19.1302 20.5771 19.2903C20.5771 19.5097 20.3502 19.6343 19.9264 19.6343C19.5854 19.6441 19.2511 19.5396 18.9772 19.3378L18.6787 19.8181C19.0403 20.0689 19.4735 20.1978 19.9144 20.1857C20.7383 20.1857 21.2159 19.8003 21.2159 19.2607C21.2159 18.7211 20.8398 18.5017 20.2189 18.4127L19.9204 18.3712C19.6518 18.3356 19.4368 18.2823 19.4368 18.0925C19.4368 17.9028 19.6398 17.7604 19.9801 17.7604C20.2946 17.7641 20.6029 17.8478 20.8756 18.0036L21.1502 17.5055ZM37.7792 17.209C37.6278 17.2045 37.478 17.2408 37.3456 17.3138C37.2132 17.3869 37.1032 17.4941 37.027 17.6241V17.2801H36.4121V20.1146H37.0329V18.5254C37.0329 18.0569 37.2359 17.796 37.6299 17.796C37.7627 17.7942 37.8946 17.8184 38.018 17.8672L38.209 17.2742C38.0672 17.2238 37.9178 17.1977 37.7672 17.1971L37.7792 17.209ZM29.7796 18.6914C29.7722 18.8906 29.8068 19.0891 29.881 19.2743C29.9553 19.4594 30.0677 19.6272 30.211 19.7667C30.3543 19.9062 30.5253 20.0145 30.7132 20.0846C30.901 20.1548 31.1015 20.1851 31.3019 20.1739C31.6747 20.1927 32.041 20.0721 32.3287 19.8359L32.0302 19.3378C31.8156 19.5003 31.5539 19.5898 31.284 19.5927C31.0545 19.5743 30.8404 19.4707 30.6843 19.3026C30.5282 19.1345 30.4415 18.9142 30.4415 18.6855C30.4415 18.4568 30.5282 18.2365 30.6843 18.0684C30.8404 17.9002 31.0545 17.7967 31.284 17.7782C31.5539 17.7812 31.8156 17.8706 32.0302 18.0332L32.3287 17.5351C32.041 17.2989 31.6747 17.1783 31.3019 17.1971C31.1015 17.1858 30.901 17.2162 30.7132 17.2863C30.5253 17.3564 30.3543 17.4647 30.211 17.6043C30.0677 17.7438 29.9553 17.9115 29.881 18.0967C29.8068 18.2818 29.7722 18.4804 29.7796 18.6796V18.6914ZM35.5942 18.6914V17.2801H34.9733V17.6241C34.8679 17.4893 34.7317 17.3814 34.576 17.3092C34.4203 17.237 34.2496 17.2027 34.0779 17.209C33.682 17.209 33.3024 17.3652 33.0225 17.6432C32.7426 17.9212 32.5854 18.2982 32.5854 18.6914C32.5854 19.0846 32.7426 19.4617 33.0225 19.7397C33.3024 20.0177 33.682 20.1739 34.0779 20.1739C34.2496 20.1802 34.4203 20.1458 34.576 20.0736C34.7317 20.0015 34.8679 19.8935 34.9733 19.7588V20.1027H35.5942V18.6914ZM33.2839 18.6914C33.2938 18.5246 33.3526 18.3642 33.4531 18.2302C33.5535 18.0961 33.6913 17.9942 33.8493 17.9369C34.0074 17.8796 34.1789 17.8695 34.3427 17.9078C34.5065 17.9461 34.6554 18.0311 34.7711 18.1524C34.8869 18.2737 34.9644 18.426 34.9941 18.5905C35.0238 18.755 35.0044 18.9246 34.9384 19.0783C34.8723 19.232 34.7624 19.3632 34.6223 19.4556C34.4821 19.5481 34.3178 19.5978 34.1495 19.5987C34.0313 19.6002 33.9141 19.5773 33.8052 19.5316C33.6963 19.4859 33.5982 19.4184 33.5169 19.3331C33.4356 19.2479 33.3729 19.1469 33.3328 19.0365C33.2927 18.926 33.276 18.8086 33.2839 18.6914ZM25.7917 17.209C25.3959 17.2145 25.0185 17.3759 24.7425 17.6578C24.4666 17.9397 24.3146 18.319 24.3202 18.7122C24.3257 19.1053 24.4883 19.4802 24.7721 19.7543C25.0559 20.0285 25.4377 20.1794 25.8335 20.1739C26.263 20.1958 26.6853 20.0584 27.0185 19.7884L26.72 19.3318C26.4843 19.5196 26.1923 19.6239 25.8902 19.6283C25.685 19.6459 25.481 19.5832 25.3216 19.4536C25.1621 19.324 25.0599 19.1378 25.0365 18.9345H27.1558C27.1558 18.8574 27.1558 18.7804 27.1558 18.6973C27.1558 17.8079 26.6006 17.2149 25.8007 17.2149L25.7917 17.209ZM25.7917 17.7604C25.8846 17.7585 25.977 17.7747 26.0636 17.8082C26.1502 17.8417 26.2293 17.8918 26.2964 17.9557C26.3635 18.0196 26.4172 18.096 26.4546 18.1805C26.4919 18.265 26.5121 18.356 26.5141 18.4483H25.0216C25.0324 18.258 25.1178 18.0794 25.2595 17.9508C25.4012 17.8223 25.588 17.7539 25.7798 17.7604H25.7917ZM41.3461 18.6973V16.1416H40.7492V17.6241C40.6437 17.4893 40.5075 17.3814 40.3518 17.3092C40.1961 17.237 40.0254 17.2027 39.8537 17.209C39.4579 17.209 39.0782 17.3652 38.7983 17.6432C38.5185 17.9212 38.3612 18.2982 38.3612 18.6914C38.3612 19.0846 38.5185 19.4617 38.7983 19.7397C39.0782 20.0177 39.4579 20.1739 39.8537 20.1739C40.0254 20.1802 40.1961 20.1458 40.3518 20.0736C40.5075 20.0015 40.6437 19.8935 40.7492 19.7588V20.1027H41.3461V18.6973ZM42.3819 19.7024C42.4207 19.702 42.4592 19.709 42.4953 19.7232C42.5296 19.7371 42.561 19.7572 42.5879 19.7825C42.6141 19.8081 42.6353 19.8382 42.6505 19.8714C42.6657 19.9061 42.6735 19.9434 42.6735 19.9811C42.6735 20.0189 42.6657 20.0562 42.6505 20.0908C42.6353 20.1241 42.6141 20.1542 42.5879 20.1798C42.561 20.2051 42.5296 20.2252 42.4953 20.2391C42.4596 20.2548 42.421 20.2628 42.3819 20.2628C42.3253 20.2624 42.27 20.246 42.2225 20.2156C42.1749 20.1851 42.137 20.1419 42.1133 20.0908C42.0983 20.0562 42.0906 20.0189 42.0906 19.9811C42.0906 19.9434 42.0983 19.9061 42.1133 19.8714C42.1285 19.8382 42.1497 19.8081 42.1759 19.7825C42.2028 19.7572 42.2342 19.7371 42.2685 19.7232C42.3074 19.7078 42.349 19.7008 42.3909 19.7024H42.3819ZM42.3819 20.2035C42.4117 20.2037 42.4412 20.1976 42.4685 20.1857C42.4941 20.1743 42.5174 20.1582 42.5371 20.1383C42.5745 20.0978 42.5952 20.0449 42.5952 19.99C42.5952 19.9352 42.5745 19.8823 42.5371 19.8418C42.5175 19.8218 42.4942 19.8057 42.4685 19.7944C42.4412 19.7825 42.4117 19.7765 42.3819 19.7766C42.3521 19.7767 42.3227 19.7828 42.2953 19.7944C42.2685 19.8053 42.2442 19.8214 42.2237 19.8418C42.1864 19.8823 42.1657 19.9352 42.1657 19.99C42.1657 20.0449 42.1864 20.0978 42.2237 20.1383C42.2442 20.1586 42.2686 20.1747 42.2953 20.1857C42.3255 20.1986 42.3581 20.2047 42.3909 20.2035H42.3819ZM42.3998 19.8507C42.4277 19.8493 42.4551 19.8577 42.4774 19.8744C42.4866 19.8819 42.4938 19.8915 42.4984 19.9023C42.5031 19.9131 42.5051 19.9249 42.5043 19.9367C42.5047 19.9465 42.5031 19.9563 42.4995 19.9655C42.4959 19.9747 42.4904 19.9831 42.4834 19.99C42.4661 20.0056 42.444 20.015 42.4207 20.0167L42.5073 20.1146H42.4386L42.358 20.0167H42.3312V20.1146H42.2744V19.8537L42.3998 19.8507ZM42.3341 19.9011V19.9723H42.3998C42.4115 19.9757 42.4239 19.9757 42.4356 19.9723C42.4377 19.9681 42.4388 19.9635 42.4388 19.9589C42.4388 19.9543 42.4377 19.9497 42.4356 19.9456C42.4377 19.9414 42.4388 19.9369 42.4388 19.9322C42.4388 19.9276 42.4377 19.923 42.4356 19.9189C42.4239 19.9154 42.4115 19.9154 42.3998 19.9189L42.3341 19.9011ZM39.0507 18.6973C39.0606 18.5305 39.1194 18.3702 39.2199 18.2361C39.3204 18.102 39.4581 18.0001 39.6162 17.9428C39.7743 17.8855 39.9458 17.8754 40.1095 17.9137C40.2733 17.952 40.4223 18.037 40.538 18.1583C40.6538 18.2797 40.7313 18.4319 40.761 18.5964C40.7907 18.761 40.7713 18.9305 40.7052 19.0842C40.6392 19.2379 40.5293 19.3691 40.3891 19.4615C40.249 19.554 40.0846 19.6037 39.9164 19.6046C39.7982 19.6061 39.681 19.5833 39.5721 19.5376C39.4632 19.4919 39.365 19.4243 39.2837 19.3391C39.2024 19.2539 39.1397 19.1529 39.0997 19.0424C39.0596 18.932 39.0429 18.8145 39.0507 18.6973ZM18.0877 18.6973V17.2801H17.4668V17.6241C17.3614 17.4893 17.2252 17.3814 17.0695 17.3092C16.9138 17.237 16.743 17.2027 16.5713 17.209C16.1755 17.209 15.7959 17.3652 15.516 17.6432C15.2361 17.9212 15.0789 18.2982 15.0789 18.6914C15.0789 19.0846 15.2361 19.4617 15.516 19.7397C15.7959 20.0177 16.1755 20.1739 16.5713 20.1739C16.743 20.1802 16.9138 20.1458 17.0695 20.0736C17.2252 20.0015 17.3614 19.8935 17.4668 19.7588V20.1027H18.0877V18.6973ZM15.7773 18.6973C15.7872 18.5305 15.846 18.3702 15.9465 18.2361C16.047 18.102 16.1847 18.0001 16.3428 17.9428C16.5009 17.8855 16.6724 17.8754 16.8361 17.9137C16.9999 17.952 17.1489 18.037 17.2646 18.1583C17.3804 18.2797 17.4579 18.4319 17.4876 18.5964C17.5173 18.761 17.4979 18.9305 17.4318 19.0842C17.3658 19.2379 17.2559 19.3691 17.1157 19.4615C16.9756 19.554 16.8112 19.6037 16.643 19.6046C16.5243 19.6069 16.4064 19.5847 16.2968 19.5394C16.1872 19.494 16.0883 19.4266 16.0064 19.3413C15.9244 19.256 15.8612 19.1547 15.8208 19.0438C15.7803 18.933 15.7635 18.815 15.7714 18.6973H15.7773Z" fill="#274FA6"/>
</g>
<path fill-rule="evenodd" clip-rule="evenodd" d="M140.804 8.16923C141.338 8.1661 142.927 8.02581 143.6 10.2526C144.053 11.7526 144.775 14.2097 145.766 17.6238H146.17C147.233 14.0244 147.963 11.5673 148.36 10.2526C149.04 8.00261 150.74 8.16928 151.42 8.16928L156.666 8.16929V24.1692H151.319V14.7402H150.961L147.98 24.1692H143.957L140.976 14.7332H140.617V24.1692H135.27V8.16929L140.804 8.16923ZM164.345 8.16929V17.6053H164.771L168.397 9.84614C169.101 8.30204 170.601 8.16929 170.601 8.16929H175.776V24.1693H170.317V14.7332H169.89L166.336 22.4924C165.632 24.0295 164.061 24.1693 164.061 24.1693H158.886V8.16929H164.345ZM194.644 15.7726C193.883 17.8881 191.492 19.4031 188.844 19.4031H183.119V24.1693H177.928V15.7726H194.644Z" fill="white"/>
<path fill-rule="evenodd" clip-rule="evenodd" d="M189.094 8.16943H177.656C177.928 11.7316 181.057 14.781 184.296 14.781H195.005C195.623 11.8204 193.496 8.16943 189.094 8.16943Z" fill="#DDDDDD"/>
<defs>
<clipPath id="clip0">
<rect width="57" height="18" fill="white" transform="translate(62 7)"/>
</clipPath>
<clipPath id="clip1">
<rect width="51" height="34" fill="white"/>
</clipPath>
</defs>
</svg>
