<svg width="163" height="140" viewBox="0 0 163 140" fill="none" xmlns="http://www.w3.org/2000/svg">
<g clip-path="url(#clip0)">
<path d="M92.9124 134.005L11.0928 100.896L62.9387 77.2775L92.9124 134.005Z" fill="#00246D"/>
<path d="M66.1392 80.0401L11.0928 100.875L74.8839 95.4545L66.1392 80.0401Z" fill="#001E4F"/>
<path d="M122.748 70.6204L11.0928 100.875V50.2132L157.736 10.9666L122.748 70.6204Z" fill="#012885"/>
<path d="M92.9127 134.005L54.938 115.061L77.8716 99.4329L92.9127 134.005Z" fill="#E1013B"/>
<path d="M79.5931 102.866L83.3242 111.963L55.0552 115.065L77.9929 104.044L79.5931 102.866Z" fill="#BA0433"/>
<path d="M116.49 98.3639L54.938 115.061V85.842L132.492 63.7915L116.49 98.3639Z" fill="#FF0042"/>
<path d="M47.0307 60.833L52.3953 59.5945L52.1844 58.6811L48.2315 59.5936L48.2162 59.5272L49.6546 57.0434C50.7547 55.1406 51.0178 54.3101 50.8002 53.3676C50.4973 52.0555 49.1928 51.2546 47.698 51.5997C46.2074 51.9438 45.3078 53.2186 45.6529 54.7134L46.6328 54.4872C46.4094 53.5197 46.8878 52.7314 47.8719 52.5042C48.7936 52.2914 49.6299 52.6931 49.8369 53.59C50.0181 54.3748 49.6914 55.0625 48.9556 56.365L46.8581 60.0856L47.0307 60.833ZM54.1101 59.1986L59.4747 57.9601L59.2638 57.0466L55.3109 57.9592L55.2956 57.8928L56.734 55.409C57.8341 53.5062 58.0972 52.6757 57.8796 51.7332C57.5767 50.4211 56.2722 49.6202 54.7774 49.9653C53.2868 50.3094 52.3872 51.5842 52.7323 53.079L53.7122 52.8528C53.4888 51.8853 53.9672 51.097 54.9513 50.8698C55.873 50.657 56.7093 51.0587 56.9163 51.9556C57.0975 52.7403 56.7708 53.428 56.035 54.7306L53.9376 58.4512L54.1101 59.1986ZM63.8737 57.067C65.4931 56.6931 66.4045 55.2231 66.0287 53.5955C65.6482 51.9471 64.2232 51.0034 62.662 51.3638C62.089 51.4961 61.5796 51.828 61.295 52.1867L61.2452 52.1982L60.9652 49.6213L64.5194 48.8008L64.3085 47.8873L59.8906 48.9072L60.342 53.2115L61.3322 53.1053C61.6266 52.7706 62.1865 52.4489 62.7107 52.3323C63.7963 52.0904 64.7791 52.7294 65.036 53.8422C65.2882 54.9342 64.7092 55.9119 63.6628 56.1535C62.7909 56.3548 61.9681 55.9544 61.7118 55.2044L60.7153 55.4345C61.0767 56.7156 62.4122 57.4044 63.8737 57.067ZM71.1036 55.3978C72.9804 54.9645 73.6928 53.125 73.0515 50.3472C72.415 47.5902 70.9469 46.2322 69.0868 46.6617C67.2266 47.0912 66.5024 48.9553 67.1389 51.7123C67.7802 54.4901 69.2269 55.8311 71.1036 55.3978ZM70.8928 54.4843C69.6554 54.77 68.6463 53.6953 68.1354 51.4822C67.6254 49.2733 68.0648 47.8423 69.2938 47.5586C70.5228 47.2748 71.545 48.3684 72.055 50.5773C72.5659 52.7904 72.1301 54.1987 70.8928 54.4843ZM81.9717 49.1276C83.8651 48.6904 84.4807 47.3412 84.1625 45.9627C83.8442 44.5842 82.6994 43.6414 80.806 44.0785L77.8331 44.7649L78.7879 48.9004L77.4426 49.211L77.6535 50.1245L78.9988 49.8139L79.1828 50.6111L77.8375 50.9217L78.0484 51.8352L79.3937 51.5246L79.7963 53.2685L80.826 53.0308L80.4234 51.2869L82.3002 50.8536L82.0893 49.9401L80.2125 50.3734L80.0285 49.5762L81.9717 49.1276ZM79.8176 48.6627L79.0737 45.4406L81.0169 44.992C82.2127 44.7159 82.9346 45.2665 83.1494 46.1966C83.3641 47.1267 82.9566 47.938 81.7608 48.2141L79.8176 48.6627Z" fill="white"/>
<path d="M45.2666 57.208L85.2902 47.9678L85.4742 48.765L45.4507 58.0052L45.2666 57.208Z" fill="white"/>
<path d="M71.5309 99.5928L71.8302 96.9871L75.2682 96.1934L76.6795 98.4041L77.7591 98.1549L72.6734 90.3722L71.6105 90.6176L70.4513 99.842L71.5309 99.5928ZM71.9432 95.9988L72.4193 91.8478L72.4858 91.8325L74.7334 95.3547L71.9432 95.9988ZM78.9507 97.8798L79.9306 97.6536L79.3095 94.963L80.1897 94.7598L82.9036 96.9672L84.1658 96.6758L80.7952 93.9727L82.6602 90.3058L81.398 90.5972L79.7463 93.9L79.0986 94.0495L78.4582 91.2759L77.4783 91.5021L78.9507 97.8798ZM88.7742 88.8942L87.7943 89.1205L89.0558 94.5847L85.9999 95.2902L84.7384 89.826L83.7584 90.0522L85.2309 96.4299L90.1636 95.2911L90.6391 97.3506L91.619 97.1243L90.9326 94.1514L90.0358 94.3585L88.7742 88.8942ZM93.2991 93.0452L92.1603 88.1125L91.1804 88.3387L92.6528 94.7164L93.7988 94.4518L95.716 88.8136L96.8548 93.7463L97.8347 93.5201L96.3623 87.1424L95.2329 87.4031L93.2991 93.0452ZM103.466 92.22L104.396 92.0053L102.924 85.6276L100.3 86.2334C98.9252 86.5507 98.2565 87.4617 98.5277 88.6368C98.73 89.5129 99.3139 90.0341 100.142 90.1183L99.2142 93.2016L100.277 92.9562L101.157 90.024L102.868 89.6291L103.466 92.22ZM102.657 88.7156L100.847 89.1335C100.153 89.2936 99.6486 89.0209 99.5076 88.4105C99.3648 87.7919 99.7426 87.3066 100.507 87.1303L102.201 86.7392L102.657 88.7156Z" fill="white"/>
<path d="M53.0271 67.2021L50.7739 67.7223L48.3773 70.1474L48.8681 72.2733L51.0888 70.0462L51.1552 70.0309L53.2475 79.0936L55.6447 78.5402L53.0271 67.2021ZM58.7879 77.8146L61.2625 77.2432L63.8096 66.8062L63.3507 64.8187L55.3952 66.6554L55.8476 68.6152L61.3229 67.3511L61.3408 67.4286L58.7879 77.8146ZM71.6358 75.0117C74.1603 74.4288 75.4969 72.3884 74.9622 70.0977C74.4667 67.9262 72.5894 66.7152 70.5465 67.1868C69.55 67.4169 68.7878 68.0302 68.5183 68.6814L68.4518 68.6967L68.0896 65.7889L73.0445 64.645L72.592 62.6852L65.6607 64.2854L66.504 70.3885L68.7237 70.2784C68.9638 69.7273 69.5715 69.2779 70.2414 69.1233C71.3831 68.8655 72.3929 69.5012 72.6677 70.6915C72.9399 71.8707 72.3251 72.8699 71.2012 73.1293C70.249 73.3492 69.3414 72.9289 69.0828 72.0615L66.7576 72.5983C67.2544 74.5479 69.2884 75.5536 71.6358 75.0117ZM82.0102 72.7157C84.8613 72.0574 86.0821 69.4897 85.2249 65.7515C84.3741 62.041 82.1394 60.3177 79.2993 60.9734C76.4537 61.6304 75.2159 64.1495 76.068 67.8656C76.9171 71.594 79.1522 73.3696 82.0102 72.7157ZM81.5514 70.7282C80.2503 71.0285 79.1072 69.9163 78.5095 67.3019C77.9207 64.7263 78.4576 63.2378 79.753 62.9387C81.043 62.6409 82.1835 63.7421 82.7779 66.3165C83.3867 68.9283 82.8468 70.4291 81.5514 70.7282ZM96.7422 64.7311C99.3774 64.1227 100.715 62.3621 100.196 60.1668C99.724 58.0715 97.7623 56.8742 95.0717 57.4953L90.6427 58.5178L91.8698 63.8326L90.2587 64.2045L90.7022 66.1256L92.3133 65.7536L92.482 66.4844L90.8709 66.8563L91.3145 68.7774L92.9255 68.4055L93.2604 69.856L95.6409 69.3064L95.3061 67.8559L97.7807 67.2845L97.3372 65.3635L94.8625 65.9348L94.6938 65.204L96.7422 64.7311ZM94.2503 63.283L93.4732 59.917L95.5216 59.4441C96.7894 59.1514 97.5858 59.7722 97.8052 60.7479C98.0408 61.7431 97.5776 62.5148 96.2323 62.8254L94.2503 63.283Z" fill="white"/>
</g>
<defs>
<clipPath id="clip0">
<rect width="163" height="140" fill="white"/>
</clipPath>
</defs>
</svg>
