<svg width="317" height="200" viewBox="0 0 317 200" fill="none" xmlns="http://www.w3.org/2000/svg">
<path d="M0 40C0 21.1438 0 11.7157 5.85786 5.85786C11.7157 0 21.1438 0 40 0H277C295.856 0 305.284 0 311.142 5.85786C317 11.7157 317 21.1438 317 40V92.973C317 111.829 317 121.257 311.142 127.115C305.284 132.973 295.856 132.973 277 132.973H161.194C148.562 132.973 142.246 132.973 137.558 135.724C134.613 137.452 132.16 139.906 130.431 142.851C127.681 147.538 127.681 153.854 127.681 166.486C127.681 179.119 127.681 185.435 124.93 190.122C123.202 193.067 120.748 195.521 117.803 197.249C113.115 200 106.799 200 94.167 200H40C21.1438 200 11.7157 200 5.85786 194.142C0 188.284 0 178.856 0 160V40Z" fill="#ECEFF3"/>
</svg>
