<svg width="992" height="431" viewBox="0 0 992 431" fill="none" xmlns="http://www.w3.org/2000/svg">
<path d="M0 60C0 31.7157 0 17.5736 8.7868 8.7868C17.5736 0 31.7157 0 60 0H932C960.284 0 974.426 0 983.213 8.7868C992 17.5736 992 31.7157 992 60V371C992 399.284 992 413.426 983.213 422.213C974.426 431 960.284 431 932 431H356.859C336.459 431 326.259 431 318.493 425.537C310.727 420.073 307.281 410.473 300.388 391.274L280.087 334.726C273.194 315.527 269.748 305.927 261.982 300.463C254.216 295 244.016 295 223.616 295H60C31.7157 295 17.5736 295 8.7868 286.213C0 277.426 0 263.284 0 235V60Z" fill="black"/>
</svg>
