<svg width="336" height="460" viewBox="0 0 336 460" fill="none" xmlns="http://www.w3.org/2000/svg">
<path d="M0.25 60C0.25 31.7157 0.25 17.5736 9.0368 8.7868C17.8236 0 31.9657 0 60.25 0H275.25C303.534 0 317.676 0 326.463 8.7868C335.25 17.5736 335.25 31.7157 335.25 60V400C335.25 428.284 335.25 442.426 326.463 451.213C317.676 460 303.534 460 275.25 460H92.2769C89.5366 460 88.1664 460 86.9716 459.904C73.8377 458.853 62.9269 449.355 60.0758 436.492C59.8164 435.321 59.6276 433.964 59.25 431.25L58.7772 427.852C56.7551 413.318 44.3275 402.5 29.6539 402.5C13.4146 402.5 0.25 389.335 0.25 373.096V60Z" fill="black"/>
</svg>
