<svg width="480" height="460" viewBox="0 0 480 460" fill="none" xmlns="http://www.w3.org/2000/svg">
<path d="M0 60C0 31.7157 0 17.5736 8.7868 8.7868C17.5736 0 31.7157 0 60 0H420C448.284 0 462.426 0 471.213 8.7868C480 17.5736 480 31.7157 480 60V400C480 428.284 480 442.426 471.213 451.213C462.426 460 448.284 460 420 460H119.584C115.131 460 112.905 460 110.949 459.741C99.6391 458.247 90.1558 450.468 86.4792 439.669C85.8432 437.8 85.4079 435.617 84.5373 431.25V431.25C83.6668 426.883 83.2315 424.7 82.5955 422.831C78.9189 412.032 69.4356 404.253 58.126 402.759C56.1696 402.5 53.9432 402.5 49.4902 402.5H43.2922C30.9153 402.5 24.7268 402.5 19.7697 400.702C11.4123 397.67 4.82989 391.088 1.7982 382.73C0 377.773 0 371.585 0 359.208V60Z" fill="black"/>
</svg>
